<svg width="171" height="172" viewBox="0 0 171 172" fill="none" xmlns="http://www.w3.org/2000/svg">
<g clip-path="url(#clip0)">
<path opacity="0.19" d="M52.3304 26.6553C48.2671 30.9978 45.1212 36.1299 41.0422 40.4725C34.6481 47.2665 26.242 51.7591 18.6588 57.2031C11.0756 62.647 3.88216 69.7096 1.86627 78.8368C-0.79927 90.8893 6.14215 102.918 6.73668 115.263C6.95717 119.897 6.27602 124.556 6.70912 129.175C8.04386 143.406 19.9699 154.835 33.3054 159.892C46.641 164.949 61.2838 164.859 75.5406 164.705L96.7035 164.48C108.189 164.357 119.91 164.195 130.753 160.409C141.596 156.623 151.621 148.503 154.589 137.386C156.381 130.699 155.55 123.415 158.062 116.968C159.932 112.172 163.488 108.259 166.11 103.83C174.398 89.8195 171.921 70.2978 160.405 58.8256C155.715 54.1514 149.412 50.1405 148.199 43.6346C147.538 40.1448 148.518 36.501 147.868 33.0072C146.687 26.7145 140.561 22.5259 134.415 20.8402C128.269 19.1545 121.772 19.3164 115.567 17.9071C108.055 16.2095 101.224 12.2618 93.8136 10.1497C85.3799 7.74156 79.3441 9.12723 72.2294 13.4777C65.3588 17.682 58.0591 20.5284 52.3304 26.6553Z" fill="#2D914C"/>
<path d="M97.4595 38.0051L98.2627 38.238L98.9635 40.0342L97.4595 38.8736V38.0051Z" fill="#2D914C"/>
<path d="M97.7863 39.0868L98.2627 38.238L98.7903 39.7263L97.7863 39.0868Z" fill="url(#paint0_linear)"/>
<path d="M10.5795 155.412C8.00451 155.783 5.33897 156.201 3.15772 157.614C0.976466 159.028 -0.57876 161.779 0.204759 164.251C1.03552 166.892 4.09479 168.198 6.85876 168.198C9.62273 168.198 12.3001 167.31 15.0522 167.065C20.1983 166.607 25.2183 168.486 30.2462 169.675C38.6326 171.649 47.3379 171.747 55.9566 171.822C87.1163 172.099 118.39 172.367 149.306 168.443C155.475 167.654 161.72 166.682 167.366 164.057C169.39 163.118 171.638 160.986 170.543 159.036C170.145 158.428 169.575 157.953 168.905 157.674C164.752 155.629 159.826 156.529 155.223 156.035C150.621 155.542 145.4 152.257 146.034 147.662C138.577 143.904 129.722 147.133 121.729 149.533C103.306 155.06 83.8916 155.81 64.8037 154.788C55.3267 154.282 45.9048 153.185 36.475 152.293C28.0413 151.531 19.021 154.188 10.5795 155.412Z" fill="url(#paint1_linear)"/>
<path d="M35.0418 138.634C35.0418 138.634 27.4389 139.214 29.6635 148.503C31.888 157.792 39.3728 163.066 56.3346 164.989C73.2964 166.911 115.654 165.83 133.434 158.42C133.434 158.42 141.49 154.65 140.006 143.841C137.592 126.313 45.763 128.851 35.0418 138.634Z" fill="url(#paint2_linear)"/>
<path d="M30.7895 142.143C30.7895 142.143 47.8813 162.841 118.481 151.57C118.481 151.57 136.667 146.324 132.6 140.378C128.533 134.433 46.8851 130.75 30.7895 142.143Z" fill="url(#paint3_linear)"/>
<path d="M54.2045 143.588L55.5944 149.071C55.5944 149.071 85.8721 154.91 104.224 148.365L107.114 142.735C107.114 142.735 85.8327 136.865 81.86 134.611L81.3048 130.971L79.5331 131.843C79.5331 131.843 74.391 139.838 54.2045 143.588Z" fill="url(#paint4_linear)"/>
<path d="M53.0667 138.29L54.4605 143.774C54.4605 143.774 84.7381 149.616 103.09 143.067L105.976 137.437C105.976 137.437 84.6948 131.567 80.7142 129.317L80.1551 125.673L78.3755 126.549C78.3755 126.549 73.2531 134.544 53.0667 138.29Z" fill="url(#paint5_linear)"/>
<path d="M65.914 141.113C70.3402 140.454 74.6143 139.012 78.5369 136.853C82.8901 138.841 87.6378 139.809 92.4197 139.684L87.3485 133.43C86.254 132.084 85.1476 130.722 83.7499 129.696C82.9624 129.123 82.0332 128.65 81.0804 128.8C80.5161 128.922 79.9811 129.154 79.5055 129.483C76.3556 131.388 73.2846 133.421 70.2922 135.582C68.7856 136.674 67.2986 137.798 65.8313 138.953C65.4888 139.222 63.6894 140.311 63.7012 140.722C63.7445 141.586 65.4021 141.188 65.914 141.113Z" fill="url(#paint6_linear)"/>
<path d="M29.7895 135.392L30.7895 142.143C30.7895 142.143 35.0575 146.146 49.842 144.231C64.6265 142.317 75.202 137.99 79.5331 131.843L43.6211 127.086C43.6211 127.086 29.8682 130.58 29.7895 135.392Z" fill="url(#paint7_linear)"/>
<path d="M32.5534 131.042C31.3526 131.713 30.0611 132.542 29.7265 133.876C29.439 135.025 29.9903 136.265 30.8565 137.066C31.7697 137.831 32.8482 138.372 34.0063 138.645C38.5972 139.976 43.4755 139.763 48.2474 139.541C52.8659 139.324 57.5355 139.103 61.9964 137.872C65.2014 136.991 68.2409 135.602 71.2687 134.22C72.5523 133.632 73.9185 132.976 74.6233 131.753L55.0392 130.173C53.3925 130.1 51.7578 129.857 50.161 129.447C48.6569 129.009 47.2552 128.263 45.7709 127.769C43.7629 127.078 41.117 126.391 39.1563 127.469C36.9671 128.677 34.7386 129.826 32.5534 131.042Z" fill="url(#paint8_linear)"/>
<path d="M41.3966 127.082C41.3966 127.082 30.9391 131.255 33.1283 133.758C35.3174 136.261 54.2636 138.961 69.745 131.188L67.1424 130.738C67.1424 130.738 56.4881 137.193 38.794 134.611C38.794 134.611 31.4234 133.821 35.4316 131.188C39.4397 128.555 45.7551 127.777 45.7551 127.777C45.7551 127.777 43.7038 126.056 41.3966 127.082Z" fill="url(#paint9_linear)"/>
<path d="M60.7365 131.188C60.7365 131.188 49.8263 135.531 43.7589 133.308C37.6916 131.085 48.1648 128.721 48.1648 128.721L49.5428 129.084C49.5428 129.084 44.2944 129.712 43.6093 131.322C42.9242 132.933 49.3381 133.336 52.5154 132.475C55.6928 131.614 59.7246 130.304 59.7246 130.304L61.8783 130.699L60.7365 131.188Z" fill="url(#paint10_linear)"/>
<path d="M72.4184 133.494C74.2177 133.584 76.2021 133.62 77.592 132.475C77.6969 132.401 77.7858 132.307 77.8535 132.197C77.9211 132.088 77.9661 131.966 77.9857 131.839C78.0054 131.409 77.5368 131.141 77.1431 130.975C70.4497 128.168 63.5674 125.318 56.311 124.935C53.858 124.808 40.9123 123.474 43.1014 128.78C43.8889 130.714 47.9758 132.246 49.7712 132.333C53.3934 132.507 57.0118 132.704 60.6302 132.89C64.5714 133.091 68.5087 133.494 72.4184 133.494Z" fill="url(#paint11_linear)"/>
<path d="M81.3048 130.971L81.86 134.611C81.86 134.611 100.794 144.749 116.402 142.802C132.009 140.856 140.187 136.024 140.813 133.308C141.439 130.592 142.112 124.911 142.112 124.911L133.556 119.518L83.8798 127.769L81.3048 130.971Z" fill="url(#paint12_linear)"/>
<path d="M83.6633 129.976C83.6633 129.976 103.161 138.345 118.866 136.431C134.572 134.516 142.49 127.907 142.128 124.911C141.766 121.915 134.887 120.083 134.887 120.083C134.887 120.083 84.1239 125.562 83.8956 127.769L83.6633 129.976Z" fill="url(#paint13_linear)"/>
<path opacity="0.51" d="M89.8645 131.843C97.5658 130.58 111.264 130.383 118.874 128.638C123.229 127.639 127.379 125.898 131.474 124.118C132.388 123.779 133.24 123.289 133.994 122.669C134.367 122.354 134.659 121.954 134.844 121.501C135.03 121.049 135.102 120.558 135.057 120.071C135.046 119.944 135.01 119.82 134.95 119.707C134.889 119.594 134.806 119.495 134.706 119.416C134.513 119.312 134.295 119.265 134.076 119.282C121.938 119.009 109.801 119.858 97.8178 121.816C94.1876 122.412 77.6707 126.723 77.2219 131.539C77.0565 133.288 83.0451 135.065 84.5334 135.925C87.0769 137.382 87.3367 132.274 89.8645 131.843Z" fill="url(#paint14_linear)"/>
<path d="M108.689 38.7117C108.513 38.7312 108.346 38.8011 108.208 38.9131C108.141 38.9705 108.093 39.0465 108.069 39.1315C108.045 39.2166 108.047 39.3068 108.074 39.3908C107.909 39.3118 107.732 39.4895 107.661 39.6592C107.59 39.829 107.535 40.054 107.362 40.1053C107.291 40.1235 107.221 40.1459 107.153 40.1724C107.003 40.2632 107.031 40.4882 106.964 40.6501C106.858 40.9028 106.527 40.9817 106.381 41.2146C106.317 41.3355 106.291 41.4732 106.307 41.6094C106.343 41.8874 106.443 42.1531 106.6 42.3854C106.756 42.6177 106.965 42.8102 107.208 42.9477C107.7 43.2187 108.232 43.4106 108.783 43.5162L110.216 43.8675C110.357 43.9329 110.516 43.9461 110.665 43.9049C110.814 43.8637 110.944 43.7707 111.031 43.6425C111.586 43.0661 112.165 42.4029 112.181 41.6055C112.165 41.0386 111.934 40.4991 111.535 40.0974C110.834 39.371 109.76 38.5459 108.689 38.7117Z" fill="url(#paint15_linear)"/>
<path d="M107.023 41.2028C107.078 41.2778 107.114 41.3686 107.161 41.4475C107.183 41.4901 107.212 41.5278 107.249 41.5583C107.286 41.5888 107.328 41.6116 107.374 41.6252C107.448 41.6349 107.523 41.6268 107.594 41.6015C107.958 41.5279 108.3 41.3712 108.594 41.1436C108.605 41.135 108.615 41.1242 108.622 41.112C108.625 41.0841 108.618 41.056 108.602 41.033C108.555 40.9328 108.541 40.8203 108.563 40.7117C108.584 40.6031 108.639 40.5041 108.72 40.429C108.795 40.3686 108.877 40.3181 108.964 40.279L109.378 40.0816C109.378 40.0816 109.401 40.0816 109.405 40.0579C109.408 40.0517 109.41 40.045 109.41 40.0382C109.41 40.0314 109.408 40.0246 109.405 40.0185C109.39 39.9795 109.366 39.9446 109.336 39.9165C109.305 39.8884 109.268 39.8679 109.228 39.8566C109.147 39.8375 109.063 39.8282 108.98 39.829C108.817 39.8225 108.656 39.804 108.496 39.7737C108.419 39.7685 108.346 39.7364 108.291 39.6829C108.263 39.6469 108.238 39.6086 108.216 39.5684C108.181 39.5113 108.129 39.467 108.067 39.4421C108.049 39.4334 108.031 39.4289 108.011 39.4289C107.992 39.4289 107.973 39.4334 107.956 39.4421C107.94 39.4555 107.928 39.4738 107.922 39.4943C107.917 39.5148 107.918 39.5366 107.925 39.5566C107.937 39.5957 107.958 39.631 107.988 39.6592L108.606 40.3817C108.629 40.4056 108.644 40.4359 108.649 40.4685C108.649 40.5356 108.57 40.5672 108.504 40.5751C108.406 40.5969 108.305 40.5969 108.208 40.5751C107.996 40.5001 107.885 40.2632 107.685 40.1803C107.636 40.1553 107.581 40.147 107.527 40.1566C107.472 40.1566 107.425 40.2198 107.366 40.2277C107.307 40.2356 107.22 40.2277 107.196 40.2672C107.19 40.28 107.186 40.2942 107.186 40.3086C107.186 40.323 107.19 40.3372 107.196 40.3501C107.349 40.5477 107.512 40.7374 107.685 40.9185C107.702 40.9448 107.714 40.9744 107.72 41.0054C107.721 41.0361 107.711 41.0663 107.693 41.0907C107.674 41.1151 107.647 41.1324 107.618 41.1396C107.559 41.1574 107.496 41.1574 107.437 41.1396C107.312 41.1019 107.198 41.0372 107.102 40.9501C107.067 40.9109 107.024 40.8799 106.976 40.8593C106.945 40.8496 106.911 40.8478 106.879 40.854C106.847 40.8602 106.816 40.8742 106.791 40.8949C106.741 40.9272 106.699 40.9704 106.669 41.0212C106.8 41.0523 106.921 41.1146 107.023 41.2028Z" fill="url(#paint16_linear)"/>
<path d="M100.066 42.4226L99.4281 40.7527L105.334 46.1099L108.693 41.8029L112.275 42.17L107.192 51.163C107.192 51.163 105.751 52.4934 104.176 51.6565C102.602 50.8195 98.9596 44.6887 98.9596 44.6887L100.066 42.4226Z" fill="#2D914C"/>
<path d="M100.066 42.4227L99.5502 40.8988L105.338 46.1099L108.696 41.8029L112.279 42.17L107.196 51.163C107.196 51.163 105.755 52.4934 104.18 51.6565C102.606 50.8195 98.9635 44.6887 98.9635 44.6887L100.066 42.4227Z" fill="url(#paint17_linear)"/>
<path d="M94.412 32.9362L93.5104 39.3315L97.5816 39.0039L97.4595 36.4892C97.4595 36.4892 95.5184 34.4205 94.412 32.9362Z" fill="url(#paint18_linear)"/>
<path d="M34.6717 106.321C33.1755 106.988 31.6006 107.719 30.6832 109.085C29.7068 110.525 29.6713 112.385 29.6635 114.13C29.6635 117.039 29.691 120.115 31.1754 122.617C33.5692 126.648 38.8294 127.809 43.503 127.998C45.4716 128.077 47.4403 128.057 49.3105 128.658C50.3027 128.973 51.2358 129.447 52.228 129.779C54.6258 130.545 57.2087 130.276 59.7088 130.323C63.7603 130.398 67.7527 131.299 71.7845 131.685C75.8162 132.072 80.0528 131.899 83.6475 129.984C84.7066 129.415 85.7028 128.701 86.8485 128.338C87.9943 127.975 89.329 128.002 90.585 128.026C105.721 128.29 120.763 125.595 134.872 120.091C135.326 119.947 135.747 119.712 136.108 119.4C136.484 118.977 136.754 118.469 136.895 117.92C138.049 114.513 139.061 110.324 136.635 107.675C136.037 107.02 135.273 106.53 134.734 105.828C134.468 105.392 134.147 104.994 133.777 104.643C133.131 104.15 132.237 104.205 131.415 104.284C110.74 106.215 89.9413 106.443 69.2292 104.963C69.094 104.932 68.9538 104.931 68.8181 104.959C68.6823 104.987 68.554 105.043 68.4417 105.125C68.2488 105.314 68.363 105.753 68.6307 105.705C62.7248 105.705 56.8189 105.022 50.913 104.347L47.6096 103.952C45.3889 103.7 43.1014 103.447 40.8808 103.842C38.6601 104.237 36.6915 105.429 34.6717 106.321Z" fill="url(#paint19_linear)"/>
<path opacity="0.36" d="M35.4355 108.796C39.3413 110.127 43.2865 111.469 47.3891 111.868C48.2789 111.959 49.1727 111.998 50.0704 112.041L53.3816 112.199L61.3153 112.594L75.6666 113.277C75.5502 113.166 75.4123 113.079 75.2613 113.023C75.1103 112.967 74.9495 112.943 74.7888 112.951C74.628 112.96 74.4707 113.001 74.3264 113.073C74.1822 113.144 74.0541 113.245 73.95 113.368L97.1563 113.921C100.393 114 103.649 114.075 106.854 113.593C109.862 113.135 112.811 112.187 115.851 112.12C117.819 112.077 119.752 112.397 121.701 112.306C124.772 112.164 127.69 111.007 130.544 109.866L128.97 108.074C130.649 108.234 132.342 108.139 133.994 107.794C132.769 105.709 129.887 105.516 127.473 105.571L66.8393 106.897C59.8388 107.051 52.7477 107.194 45.9284 105.587C44.3535 105.212 42.7431 104.738 41.1091 104.754C38.857 104.766 36.0419 106.447 35.4355 108.796Z" fill="url(#paint20_linear)"/>
<path d="M70.9537 111.106L99.499 123.277L126.158 108.587C126.158 108.587 93.4513 108.702 90.0771 109.246C86.7028 109.791 73.2334 108.587 73.2334 108.587L67.6936 109.566L70.9537 111.106Z" fill="#F4E9A4"/>
<path d="M70.9537 109.353L99.499 121.52L126.158 108.587C126.158 108.587 93.4513 108.702 90.0771 109.246C86.7028 109.791 73.2334 108.587 73.2334 108.587L67.6936 109.566L70.9537 109.353Z" fill="url(#paint21_linear)"/>
<path d="M121.071 110.446C118.898 110.758 116.685 110.525 114.492 110.573C112.031 110.62 100.29 111.449 97.8453 111.71C85.9784 112.977 83.305 110.525 71.3711 110.92C70.9557 110.965 70.5357 110.92 70.1387 110.79C69.115 110.395 68.9063 108.883 69.5087 107.955C70.1111 107.028 71.2293 106.578 72.3121 106.353C73.6879 106.107 75.0845 105.997 76.4817 106.025C91.5746 105.828 106.667 106.054 121.76 106.704C122.721 106.744 125.942 106.404 125.698 108.177C125.513 109.594 122.154 110.289 121.071 110.446Z" fill="url(#paint22_linear)"/>
<path d="M28.9981 100.257C28.8918 101.698 29.8525 103.06 31.1006 103.787C32.3487 104.513 33.8252 104.706 35.2662 104.762C37.0734 104.829 39.2035 104.853 40.2233 106.341C40.6485 106.969 40.7942 107.778 41.3257 108.315C42.936 109.957 45.6055 107.612 47.8852 107.857C49.9444 108.078 51.1886 110.36 53.1612 110.983C56.6771 112.089 59.886 107.517 63.528 108.07C64.9848 108.291 66.225 109.317 67.6818 109.535C69.5481 109.815 71.3435 108.721 73.2216 108.556C75.4383 108.358 77.5526 109.444 79.7181 109.894C83.1278 110.6 87.8643 110.616 91.3055 110.103C103.22 108.334 114.193 109.929 126.158 108.567C127.399 108.425 128.682 108.224 129.722 107.533C130.985 106.692 131.734 105.22 133.025 104.418C135.935 102.61 140.27 104.892 142.951 102.756C143.148 102.619 143.316 102.444 143.445 102.24C143.573 102.037 143.66 101.809 143.699 101.572C143.88 99.8902 140.821 99.4599 140.714 97.7702C140.679 97.1899 141.033 96.6254 140.947 96.049C140.829 95.2594 139.982 94.8449 139.238 94.5765C130.726 91.5051 121.465 91.4814 112.417 91.4933C100.154 91.4933 87.8906 91.5104 75.6273 91.5446L56.9567 91.5722H47.9009C45.4244 91.5722 42.1446 91.0077 39.7823 91.9078C37.8609 92.6381 36.3726 94.462 34.526 95.4213C32.4511 96.5464 29.2146 97.4347 28.9981 100.257Z" fill="#72D000"/>
<path d="M30.9785 98.9506C30.8683 100.392 31.8329 101.754 33.0771 102.48C34.3213 103.206 35.8056 103.4 37.2467 103.455C39.05 103.518 41.184 103.546 42.2037 105.034C42.625 105.662 42.7746 106.471 43.3062 107.008C44.9165 108.65 45.6055 107.612 47.8852 107.857C49.9444 108.078 51.1886 110.36 53.1612 110.983C56.6772 112.089 59.7561 105.062 63.3981 105.614C64.8549 105.835 66.0951 106.862 67.5519 107.079C69.4182 107.359 71.2136 106.27 73.0917 106.1C75.3084 105.903 77.5408 109.444 79.7181 109.894C83.1278 110.6 87.8643 110.616 91.3055 110.103C103.22 108.334 111.496 108.157 123.465 106.795C124.705 106.653 125.985 106.451 127.009 105.76C128.273 104.92 129.025 103.447 130.312 102.646C133.222 100.838 140.254 104.892 142.935 102.756C143.132 102.619 143.3 102.444 143.429 102.24C143.557 102.037 143.644 101.809 143.683 101.572C143.864 99.8902 140.805 99.4599 140.699 97.7702C140.663 97.1899 141.018 96.6254 140.931 96.049C140.813 95.2594 139.966 94.8449 139.222 94.5765C130.71 91.5051 121.449 91.4814 112.401 91.4933C100.138 91.4933 87.8749 91.5104 75.6115 91.5446L56.941 91.5722H47.8852C45.4087 91.5722 42.1289 91.0077 39.7665 91.9078C37.8451 92.6381 36.3569 94.462 34.5103 95.4213C32.4511 96.5464 31.1911 96.128 30.9785 98.9506Z" fill="url(#paint23_linear)"/>
<path d="M57.693 100.155C67.4062 101.003 77.5369 98.7454 86.758 101.927C89.6125 102.91 92.3332 104.41 95.3294 104.75C98.2391 105.078 101.145 104.288 104.062 104.051C108.393 103.692 112.744 104.556 117.095 104.671C117.724 104.73 118.359 104.642 118.949 104.414C119.241 104.294 119.487 104.084 119.653 103.814C119.818 103.545 119.894 103.23 119.87 102.914C119.713 102.002 118.496 101.525 118.437 100.597C118.39 99.8389 119.178 99.2862 119.918 99.1243C120.658 98.9625 121.457 99.0177 122.142 98.6901C122.827 98.3624 123.296 97.3873 122.772 96.8386C122.426 96.5587 121.982 96.4281 121.54 96.4754C119.713 96.4478 117.89 96.4754 116.067 96.4951C97.6564 96.703 79.2601 96.1767 60.8782 94.916C58.7993 94.7739 51.2004 93.4277 50.2082 96.0253C49.0979 98.9309 55.9763 100.005 57.693 100.155Z" fill="url(#paint24_linear)"/>
<path d="M38.9397 113.463C38.744 113.763 38.6208 114.105 38.5798 114.461C38.5388 114.817 38.5811 115.178 38.7035 115.515C38.9043 116.048 39.3098 116.522 39.3295 117.095C39.3531 117.738 38.8767 118.279 38.7704 118.93C38.7423 119.29 38.7944 119.651 38.9232 119.988C39.0519 120.324 39.2539 120.628 39.5145 120.876C39.9988 121.402 40.6012 121.812 41.0895 122.321C41.3462 122.627 41.646 122.892 41.9793 123.111C42.1491 123.219 42.3485 123.271 42.5492 123.259C42.7499 123.247 42.9418 123.171 43.0975 123.044C43.2446 122.865 43.34 122.649 43.3731 122.42C43.5494 121.613 43.6182 120.786 43.5778 119.961C43.5726 119.516 43.4817 119.076 43.3101 118.666C43.0423 118.093 42.5226 117.675 42.1801 117.15C41.8375 116.625 41.6604 115.863 42.0895 115.401C42.4242 115.042 43.0975 114.813 42.9833 114.335C42.9163 114.067 42.6171 113.94 42.4006 113.771C42.2188 113.619 42.0867 113.415 42.0214 113.187C41.9561 112.959 41.9606 112.717 42.0344 112.491C41.4815 112.315 40.888 112.314 40.3344 112.488C39.7808 112.662 39.2938 113.002 38.9397 113.463Z" fill="url(#paint25_linear)"/>
<path d="M54.6809 122.799C54.8706 123.028 55.1142 123.206 55.3896 123.316C55.528 123.368 55.6801 123.369 55.8192 123.319C55.9583 123.269 56.0753 123.172 56.1495 123.044C56.4015 122.452 54.8857 120.6 54.7203 119.854C54.5195 118.95 54.988 117.817 53.862 117.928C53.0115 118.006 51.7673 119.286 51.9957 120.071C52.2241 120.857 54.0549 122.167 54.6809 122.799Z" fill="url(#paint26_linear)"/>
<path d="M126.41 116.877C126.258 116.988 126.132 117.131 126.04 117.296C125.971 117.501 125.935 117.715 125.934 117.931C125.82 118.863 125.072 119.566 124.359 120.186C125.913 120.319 127.478 120.134 128.958 119.641C129.271 119.557 129.561 119.402 129.804 119.187C129.945 119.014 130.077 118.833 130.198 118.646C130.966 117.675 132.438 117.722 133.525 117.134C133.584 117.098 133.651 117.055 133.667 116.988C133.678 116.944 133.678 116.898 133.667 116.854C132.501 113.301 128.304 115.318 126.41 116.877Z" fill="url(#paint27_linear)"/>
<path d="M81.4623 124.433C80.8099 124.303 80.1324 124.433 79.5747 124.797C79.017 125.161 78.6233 125.729 78.4779 126.38C79.9707 126.3 81.4373 125.954 82.8089 125.357C83.3472 125.175 83.8107 124.819 84.1279 124.347C83.2426 124.029 82.2829 123.984 81.3718 124.216" fill="url(#paint28_linear)"/>
<path d="M70.871 121.267C70.2159 120.985 69.5041 120.859 68.7922 120.9C68.6993 120.903 68.608 120.925 68.5245 120.966C68.441 121.007 68.3672 121.065 68.3079 121.137C68.2368 121.255 68.2129 121.396 68.2409 121.532C68.3433 122.211 69.0953 122.586 69.7725 122.669C70.4497 122.752 71.1663 122.669 71.7923 122.929C72.1861 123.099 72.6782 123.403 73.0208 123.127C73.198 122.985 73.2491 122.732 73.3633 122.546C73.4423 122.45 73.5401 122.371 73.6507 122.313C72.7334 121.97 71.816 121.615 70.871 121.267Z" fill="url(#paint29_linear)"/>
<path d="M111.586 116.925C111.01 117.042 110.476 117.315 110.043 117.714C109.649 118.153 109.567 118.926 110.043 119.293C110.519 119.661 111.169 119.439 111.705 119.207L114.413 118.022C114.552 117.971 114.679 117.893 114.787 117.793C114.883 117.67 114.935 117.519 114.935 117.363C114.935 117.207 114.883 117.056 114.787 116.933C114.581 116.695 114.306 116.528 114 116.455C113.236 116.226 112.419 116.242 111.665 116.502" fill="url(#paint30_linear)"/>
<path d="M136.309 89.9576C136.314 90.6205 136.118 91.2693 135.748 91.8184C135.377 92.3675 134.849 92.7909 134.234 93.0329C129.328 94.9555 114.973 99.3493 86.3485 99.3493C49.7318 99.3493 37.5735 92.1407 37.5735 92.1407C35.9356 91.2209 36.471 87.1073 37.3569 83.3767C38.1719 79.9421 39.2901 76.8274 39.2901 76.8274C39.2901 76.8274 54.8148 56.5161 91.148 60.0967C127.481 63.6774 133.911 77.1077 135.836 79.9224C136.184 80.5643 136.384 81.2769 136.419 82.0068C136.702 84.5808 136.301 88.3983 136.309 89.9576Z" fill="url(#paint31_linear)"/>
<path opacity="0.36" d="M64.4493 62.7378C63.9769 62.9628 63.4296 63.3024 63.4453 63.8274C63.4443 63.8667 63.4511 63.9057 63.4653 63.9423C63.4795 63.9789 63.5008 64.0123 63.528 64.0406C63.5847 64.0803 63.6518 64.1022 63.7209 64.1038C65.036 64.2301 66.3511 63.9458 67.6582 63.7958C67.7143 63.7817 67.7737 63.7902 67.8236 63.8195C67.8866 63.8748 67.8708 63.9774 67.8866 64.0564C67.9417 64.3051 68.2803 64.3169 68.5362 64.2735C69.934 64.0209 71.3711 63.7524 72.5759 62.9944C72.8523 62.7925 73.1492 62.6205 73.4618 62.4812C74.0602 62.2641 74.7256 62.3944 75.3595 62.3075C75.7639 62.247 76.15 62.0979 76.4903 61.8706C76.8306 61.6434 77.1167 61.3437 77.3282 60.9929C77.3692 60.9367 77.3984 60.8727 77.414 60.8049C77.4295 60.737 77.4312 60.6667 77.4187 60.5981C77.3841 60.4975 77.3122 60.4141 77.2179 60.3652C76.8253 60.1713 76.3821 60.105 75.9501 60.1757C73.3515 60.3376 67.7094 61.2298 67.5952 61.4074C67.481 61.5851 66.7054 61.7509 66.4967 61.8377C65.8116 62.1259 65.1266 62.426 64.4493 62.7378Z" fill="url(#paint32_linear)"/>
<path opacity="0.36" d="M79.8835 62.4417C81.5465 62.7359 83.2443 62.7758 84.9192 62.5602C85.2575 62.4953 85.6076 62.5395 85.9193 62.6865C86.3839 62.9786 86.4154 63.6261 86.5138 64.1669C86.8564 65.9987 88.5337 67.3251 90.3133 67.866C92.093 68.4068 93.9868 68.312 95.8452 68.3239C99.089 68.344 102.322 68.6946 105.495 69.3701C111.008 70.5544 116.52 72.7099 122.107 71.8492C122.292 71.8355 122.47 71.7758 122.627 71.6755C123.02 71.3558 122.831 70.7044 122.536 70.282C121.252 68.4305 118.992 67.5817 116.855 66.8593C110.248 64.6209 103.547 62.5917 96.6917 61.2653C93.2616 60.5862 89.7927 60.1208 86.3052 59.8717C83.3837 59.6743 78.7338 58.9677 76.0171 60.1125C76.7061 61.4153 78.4975 62.1377 79.8835 62.4417Z" fill="url(#paint33_linear)"/>
<path d="M100.241 64.1038C100.34 63.6303 99.673 63.0876 98.7498 62.8917C97.8265 62.6957 96.997 62.9208 96.897 63.3943C96.7971 63.8678 97.4645 64.4105 98.3878 64.6065C99.3111 64.8024 100.141 64.5773 100.241 64.1038Z" stroke="black" stroke-width="0.5" stroke-miterlimit="10"/>
<path d="M110.514 66.2853C110.594 65.9078 110.06 65.4747 109.322 65.3181C108.584 65.1614 107.921 65.3405 107.841 65.718C107.761 66.0956 108.295 66.5286 109.033 66.6853C109.771 66.8419 110.434 66.6629 110.514 66.2853Z" stroke="black" stroke-width="0.4" stroke-miterlimit="10"/>
<path d="M78.2023 63.1168C79.146 63.1168 79.911 62.7244 79.911 62.2404C79.911 61.7564 79.146 61.364 78.2023 61.364C77.2585 61.364 76.4935 61.7564 76.4935 62.2404C76.4935 62.7244 77.2585 63.1168 78.2023 63.1168Z" fill="white"/>
<path d="M86.5178 68.091C87.4615 68.091 88.2266 67.6986 88.2266 67.2146C88.2266 66.7306 87.4615 66.3382 86.5178 66.3382C85.5741 66.3382 84.809 66.7306 84.809 67.2146C84.809 67.6986 85.5741 68.091 86.5178 68.091Z" fill="white"/>
<path d="M113.421 71.1939C114.365 71.1939 115.13 70.8015 115.13 70.3175C115.13 69.8335 114.365 69.4411 113.421 69.4411C112.477 69.4411 111.712 69.8335 111.712 70.3175C111.712 70.8015 112.477 71.1939 113.421 71.1939Z" fill="white"/>
<path d="M75.5138 66.2361C76.2723 66.0923 76.8279 65.6613 76.7547 65.2736C76.6816 64.8858 76.0074 64.6881 75.2489 64.8319C74.4904 64.9758 73.9348 65.4067 74.008 65.7945C74.0811 66.1822 74.7553 66.38 75.5138 66.2361Z" fill="white"/>
<path d="M67.2725 69.3052C68.031 69.1614 68.5866 68.7304 68.5135 68.3427C68.4403 67.9549 67.7661 67.7572 67.0076 67.901C66.2491 68.0448 65.6935 68.4758 65.7667 68.8636C65.8398 69.2513 66.514 69.4491 67.2725 69.3052Z" fill="white"/>
<path d="M70.0898 63.6432C70.9963 63.3798 71.6222 62.7894 71.4878 62.3245C71.3534 61.8596 70.5097 61.6963 69.6033 61.9596C68.6968 62.223 68.0709 62.8134 68.2053 63.2783C68.3396 63.7432 69.1834 63.9065 70.0898 63.6432Z" fill="white"/>
<path d="M103.477 67.5008C103.55 67.1531 103.061 66.7549 102.385 66.6113C101.708 66.4678 101.1 66.6333 101.027 66.9809C100.953 67.3286 101.442 67.7269 102.119 67.8704C102.795 68.014 103.403 67.8485 103.477 67.5008Z" fill="white"/>
<path d="M90.8292 62.2361C90.8582 61.752 90.1166 61.3136 89.1729 61.2569C88.2291 61.2001 87.4406 61.5464 87.4116 62.0305C87.3827 62.5145 88.1242 62.9529 89.068 63.0097C90.0117 63.0664 90.8002 62.7201 90.8292 62.2361Z" fill="white"/>
<path d="M62.0606 66.3832C62.967 66.1198 63.5929 65.5295 63.4586 65.0646C63.3242 64.5997 62.4805 64.4363 61.574 64.6996C60.6676 64.963 60.0417 65.5534 60.176 66.0183C60.3104 66.4832 61.1541 66.6466 62.0606 66.3832Z" fill="white"/>
<path d="M120.532 63.7564L118.382 64.617L116.095 65.5329L111.716 58.9796C111.716 58.9796 109.378 61.6048 100.247 64.1117C91.1165 66.6185 89.2463 59.9428 89.2463 59.9428V41.6331C90.7976 37.6103 95.0971 38.4749 97.7115 39.4303C98.3419 39.6625 98.8962 40.0648 99.313 40.5928C99.7299 41.1209 99.9932 41.7541 100.074 42.4227L101.531 54.416L111.945 52.6474C112.997 52.4681 114.079 52.6515 115.014 53.1677C115.949 53.6838 116.683 54.5023 117.095 55.4897L120.532 63.7564Z" fill="#25233A"/>
<path d="M118.382 64.6169L116.095 65.5328L111.716 58.9795C111.716 58.9795 109.378 61.6048 100.247 64.1116C91.1165 66.6185 89.2463 59.9428 89.2463 59.9428V42.7227C91.2149 40.9501 94.3648 41.6449 96.4476 42.4147C97.0776 42.6477 97.6313 43.0503 98.0481 43.5781C98.4648 44.106 98.7284 44.7389 98.81 45.4071L100.267 57.4004L110.681 55.6318C111.734 55.4529 112.816 55.6369 113.751 56.1538C114.687 56.6707 115.42 57.49 115.831 58.4782L118.382 64.6169Z" fill="url(#paint34_linear)"/>
<path d="M88.2266 59.6862C88.2266 59.6862 87.9195 61.7193 90.3685 60.2902C92.8174 58.8611 101.523 54.4159 101.523 54.4159L100.066 42.4226C100.066 42.4226 99.5502 38.1709 94.5223 38.0801C88.8762 37.9972 88.7187 42.3042 88.7187 42.3042C88.7187 42.3042 89.0455 58.9085 88.2266 59.6862Z" fill="#2D914C"/>
<path d="M88.2266 59.6862C88.2266 59.6862 87.9195 61.7193 90.3685 60.2902C92.8174 58.8611 101.523 54.4159 101.523 54.4159L100.066 42.4226C100.066 42.4226 99.6408 38.0801 94.5223 38.0801C88.8762 38.1077 88.7187 42.3042 88.7187 42.3042C88.7187 42.3042 89.0455 58.9085 88.2266 59.6862Z" fill="url(#paint35_linear)"/>
<path d="M95.4042 39.6276L96.8492 40.4646L96.9476 40.0343L97.4595 40.8356L96.9476 49.4339L99.4281 51.2301L98.1091 39.8724L96.613 39.1973L95.4042 39.6276Z" fill="url(#paint36_linear)"/>
<path d="M96.6799 39.4105L97.2154 39.6276V39.1065L96.798 38.9012L96.6799 39.4105Z" fill="#25233A"/>
<path d="M97.5815 39.0039C97.5815 39.0039 99.0265 42.0634 98.9635 46.7296C98.9345 49.6568 99.0923 52.5828 99.436 55.4897L101.523 54.4159L100.066 42.4226C100.066 42.4226 99.6722 40.4251 98.3887 39.3315L97.5815 39.0039Z" fill="url(#paint37_linear)"/>
<path d="M97.9005 40.6856C97.9005 40.6856 97.6603 45.6045 98.3651 48.2732C99.0698 50.9419 101.515 53.9422 101.515 53.9422L104.019 53.9777V52.8289C104.019 52.8289 100.373 49.276 99.7785 46.7178C99.1683 44.1044 98.4281 40.3027 98.4281 40.3027L97.9005 40.6856Z" fill="#25233A"/>
<path d="M96.987 38.0722L97.5816 39.0039L96.7508 39.1065L96.987 38.0722Z" fill="#2D914C"/>
<path d="M92.0772 38.5657L92.0063 38.5933L92.0772 38.5657Z" fill="url(#paint38_linear)"/>
<path d="M97.5816 39.0039L97.0736 39.0671L96.5736 40.7725L93.66 39.5526C93.1245 40.429 93.2663 40.8554 93.2663 40.8554C93.2663 40.8554 93.5891 57.436 92.7741 58.2255C92.7425 58.4598 92.7681 58.6983 92.8489 58.9203C91.8095 59.473 90.9197 59.9586 90.3566 60.2863C87.9076 61.7154 88.2148 59.6823 88.2148 59.6823C89.0337 58.8927 88.7069 42.3121 88.7069 42.3121C88.7069 42.3121 88.8211 39.7303 91.9945 38.5894L92.0654 38.5617L92.2387 38.5025C92.9778 38.2819 93.7404 38.1494 94.5105 38.1078L94.8491 38.088C94.6603 38.241 94.4839 38.4086 94.3215 38.5894L96.8413 38.6683L96.9752 38.088L97.5816 39.0039Z" fill="url(#paint39_linear)"/>
<path d="M89.6873 43.5754C89.6142 44.2761 89.8021 44.9792 90.2149 45.5493C91.7898 47.8034 96.1208 53.7369 98.1643 53.7369C100.672 53.7369 101.409 53.6817 103.232 52.4815C105.055 51.2814 109.185 45.3479 109.185 45.3479L107.33 43.2359L100.33 48.4864C100.33 48.4864 95.7743 42.9595 95.4357 42.5648C95.4357 42.5648 93.4671 39.6039 91.3607 41.341C90.0377 42.4069 89.77 43.003 89.6873 43.5754Z" fill="#2D914C"/>
<path d="M89.6873 43.5754C89.6142 44.2761 89.8021 44.9791 90.2149 45.5493C91.7898 47.8034 96.1208 53.7369 98.1643 53.7369C100.672 53.7369 101.409 53.6817 103.232 52.4815C105.055 51.2814 109.185 45.3479 109.185 45.3479L108.051 44.057L101.275 50.7366C98.9439 52.6552 96.3807 49.7971 94.7428 47.2547L91.3607 41.3331C90.0377 42.4068 89.77 43.003 89.6873 43.5754Z" fill="url(#paint40_linear)"/>
<path d="M100.255 55.0673C100.255 55.0673 115.528 61.8259 120.874 66.0105L118.906 69.4411C118.906 69.4411 102.613 64.767 95.6956 64.6485C88.7778 64.5301 89.2463 60.7679 89.2463 60.7679L100.255 55.0673Z" fill="#25233A"/>
<path d="M95.0577 57.7597C95.0577 57.7597 108.267 62.2522 119.63 68.1739L118.906 69.4411C118.906 69.4411 102.613 64.767 95.6956 64.6485C88.7778 64.5301 89.2463 60.7679 89.2463 60.7679L95.0577 57.7597Z" fill="url(#paint41_linear)"/>
<path d="M120.532 66.6027L122.926 67.6133L121.729 69.7846L119.268 68.8016L120.532 66.6027Z" fill="url(#paint42_linear)"/>
<path d="M107.33 43.228C107.33 43.228 107.027 41.2146 107.33 40.8317C107.633 40.4488 108.2 40.8317 108.2 40.8317L110.212 39.0078C110.212 39.0078 111.35 38.9289 111.315 39.4618C111.279 39.9948 111.846 39.8053 112.102 40.2514C112.358 40.6975 112.787 41.3528 112.787 41.3528C112.825 41.6688 112.825 41.9882 112.787 42.3042C112.709 42.4582 112.102 43.2556 112.063 43.3701C112.023 43.4846 109.177 45.344 109.177 45.344L107.33 43.228Z" fill="url(#paint43_linear)"/>
<path d="M100.897 34.1916C100.751 34.3692 100.503 34.389 100.279 34.4719C99.4911 34.7798 99.7431 35.6325 99.2194 36.2839C97.9123 37.9143 95.3609 34.7048 95.0105 33.8679C94.6601 33.0309 93.7585 32.8967 93.9002 31.9848C94.0271 31.0492 94.3798 30.1589 94.9278 29.3911C95.4778 28.6147 96.2816 28.056 97.1996 27.812C97.5091 27.7246 97.8357 27.7178 98.1485 27.7922C98.36 27.8565 98.5595 27.9552 98.7391 28.0844C99.6092 28.6765 101.101 29.0871 101.271 30.1609C101.346 30.686 100.629 31.8466 100.688 32.3717C100.739 32.8335 101.216 33.8007 100.897 34.1916Z" fill="url(#paint44_linear)"/>
<path d="M96.0421 33.1849C95.9149 32.8494 95.7355 32.5363 95.5105 32.2572C95.4292 32.1397 95.3116 32.0523 95.1759 32.0085C95.0851 31.9986 94.9935 32.0168 94.9133 32.0606C94.8331 32.1043 94.7681 32.1715 94.727 32.2532C94.6502 32.4224 94.6216 32.6096 94.6443 32.7941C94.6761 33.183 94.8018 33.5583 95.0105 33.8876C94.8073 33.9321 94.6275 34.0501 94.5055 34.219C94.3835 34.3879 94.3278 34.596 94.349 34.8035C94.3687 34.9574 94.3924 35.1982 94.2388 35.1982C94.1965 35.1989 94.1546 35.1892 94.1168 35.1699C94.0791 35.1507 94.0466 35.1224 94.0223 35.0877C93.8242 34.8729 93.6763 34.6167 93.5892 34.3376C93.4474 33.8718 93.4395 33.2954 93.0301 33.0349L93.1127 29.7898C93.1086 29.525 93.131 29.2605 93.1797 29.0003C93.3276 28.441 93.6356 27.9374 94.0656 27.5514C94.7936 26.8911 95.673 26.4213 96.6257 26.1837C97.5784 25.9461 98.5748 25.948 99.5266 26.1895C100.135 26.4027 100.775 26.5135 101.42 26.5171C101.628 26.4792 101.839 26.4647 102.05 26.4737C102.173 26.4948 102.292 26.5361 102.401 26.5961C102.614 26.7123 102.796 26.8786 102.931 27.0807C103.065 27.2828 103.149 27.5147 103.175 27.7565C103.201 27.9983 103.168 28.2428 103.079 28.4691C102.99 28.6953 102.848 28.8965 102.665 29.0555C102.507 29.1937 102.31 29.3121 102.247 29.5095C102.212 29.628 102.228 29.7582 102.184 29.8727C102.116 30.0071 102.001 30.1123 101.861 30.1688C101.438 30.3861 100.956 30.4608 100.487 30.382C100.386 30.3525 100.278 30.3525 100.176 30.382C100.1 30.4189 100.032 30.4698 99.9754 30.532C99.5266 30.9268 98.8336 30.7649 98.2903 30.532C98.0461 30.4215 97.7548 30.2951 97.5225 30.4254C97.433 30.4898 97.3475 30.5597 97.2666 30.6346C97.0343 30.8044 96.9162 30.7373 96.7547 31.0294C96.6368 31.2577 96.5494 31.5006 96.4949 31.7519C96.4319 32.0006 96.3846 32.2532 96.3177 32.498C96.2086 32.7196 96.1165 32.9493 96.0421 33.1849Z" fill="#25233A"/>
<path d="M119.863 64.0287C119.776 64.0603 120.256 65.5328 120.256 65.5328L118.713 64.4946L119.863 64.0287Z" fill="url(#paint45_linear)"/>
<path d="M136.309 89.9576C136.314 90.6205 136.118 91.2693 135.748 91.8184C135.377 92.3675 134.849 92.7909 134.234 93.0329C129.328 94.9555 114.973 99.3493 86.3485 99.3493C49.7318 99.3493 37.5735 92.1407 37.5735 92.1407C35.9356 91.2209 36.471 87.1073 37.3569 83.3767L38.1444 80.4001C38.1444 80.4001 62.339 87.8337 99.4281 85.8954C131.371 84.2255 135.801 82.4569 136.415 81.9989C136.702 84.5808 136.301 88.3982 136.309 89.9576Z" fill="url(#paint46_linear)"/>
<path d="M121.729 69.7846V70.3175L124.973 71.5018L128.844 65.5368C128.543 65.2432 128.172 65.0321 127.767 64.9236C127.361 64.815 126.935 64.8128 126.528 64.917C125.013 65.2209 122.926 67.6212 122.926 67.6212L121.729 69.7846Z" fill="black"/>
<path d="M93.0497 37.2984L96.987 38.088L96.5382 40.0619L91.9985 38.4512L92.341 37.6616C92.3949 37.5251 92.4966 37.4128 92.627 37.346C92.7575 37.2791 92.9078 37.2622 93.0497 37.2984Z" fill="#2D914C"/>
<path d="M93.0497 37.2984L96.987 38.088L96.5382 40.0619L91.9985 38.4512L92.341 37.6616C92.3949 37.5251 92.4966 37.4128 92.627 37.346C92.7575 37.2791 92.9078 37.2622 93.0497 37.2984Z" fill="url(#paint47_linear)"/>
<path d="M97.0894 39.5763L97.8178 40.579C97.8441 40.6161 97.8781 40.647 97.9176 40.6695C97.957 40.692 98.0009 40.7056 98.0461 40.7093H98.1997C98.2465 40.7132 98.2936 40.7066 98.3376 40.6899C98.3815 40.6732 98.4212 40.6468 98.4537 40.6128C98.4861 40.5787 98.5106 40.5378 98.5252 40.493C98.5399 40.4482 98.5443 40.4007 98.5383 40.354L98.4084 39.2921C98.3994 39.2111 98.3596 39.1367 98.2972 39.0845C98.2349 39.0322 98.1548 39.0062 98.0737 39.0118L97.3256 39.0591C97.2671 39.0618 97.2104 39.0806 97.1617 39.1135C97.1131 39.1463 97.0745 39.192 97.0501 39.2454C97.0257 39.2989 97.0164 39.358 97.0234 39.4164C97.0303 39.4748 97.0531 39.5301 97.0894 39.5763Z" fill="#25233A"/>
<path d="M96.7508 39.1065L97.5816 39.0039L96.987 38.0722L96.7508 39.1065Z" fill="url(#paint48_linear)"/>
<path d="M95.7114 33.3625C95.6108 33.31 95.5328 33.2224 95.4922 33.1162C95.4516 33.01 95.4511 32.8926 95.4909 32.7861C95.6247 32.3914 95.0105 32.3519 95.0105 32.6322C95.0105 32.9125 95.3019 33.7336 95.546 33.6389C95.7901 33.5441 95.7114 33.3625 95.7114 33.3625Z" fill="url(#paint49_linear)"/>
</g>
<defs>
<linearGradient id="paint0_linear" x1="98.7155" y1="38.8183" x2="98.017" y2="39.4166" gradientUnits="userSpaceOnUse">
<stop stop-opacity="0"/>
<stop offset="0.68" stop-opacity="0.55"/>
<stop offset="0.88" stop-opacity="0.8"/>
<stop offset="0.97"/>
</linearGradient>
<linearGradient id="paint1_linear" x1="83.3168" y1="125.168" x2="89.1116" y2="225.202" gradientUnits="userSpaceOnUse">
<stop stop-opacity="0"/>
<stop offset="0.8" stop-opacity="0.63"/>
<stop offset="0.88" stop-opacity="0.8"/>
<stop offset="0.97"/>
</linearGradient>
<linearGradient id="paint2_linear" x1="92.6796" y1="127.217" x2="49.0259" y2="232.951" gradientUnits="userSpaceOnUse">
<stop stop-color="#A45326"/>
<stop offset="0.42" stop-color="#EFD4D1"/>
<stop offset="1" stop-color="#F2EAC9"/>
</linearGradient>
<linearGradient id="paint3_linear" x1="21356.3" y1="9047.49" x2="21356.3" y2="7307.82" gradientUnits="userSpaceOnUse">
<stop stop-opacity="0"/>
<stop offset="0.88" stop-opacity="0.8"/>
<stop offset="0.97"/>
</linearGradient>
<linearGradient id="paint4_linear" x1="11656.1" y1="6968.73" x2="11000.7" y2="12834.5" gradientUnits="userSpaceOnUse">
<stop stop-color="#A45326"/>
<stop offset="0.42" stop-color="#EFD4D1"/>
<stop offset="1" stop-color="#F2EAC9"/>
</linearGradient>
<linearGradient id="paint5_linear" x1="11039.1" y1="7311.09" x2="10383.6" y2="13177.3" gradientUnits="userSpaceOnUse">
<stop stop-color="#A45326"/>
<stop offset="0.42" stop-color="#EFD4D1"/>
<stop offset="1" stop-color="#F2EAC9"/>
</linearGradient>
<linearGradient id="paint6_linear" x1="4711.23" y1="4665.06" x2="6804.81" y2="4665.06" gradientUnits="userSpaceOnUse">
<stop stop-opacity="0"/>
<stop offset="0.88" stop-opacity="0.8"/>
<stop offset="0.97"/>
</linearGradient>
<linearGradient id="paint7_linear" x1="3793.39" y1="6578.78" x2="10076.5" y2="6578.78" gradientUnits="userSpaceOnUse">
<stop stop-color="#A45326"/>
<stop offset="0.42" stop-color="#EFD4D1"/>
<stop offset="1" stop-color="#F2EAC9"/>
</linearGradient>
<linearGradient id="paint8_linear" x1="6983.91" y1="4398.2" x2="6537.25" y2="6036.41" gradientUnits="userSpaceOnUse">
<stop stop-color="#A45326"/>
<stop offset="0.42" stop-color="#EFD4D1"/>
<stop offset="1" stop-color="#F2EAC9"/>
</linearGradient>
<linearGradient id="paint9_linear" x1="4858.38" y1="3395.02" x2="4852.79" y2="4107.03" gradientUnits="userSpaceOnUse">
<stop stop-color="#A45326"/>
<stop offset="0.42" stop-color="#EFD4D1"/>
<stop offset="1" stop-color="#F2EAC9"/>
</linearGradient>
<linearGradient id="paint10_linear" x1="2685.45" y1="1911.62" x2="2682.38" y2="2299.99" gradientUnits="userSpaceOnUse">
<stop stop-color="#A45326"/>
<stop offset="0.42" stop-color="#EFD4D1"/>
<stop offset="1" stop-color="#F2EAC9"/>
</linearGradient>
<linearGradient id="paint11_linear" x1="5062.32" y1="3440.08" x2="5133.29" y2="2753.23" gradientUnits="userSpaceOnUse">
<stop stop-opacity="0"/>
<stop offset="0.88" stop-opacity="0.8"/>
<stop offset="0.97"/>
</linearGradient>
<linearGradient id="paint12_linear" x1="19986.6" y1="8018.55" x2="14278.2" y2="14554" gradientUnits="userSpaceOnUse">
<stop stop-color="#A45326"/>
<stop offset="0.42" stop-color="#EFD4D1"/>
<stop offset="1" stop-color="#F2EAC9"/>
</linearGradient>
<linearGradient id="paint13_linear" x1="12509.4" y1="5877.88" x2="21194.3" y2="5877.88" gradientUnits="userSpaceOnUse">
<stop stop-color="#A45326"/>
<stop offset="0.42" stop-color="#EFD4D1"/>
<stop offset="1" stop-color="#F2EAC9"/>
</linearGradient>
<linearGradient id="paint14_linear" x1="16672.5" y1="6502.02" x2="16424.8" y2="4706.4" gradientUnits="userSpaceOnUse">
<stop stop-opacity="0"/>
<stop offset="0.88" stop-opacity="0.8"/>
<stop offset="0.97"/>
</linearGradient>
<linearGradient id="paint15_linear" x1="1779.63" y1="668.634" x2="1574.73" y2="865.111" gradientUnits="userSpaceOnUse">
<stop stop-color="#A45326"/>
<stop offset="0.42" stop-color="#EFD4D1"/>
<stop offset="1" stop-color="#F2EAC9"/>
</linearGradient>
<linearGradient id="paint16_linear" x1="849.318" y1="311.386" x2="868.284" y2="311.386" gradientUnits="userSpaceOnUse">
<stop stop-opacity="0"/>
<stop offset="0.68" stop-opacity="0.55"/>
<stop offset="0.88" stop-opacity="0.8"/>
<stop offset="0.97"/>
</linearGradient>
<linearGradient id="paint17_linear" x1="3710.1" y1="1502.03" x2="3531.64" y2="1631.22" gradientUnits="userSpaceOnUse">
<stop stop-opacity="0"/>
<stop offset="0.68" stop-opacity="0.55"/>
<stop offset="0.88" stop-opacity="0.8"/>
<stop offset="0.97"/>
</linearGradient>
<linearGradient id="paint18_linear" x1="97.4713" y1="35.9483" x2="94.349" y2="36.1132" gradientUnits="userSpaceOnUse">
<stop stop-color="#ECC4D7"/>
<stop offset="0.42" stop-color="#EFD4D1"/>
<stop offset="1" stop-color="#F2EAC9"/>
</linearGradient>
<linearGradient id="paint19_linear" x1="30462" y1="9109.69" x2="60340.1" y2="9109.69" gradientUnits="userSpaceOnUse">
<stop stop-color="#A45326"/>
<stop offset="0.42" stop-color="#EFD4D1"/>
<stop offset="1" stop-color="#F2EAC9"/>
</linearGradient>
<linearGradient id="paint20_linear" x1="84.8326" y1="91.7341" x2="84.607" y2="127.078" gradientUnits="userSpaceOnUse">
<stop stop-opacity="0"/>
<stop offset="0.91" stop-opacity="0.8"/>
<stop offset="1"/>
</linearGradient>
<linearGradient id="paint21_linear" x1="100.897" y1="117.114" x2="75.7367" y2="66.4822" gradientUnits="userSpaceOnUse">
<stop stop-opacity="0"/>
<stop offset="1"/>
</linearGradient>
<linearGradient id="paint22_linear" x1="14034.5" y1="2002.7" x2="14036" y2="1593.24" gradientUnits="userSpaceOnUse">
<stop stop-opacity="0"/>
<stop offset="0.88" stop-opacity="0.8"/>
<stop offset="0.97"/>
</linearGradient>
<linearGradient id="paint23_linear" x1="25057.3" y1="6026.66" x2="25055.3" y2="4555.08" gradientUnits="userSpaceOnUse">
<stop stop-opacity="0"/>
<stop offset="0.88" stop-opacity="0.8"/>
<stop offset="0.97"/>
</linearGradient>
<linearGradient id="paint24_linear" x1="9324.84" y1="2933.3" x2="22826.1" y2="2933.3" gradientUnits="userSpaceOnUse">
<stop stop-opacity="0"/>
<stop offset="0.88" stop-opacity="0.8"/>
<stop offset="0.97"/>
</linearGradient>
<linearGradient id="paint25_linear" x1="556.681" y1="3173.58" x2="702.53" y2="5240.43" gradientUnits="userSpaceOnUse">
<stop stop-opacity="0"/>
<stop offset="0.91" stop-opacity="0.8"/>
<stop offset="1"/>
</linearGradient>
<linearGradient id="paint26_linear" x1="623.411" y1="1638.47" x2="666.9" y2="2672.39" gradientUnits="userSpaceOnUse">
<stop stop-opacity="0"/>
<stop offset="0.91" stop-opacity="0.8"/>
<stop offset="1"/>
</linearGradient>
<linearGradient id="paint27_linear" x1="3162.89" y1="1578.47" x2="3181.93" y2="2597.57" gradientUnits="userSpaceOnUse">
<stop stop-opacity="0"/>
<stop offset="0.91" stop-opacity="0.8"/>
<stop offset="1"/>
</linearGradient>
<linearGradient id="paint28_linear" x1="1233.96" y1="765.012" x2="1239.82" y2="1205.01" gradientUnits="userSpaceOnUse">
<stop stop-opacity="0"/>
<stop offset="0.91" stop-opacity="0.8"/>
<stop offset="1"/>
</linearGradient>
<linearGradient id="paint29_linear" x1="1036.14" y1="773.766" x2="1042.43" y2="1220.61" gradientUnits="userSpaceOnUse">
<stop stop-opacity="0"/>
<stop offset="0.91" stop-opacity="0.8"/>
<stop offset="1"/>
</linearGradient>
<linearGradient id="paint30_linear" x1="1590.9" y1="994.506" x2="1603.03" y2="1602.91" gradientUnits="userSpaceOnUse">
<stop stop-opacity="0"/>
<stop offset="0.91" stop-opacity="0.8"/>
<stop offset="1"/>
</linearGradient>
<linearGradient id="paint31_linear" x1="22450.7" y1="5571.85" x2="22317.6" y2="13392.6" gradientUnits="userSpaceOnUse">
<stop stop-color="#A45326"/>
<stop offset="0.42" stop-color="#EFD4D1"/>
<stop offset="1" stop-color="#F2EAC9"/>
</linearGradient>
<linearGradient id="paint32_linear" x1="2316.5" y1="800.332" x2="2813.28" y2="800.332" gradientUnits="userSpaceOnUse">
<stop stop-opacity="0"/>
<stop offset="0.91" stop-opacity="0.8"/>
<stop offset="1"/>
</linearGradient>
<linearGradient id="paint33_linear" x1="9367.65" y1="3025.87" x2="10359.6" y2="-274.107" gradientUnits="userSpaceOnUse">
<stop stop-opacity="0"/>
<stop offset="0.91" stop-opacity="0.8"/>
<stop offset="1"/>
</linearGradient>
<linearGradient id="paint34_linear" x1="7812.88" y1="3540.33" x2="7578.57" y2="5673.56" gradientUnits="userSpaceOnUse">
<stop stop-opacity="0"/>
<stop offset="0.88" stop-opacity="0.8"/>
<stop offset="0.97"/>
</linearGradient>
<linearGradient id="paint35_linear" x1="3386.87" y1="3339.64" x2="3604.67" y2="3332.3" gradientUnits="userSpaceOnUse">
<stop stop-opacity="0"/>
<stop offset="0.68" stop-opacity="0.55"/>
<stop offset="0.88" stop-opacity="0.8"/>
<stop offset="0.97"/>
</linearGradient>
<linearGradient id="paint36_linear" x1="1070.43" y1="1417.31" x2="1111.56" y2="1417.31" gradientUnits="userSpaceOnUse">
<stop stop-opacity="0"/>
<stop offset="0.68" stop-opacity="0.55"/>
<stop offset="0.88" stop-opacity="0.8"/>
<stop offset="0.97"/>
</linearGradient>
<linearGradient id="paint37_linear" x1="1126.95" y1="2300.04" x2="826.316" y2="2322.71" gradientUnits="userSpaceOnUse">
<stop stop-opacity="0"/>
<stop offset="0.68" stop-opacity="0.55"/>
<stop offset="0.88" stop-opacity="0.8"/>
<stop offset="0.97"/>
</linearGradient>
<linearGradient id="paint38_linear" x1="108.576" y1="41.8444" x2="108.576" y2="41.848" gradientUnits="userSpaceOnUse">
<stop stop-opacity="0"/>
<stop offset="0.88" stop-opacity="0.8"/>
<stop offset="0.97"/>
</linearGradient>
<linearGradient id="paint39_linear" x1="2321.38" y1="3357" x2="2182.28" y2="3357" gradientUnits="userSpaceOnUse">
<stop stop-opacity="0"/>
<stop offset="0.68" stop-opacity="0.55"/>
<stop offset="0.88" stop-opacity="0.8"/>
<stop offset="0.97"/>
</linearGradient>
<linearGradient id="paint40_linear" x1="5117.55" y1="1649.99" x2="4813.42" y2="2108.09" gradientUnits="userSpaceOnUse">
<stop stop-opacity="0"/>
<stop offset="0.68" stop-opacity="0.55"/>
<stop offset="0.88" stop-opacity="0.8"/>
<stop offset="0.97"/>
</linearGradient>
<linearGradient id="paint41_linear" x1="8298.97" y1="2055.28" x2="8186.32" y2="2850.1" gradientUnits="userSpaceOnUse">
<stop stop-opacity="0"/>
<stop offset="0.88" stop-opacity="0.8"/>
<stop offset="0.97"/>
</linearGradient>
<linearGradient id="paint42_linear" x1="1227.26" y1="616.243" x2="1261.24" y2="616.243" gradientUnits="userSpaceOnUse">
<stop stop-color="#ECC4D7"/>
<stop offset="0.42" stop-color="#EFD4D1"/>
<stop offset="1" stop-color="#F2EAC9"/>
</linearGradient>
<linearGradient id="paint43_linear" x1="1637.37" y1="849.038" x2="1717.74" y2="849.038" gradientUnits="userSpaceOnUse">
<stop stop-color="#ECC4D7"/>
<stop offset="0.42" stop-color="#EFD4D1"/>
<stop offset="1" stop-color="#F2EAC9"/>
</linearGradient>
<linearGradient id="paint44_linear" x1="2089.38" y1="413.286" x2="2103.59" y2="543.173" gradientUnits="userSpaceOnUse">
<stop stop-color="#ECC4D7"/>
<stop offset="0.42" stop-color="#EFD4D1"/>
<stop offset="1" stop-color="#F2EAC9"/>
</linearGradient>
<linearGradient id="paint45_linear" x1="584.005" y1="342.333" x2="590.055" y2="342.333" gradientUnits="userSpaceOnUse">
<stop stop-color="#ECC4D7"/>
<stop offset="0.42" stop-color="#EFD4D1"/>
<stop offset="1" stop-color="#F2EAC9"/>
</linearGradient>
<linearGradient id="paint46_linear" x1="21614.3" y1="4061.45" x2="21688.4" y2="6944.54" gradientUnits="userSpaceOnUse">
<stop stop-opacity="0"/>
<stop offset="0.88" stop-opacity="0.8"/>
<stop offset="0.97"/>
</linearGradient>
<linearGradient id="paint47_linear" x1="1296.98" y1="359.028" x2="1289.79" y2="387.08" gradientUnits="userSpaceOnUse">
<stop stop-opacity="0"/>
<stop offset="0.68" stop-opacity="0.55"/>
<stop offset="0.88" stop-opacity="0.8"/>
<stop offset="0.97"/>
</linearGradient>
<linearGradient id="paint48_linear" x1="302.878" y1="140.21" x2="300.646" y2="139.353" gradientUnits="userSpaceOnUse">
<stop stop-opacity="0"/>
<stop offset="0.68" stop-opacity="0.55"/>
<stop offset="0.88" stop-opacity="0.8"/>
<stop offset="0.97"/>
</linearGradient>
<linearGradient id="paint49_linear" x1="268.361" y1="157.035" x2="262.818" y2="158.608" gradientUnits="userSpaceOnUse">
<stop stop-color="#ECC4D7"/>
<stop offset="0.42" stop-color="#EFD4D1"/>
<stop offset="1" stop-color="#F2EAC9"/>
</linearGradient>
<clipPath id="clip0">
<rect width="171" height="172" fill="white"/>
</clipPath>
</defs>
</svg>
