<svg width="214" height="159" viewBox="0 0 214 159" fill="none" xmlns="http://www.w3.org/2000/svg">
<g clip-path="url(#clip0)">
<path opacity="0.19" d="M208.376 92.7722C201.871 104.828 188.958 113.67 175.266 113.586C170.348 113.553 165.4 112.437 160.54 113.262C157.174 113.839 154.01 115.334 150.863 116.736C134.786 123.932 115.376 128.88 100.153 120.016C91.2249 114.816 84.3119 105.16 74.0666 104.061C67.7006 103.379 61.5702 106.251 55.6291 108.643C47.0794 112.083 37.625 114.677 28.7261 112.285C19.3643 109.759 12.4134 102.209 7.77668 93.4923C6.61422 91.3124 5.5884 89.0623 4.70518 86.755C-2.47711 68.0632 -1.97641 45.5186 9.9057 29.4038C18.8762 17.2093 33.0977 10.0173 47.4034 5.13275C80.2432 -6.07641 112.292 4.85905 146.1 2.94735C155.26 2.42942 164.769 1.58305 173.327 4.88432C180.139 7.50765 185.735 12.548 190.704 17.8957C200.028 27.9301 207.854 39.6571 211.641 52.8243C213.012 57.5809 213.794 62.4883 213.967 67.4358C214.262 76.2364 212.541 85.0496 208.376 92.7722Z" fill="#2D914C"/>
<path opacity="0.19" d="M208.375 92.7725C201.87 104.828 188.957 113.671 175.265 113.586C170.347 113.553 165.399 112.437 160.539 113.262C157.173 113.839 154.009 115.334 150.862 116.736C134.785 123.932 115.375 128.88 100.152 120.016C91.2239 114.816 84.3109 105.161 74.0655 104.062C67.6995 103.379 61.5691 106.251 55.6281 108.643C47.0783 112.083 37.624 114.677 28.725 112.285C19.3632 109.759 12.4124 102.209 7.77563 93.4925C11.3226 91.8672 15.5638 92.7262 19.4894 93.282C31.38 94.9541 43.5012 93.3528 54.5509 88.6501C66.2858 83.6224 78.5339 75.2808 91.8971 78.321C104.941 81.2686 117.319 91.3324 131.271 89.2691C136.468 88.5027 141.176 85.7825 145.362 82.616C154.733 75.525 162.129 66.0212 171.803 59.3513C181.476 52.6814 195.024 49.3506 204.773 55.9111C208.922 58.7028 211.8 62.88 213.962 67.4529C214.261 76.2366 212.54 85.0499 208.375 92.7725Z" fill="#2D914C"/>
<path d="M158.679 46.8873L169.08 63.3095L161.191 68.1393L150.857 70.3921L158.679 46.8873Z" fill="#2D914C"/>
<path d="M158.679 46.8873L169.08 63.3095L161.191 68.1393L150.857 70.3921L158.679 46.8873Z" fill="url(#paint0_linear)"/>
<path d="M86.7681 116.193C86.8817 116.214 91.4595 146.864 91.4595 146.864C91.4595 146.864 94.7876 147.664 94.6698 146.864C94.552 146.064 95.1284 136.262 95.8101 134.325C96.4917 132.388 94.5478 116.193 94.5478 116.193H86.7681Z" fill="url(#paint1_linear)"/>
<path d="M101.621 115.987C101.621 115.987 102.306 131.474 103.67 135.356C105.033 139.239 106.745 147.227 106.745 147.227H110.953L110.179 115.662C110.179 115.662 105.382 112.483 101.621 115.987Z" fill="url(#paint2_linear)"/>
<path d="M90.5884 144.801C91.6319 144.666 92.6922 145.113 93.7314 144.999C94.1655 144.897 94.6112 144.853 95.0568 144.868C95.1266 144.873 95.1924 144.903 95.2419 144.953C95.2806 145.013 95.297 145.084 95.2882 145.155V146.544C95.2882 147.214 95.2882 147.947 94.8675 148.473C94.4467 148.999 93.6641 149.189 92.9614 149.248C92.7345 149.283 92.5025 149.264 92.284 149.193C92.0708 149.089 91.8838 148.938 91.737 148.751C91.27 148.241 90.9166 147.947 90.8535 147.26C90.845 147.041 90.622 144.801 90.5884 144.801Z" fill="#2D914C"/>
<path d="M110.621 145.412C110.692 145.395 110.767 145.396 110.838 145.416C110.909 145.435 110.974 145.472 111.027 145.523C111.08 145.574 111.12 145.638 111.142 145.708C111.164 145.778 111.169 145.853 111.155 145.925C111.206 146.922 111.141 147.921 110.961 148.902C110.939 149.166 110.868 149.423 110.751 149.66C110.448 150.191 109.771 150.351 109.165 150.385C108.243 150.444 107.2 150.271 106.64 149.543C106.366 149.091 106.198 148.582 106.148 148.056C106.051 147.509 105.858 146.982 105.769 146.439C105.689 145.972 105.811 145.744 106.287 145.677C106.956 145.576 107.654 145.563 108.332 145.521C109.102 145.462 109.863 145.429 110.621 145.412Z" fill="#2D914C"/>
<path d="M83.1454 156.587C83.1008 156.848 83.127 157.115 83.2212 157.362C83.333 157.576 83.488 157.764 83.6763 157.915C83.8646 158.066 84.0821 158.176 84.3151 158.238C85.8467 158.764 90.5339 155.568 92.0149 154.916C93.3177 154.367 94.5646 153.694 95.7386 152.907C95.8564 152.823 95.5493 148.696 95.4651 148.069C95.4664 148.021 95.458 147.974 95.4407 147.93C95.4234 147.886 95.3973 147.846 95.3641 147.812C95.3029 147.775 95.2334 147.755 95.1622 147.753C94.4553 147.694 93.7442 147.753 93.0332 147.753C92.6693 147.759 92.3055 147.743 91.9434 147.707C91.6191 147.614 91.2865 147.554 90.9504 147.526C90.4119 147.585 89.3768 149.277 88.9098 149.538C83.5704 152.532 83.2885 155.585 83.1454 156.587Z" fill="#25233A"/>
<path d="M105.723 151.757C105.621 152.157 105.586 152.572 105.622 152.983C105.744 153.619 106.295 154.073 106.813 154.465C107.759 155.177 112.918 160.335 115.918 158.676C116.107 158.547 116.253 158.365 116.339 158.154C116.448 157.912 116.512 157.652 116.528 157.387C116.634 156.234 116.383 155.075 115.808 154.069C115.295 153.185 112.215 150.486 111.904 149.513C111.715 148.924 111.656 148.204 111.13 147.871C111.059 147.819 110.973 147.791 110.886 147.791C110.753 147.808 110.628 147.865 110.528 147.955C109.611 148.57 108.424 148.41 107.372 148.258C107.065 148.212 106.413 147.837 106.161 148.006C105.786 148.267 105.832 149.311 105.816 149.69C105.825 150.38 105.794 151.071 105.723 151.757V151.757Z" fill="#25233A"/>
<path d="M112.489 44.1461C112.489 44.1461 126.769 35.2444 126.996 35.0507C127.224 34.857 141.655 23.1173 143.301 21.4709C144.946 19.8245 146.2 17.0243 148.501 17.9338C150.803 18.8434 150.853 22.4352 147.921 25.707C147.571 26.0986 145.287 26.048 145.202 26.1533C145.005 26.3891 144.58 26.8481 143.305 28.2587C142.03 29.6693 134.225 38.1415 129.689 40.3142C125.153 42.487 116.368 51.8476 116.368 51.8476L112.489 44.1461Z" fill="url(#paint3_linear)"/>
<path d="M82.0599 45.3083C81.4835 45.982 68.7178 38.79 68.7178 38.79L53.6506 23.4584C53.6506 23.4584 51.0587 21.1972 49.22 24.3006C47.3813 27.4039 52.0012 30.4315 52.0012 30.4315L55.018 30.92C55.018 30.92 62.3307 43.0892 64.1358 43.6997C65.9408 44.3103 79.1778 55.0689 79.304 53.6625C79.4302 52.2561 82.0599 45.3083 82.0599 45.3083Z" fill="url(#paint4_linear)"/>
<path d="M88.329 31.5137C87.9335 35.5224 88.6488 39.8384 91.2743 42.8829C91.8928 43.6071 92.646 44.323 92.7554 45.2704C92.7699 45.7381 92.7403 46.2062 92.667 46.6684C92.6331 46.8998 92.6478 47.1358 92.7101 47.3613C92.7724 47.5868 92.881 47.7968 93.0289 47.9779C93.1085 48.061 93.2055 48.1253 93.313 48.1663C93.4204 48.2073 93.5356 48.224 93.6503 48.2151C93.765 48.2063 93.8762 48.1721 93.9761 48.1151C94.076 48.058 94.162 47.9796 94.228 47.8853L95.2967 50.1465C95.3724 50.3651 95.5209 50.551 95.7175 50.6728C95.9022 50.7319 96.1007 50.7319 96.2855 50.6728C97.48 50.4528 98.6135 49.9789 99.6095 49.2833C99.7316 49.1797 99.8754 49.1048 100.03 49.0643C100.724 48.9548 100.872 50.1381 101.541 50.3949C102.046 50.5928 102.559 50.1549 102.925 49.7549L104.381 48.1758C104.629 48.7034 105.059 49.1236 105.593 49.3591C105.754 48.9112 105.973 48.4865 106.245 48.0958C106.187 48.8776 106.269 49.6635 106.489 50.416L107.225 49.5022C107.292 49.4138 107.381 49.317 107.494 49.3254C107.57 49.3395 107.64 49.3779 107.692 49.4349L108.896 50.5002C108.273 48.6601 108.551 46.6473 108.988 44.7609C109.426 42.8744 110.019 40.9711 110.015 39.051C110.015 36.5624 109.022 34.196 108.054 31.8927C107.66 30.8251 107.122 29.8164 106.455 28.8946C105.471 27.6313 104.065 26.8313 102.668 26.0944C101.476 25.395 100.17 24.9105 98.81 24.6627C97.7454 24.5609 96.6721 24.5963 95.6165 24.768C94.4945 24.9027 93.3655 25.0431 92.2294 25.1891C91.2533 25.328 90.8157 25.3827 90.193 26.1491C88.9686 27.6903 88.5142 29.6357 88.329 31.5137Z" fill="#25233A"/>
<path d="M106.392 37.0214C106.457 37.3689 106.402 37.728 106.236 38.0404C106.071 38.3503 105.883 38.6473 105.673 38.9289C105.508 39.1971 105.321 39.4507 105.113 39.6868C104.902 39.9257 104.609 40.0761 104.293 40.1079C103.106 40.1458 103.569 38.1583 103.964 37.5351C104.398 36.8066 106.035 35.5602 106.392 37.0214Z" fill="url(#paint5_linear)"/>
<path d="M104.751 37.8467C104.845 37.7073 104.925 37.5592 104.991 37.4046C105.057 37.2475 105.17 37.115 105.315 37.0256C105.387 36.9826 105.471 36.9651 105.554 36.9758C105.638 36.9865 105.715 37.0248 105.774 37.0845C105.908 37.253 105.82 37.5056 105.715 37.6825C105.471 38.1036 105.479 38.7857 105.096 39.0973C104.902 39.2287 104.693 39.3362 104.473 39.4173C104.197 39.4855 103.908 39.4855 103.632 39.4173C103.518 39.3331 103.775 38.7647 103.762 38.6215C103.75 38.4783 103.762 38.2678 103.809 38.2004C103.855 38.133 104.057 38.2004 104.141 38.2004C104.261 38.1865 104.378 38.1479 104.483 38.0871C104.588 38.0262 104.679 37.9444 104.751 37.8467V37.8467Z" fill="url(#paint6_linear)"/>
<path d="M31.2115 50.3191L20.1919 63.6379L36.5803 78.2115L41.238 74.0007L42.799 51.6287C42.8579 51.0055 31.2115 50.3191 31.2115 50.3191Z" fill="#2D914C"/>
<path d="M31.2115 50.3191L20.1919 63.6379L36.5803 78.2115L41.238 74.0007L42.799 51.6287C42.8579 51.0055 31.2115 50.3191 31.2115 50.3191Z" fill="url(#paint7_linear)"/>
<path d="M116.722 51.1402C116.675 51.4067 116.553 51.654 116.368 51.8518C115.686 52.7949 114.935 53.6858 114.121 54.5173C112.859 55.7426 111.307 56.7279 110.469 58.2733C109.274 60.484 110.196 80.8769 110.284 84.5108C110.309 85.5509 94.1818 86.1952 87.1132 85.4246C87.2057 81.6896 89.3389 75.1881 88.5732 71.5289C87.9547 68.5814 87.4876 70.2404 85.8888 65.4359C85.2324 63.4737 85.7205 61.1072 86.0697 59.0649C86.3011 57.688 80.1118 55.1994 79.304 53.6751C79.3526 52.6832 79.485 51.6972 79.6995 50.7276V50.7276C80.0647 49.0665 80.6639 47.4658 81.4793 45.9736C81.5982 45.6954 81.7993 45.4603 82.0557 45.2998C82.3649 45.1854 82.7028 45.1736 83.0192 45.2661C85.455 45.7065 87.8352 46.4125 90.1174 47.3715C92.2548 48.2642 94.4764 47.8811 96.7274 47.5779C102.32 46.8243 107.762 45.2018 112.855 42.7691C114.078 45.3237 115.301 47.8768 116.524 50.4286C116.652 50.6438 116.721 50.8896 116.722 51.1402Z" fill="#2D914C"/>
<path d="M116.722 51.1402C116.675 51.4067 116.552 51.654 116.368 51.8518C115.686 52.7949 114.935 53.6858 114.121 54.5173C112.859 55.7426 111.306 56.7279 110.469 58.2733C109.274 60.484 110.196 80.8769 110.284 84.5108C110.305 85.412 98.2126 86.0141 90.3782 85.6604L103.514 84.654C103.514 84.654 109.085 65.0906 107.688 59.8776C106.426 55.1657 111.896 49.6917 115.295 47.881L116.528 50.4538C116.651 50.662 116.717 50.8985 116.722 51.1402V51.1402Z" fill="url(#paint8_linear)"/>
<path d="M96.6809 44.6008C96.6347 43.9945 96.5463 43.3376 96.8492 42.8155C97.1897 42.3618 97.6657 42.0284 98.2083 41.8638C99.2097 41.4427 100.442 41.0427 101.309 41.6954C101.778 42.1148 102.085 42.6855 102.176 43.3081C102.435 44.6105 102.51 45.943 102.399 47.2663C102.332 48.4285 102.176 49.6622 101.427 50.5507C100.919 51.0786 100.317 51.507 99.6515 51.814C98.751 52.294 97.5729 52.753 96.7903 52.0961C94.4509 50.1633 96.8577 47.0557 96.6809 44.6008Z" fill="url(#paint9_linear)"/>
<path d="M87.1129 85.4246L81.8367 117.262C81.8367 117.262 87.2392 118.256 99.7314 116.795C106.716 115.982 111.769 116.222 114.879 116.593C115.282 116.641 115.691 116.59 116.07 116.445C116.449 116.299 116.787 116.064 117.055 115.758C117.322 115.453 117.512 115.086 117.606 114.691C117.7 114.296 117.697 113.883 117.597 113.49L110.297 84.5108C110.297 84.5108 88.9011 82.4223 87.1129 85.4246Z" fill="#2D914C"/>
<path d="M114.866 116.593C113.583 116.437 111.967 116.311 110.019 116.269C106.582 116.207 103.144 116.383 99.7314 116.795C87.2392 118.256 81.8367 117.262 81.8367 117.262L87.1129 85.4246C88.2448 83.5213 97.2489 83.6645 103.691 84.0224H103.771C107.09 84.2077 109.712 84.4435 110.2 84.4982H110.284V84.5235L110.397 84.9782L117.576 113.477C117.678 113.871 117.683 114.284 117.591 114.68C117.498 115.076 117.31 115.444 117.043 115.751C116.776 116.058 116.438 116.295 116.059 116.442C115.679 116.588 115.27 116.64 114.866 116.593Z" fill="url(#paint10_linear)"/>
<path d="M48.9463 26.8228L40.0852 45.1651H40.8888L49.2198 27.3028C49.2198 27.3028 49.3797 26.8228 48.9463 26.8228Z" fill="#2D914C"/>
<path d="M49.22 45.9525L52.0012 30.4525L52.6449 30.5578L49.91 46.5883C49.91 46.5883 49.2663 47.1442 49.22 45.9525Z" fill="#2D914C"/>
<path d="M31.4009 44.2682C31.4009 44.2682 46.9688 42.0617 54.7527 49.4349L56.7429 51.5908L50.1497 68.8551C50.1497 68.8551 46.5059 71.4237 42.9969 70.6994C39.4878 69.9752 32.9492 68.2698 32.9492 68.2698C32.9492 68.2698 30.8455 67.5961 30.8455 64.3832C30.8455 61.1704 31.4009 44.2682 31.4009 44.2682Z" fill="#2D914C"/>
<path d="M31.4009 44.2682C31.4009 44.2682 46.9688 42.0617 54.7527 49.4349L56.7429 51.5908L50.1497 68.8551C50.1497 68.8551 46.5059 71.4237 42.9969 70.6994C39.4878 69.9752 32.9492 68.2698 32.9492 68.2698C32.9492 68.2698 30.8455 67.5961 30.8455 64.3832C30.8455 61.1704 31.4009 44.2682 31.4009 44.2682Z" fill="url(#paint11_linear)"/>
<path d="M145.202 26.1533L141.803 49.1822H142.299L145.712 26.1533H145.202Z" fill="#2D914C"/>
<path d="M147.92 25.707L151.863 44.744L152.599 44.6135L148.308 25.2396L147.92 25.707Z" fill="#2D914C"/>
<path d="M138.756 50.9465C138.756 50.9465 148.434 42.706 156.596 44.744H159.239C159.239 44.744 157.636 60.3703 158.17 64.2527C158.704 68.135 146.616 72.2069 145.707 71.9921C144.798 71.7774 141.378 72.2069 140.948 67.175C140.519 62.143 138.756 50.9465 138.756 50.9465Z" fill="#2D914C"/>
<path d="M138.756 50.9465C138.756 50.9465 148.434 42.706 156.596 44.744H159.239C159.239 44.744 157.636 60.3703 158.17 64.2527C158.704 68.135 146.616 72.2069 145.707 71.9921C144.798 71.7774 141.378 72.2069 140.948 67.175C140.519 62.143 138.756 50.9465 138.756 50.9465Z" fill="url(#paint12_linear)"/>
<path d="M49.2198 27.3029L47.6545 49.1991H48.4371L49.6994 27.3029C49.6994 27.3029 49.3628 26.726 49.2198 27.3029Z" fill="#2D914C"/>
<path d="M50.4275 29.1177L55.0221 48.7864L56.0109 48.5085L51.0081 29.6735L50.4275 29.1177Z" fill="#2D914C"/>
<path d="M42.98 49.0601L48.4414 49.1822L59.663 47.8979L65.4273 70.0678L49.7163 78.1989L41.053 76.6914L42.98 49.0601Z" fill="#2D914C"/>
<path d="M49.7163 78.1989L48.4414 49.1822L42.98 49.0601L41.053 76.6914L49.7163 78.1989Z" fill="url(#paint13_linear)"/>
<path d="M143.755 53.7004L146.461 54.1846L151.177 55.2542L160.846 50.6476L152.599 49.5486L143.755 53.7004Z" fill="#2D914C"/>
<path d="M143.755 53.7004L146.461 54.1846L151.177 55.2542L160.846 50.6476L152.599 49.5486L143.755 53.7004Z" fill="url(#paint14_linear)"/>
<path d="M160.846 50.6475L151.177 55.2541L143.755 53.7004L144.693 74.4554L151.177 76.6914L161.25 71.2426L160.846 50.6475Z" fill="#2D914C"/>
<path d="M92.8101 41.927C94.0092 44.1714 96.5968 45.8894 99.0667 45.2199C100.905 44.7188 102.193 43.0471 102.98 41.3122C103.656 39.7088 104.158 38.0374 104.478 36.3266C104.835 34.6886 105.151 32.9959 104.839 31.3495C104.484 29.7555 103.57 28.3413 102.264 27.3622C100.958 26.3831 99.3446 25.9036 97.7161 26.0102C90.4034 26.7176 90.1719 36.9751 92.8101 41.927Z" fill="url(#paint15_linear)"/>
<path d="M96.3907 20.9361C99.3612 20.3045 102.702 20.8393 104.966 22.8478C107.229 24.8564 108.277 28.1787 110.705 30.0988C111.487 30.7178 112.518 31.1852 113.473 30.8904C113.208 31.451 112.792 31.9265 112.272 32.2635C111.752 32.6004 111.148 32.7855 110.528 32.7979C110.935 33.2144 111.451 33.5064 112.018 33.6401C111.704 34.0451 111.306 34.3769 110.851 34.6125C110.396 34.8481 109.895 34.9818 109.384 35.0044C109.639 35.2004 109.813 35.4838 109.872 35.8003C108.849 36.3266 107.625 36.2761 106.506 36.0361C105.56 35.8295 104.666 35.4321 103.879 34.8681C103.092 34.3041 102.428 33.5854 101.928 32.7558C99.5295 28.5156 95.3304 25.4122 91.9812 30.7262C90.9377 30.0314 89.8269 29.2314 89.6544 27.9934C89.1664 24.3216 93.3108 21.5888 96.3907 20.9361Z" fill="#25233A"/>
<path d="M145.711 26.1533V54.1846H146.46L146.086 26.0649L145.711 26.1533Z" fill="#2D914C"/>
<path d="M147.007 25.9807L154.64 50.9465H155.347L147.542 25.888L147.007 25.9807Z" fill="#2D914C"/>
<path d="M151.177 55.2542V76.6914L147.007 73.8238L146.46 54.1846L151.177 55.2542Z" fill="url(#paint16_linear)"/>
<path d="M144.693 74.4554L147.008 73.8238L146.461 54.1846L143.755 53.7004L144.693 74.4554Z" fill="url(#paint17_linear)"/>
<path d="M160.846 50.6475L151.177 55.2541V76.6914L155.347 74.4386L160.846 50.6475Z" fill="url(#paint18_linear)"/>
<path d="M86.0697 59.0692C86.3011 57.6923 80.1118 55.2037 79.304 53.6794C79.3526 52.6875 79.485 51.7014 79.6995 50.7318V50.7318C79.6995 50.7318 86.238 53.5909 86.5956 55.25C86.9533 56.9091 86.0697 59.0692 86.0697 59.0692Z" fill="url(#paint19_linear)"/>
<path d="M114.866 116.593C113.583 116.437 111.967 116.311 110.019 116.269L104.97 98.4065C104.97 98.4065 103.32 85.4077 103.708 84.0224H103.787L110.217 84.4982H110.301V84.5235L110.414 84.9782L117.592 113.477C117.696 113.872 117.701 114.287 117.607 114.685C117.514 115.083 117.324 115.451 117.055 115.759C116.786 116.066 116.446 116.303 116.064 116.448C115.683 116.594 115.271 116.643 114.866 116.593V116.593Z" fill="url(#paint20_linear)"/>
</g>
<defs>
<linearGradient id="paint0_linear" x1="165.992" y1="50.8708" x2="155.081" y2="72.6802" gradientUnits="userSpaceOnUse">
<stop stop-opacity="0"/>
<stop offset="0.88" stop-opacity="0.8"/>
<stop offset="0.97"/>
</linearGradient>
<linearGradient id="paint1_linear" x1="86.7681" y1="131.706" x2="95.9573" y2="131.706" gradientUnits="userSpaceOnUse">
<stop stop-color="#ECC4D7"/>
<stop offset="0.42" stop-color="#EFD4D1"/>
<stop offset="1" stop-color="#F2EAC9"/>
</linearGradient>
<linearGradient id="paint2_linear" x1="2375.54" y1="12362.6" x2="2582.71" y2="12362.6" gradientUnits="userSpaceOnUse">
<stop stop-color="#ECC4D7"/>
<stop offset="0.42" stop-color="#EFD4D1"/>
<stop offset="1" stop-color="#F2EAC9"/>
</linearGradient>
<linearGradient id="paint3_linear" x1="10269.5" y1="4944.63" x2="13645.8" y2="4944.63" gradientUnits="userSpaceOnUse">
<stop stop-color="#ECC4D7"/>
<stop offset="0.42" stop-color="#EFD4D1"/>
<stop offset="1" stop-color="#F2EAC9"/>
</linearGradient>
<linearGradient id="paint4_linear" x1="3978.25" y1="4774.98" x2="6609.09" y2="4774.98" gradientUnits="userSpaceOnUse">
<stop stop-color="#ECC4D7"/>
<stop offset="0.42" stop-color="#EFD4D1"/>
<stop offset="1" stop-color="#F2EAC9"/>
</linearGradient>
<linearGradient id="paint5_linear" x1="819.296" y1="611.033" x2="839.111" y2="611.033" gradientUnits="userSpaceOnUse">
<stop stop-color="#ECC4D7"/>
<stop offset="0.42" stop-color="#EFD4D1"/>
<stop offset="1" stop-color="#F2EAC9"/>
</linearGradient>
<linearGradient id="paint6_linear" x1="663.862" y1="417.147" x2="696.76" y2="429.761" gradientUnits="userSpaceOnUse">
<stop stop-color="#ECC4D7"/>
<stop offset="0.42" stop-color="#EFD4D1"/>
<stop offset="1" stop-color="#F2EAC9"/>
</linearGradient>
<linearGradient id="paint7_linear" x1="1163.9" y1="6259.72" x2="2464.05" y2="5992.71" gradientUnits="userSpaceOnUse">
<stop stop-opacity="0"/>
<stop offset="0.88" stop-opacity="0.8"/>
<stop offset="0.97"/>
</linearGradient>
<linearGradient id="paint8_linear" x1="5579.3" y1="7687.57" x2="8844.77" y2="8803.84" gradientUnits="userSpaceOnUse">
<stop stop-opacity="0"/>
<stop offset="0.88" stop-opacity="0.8"/>
<stop offset="0.97"/>
</linearGradient>
<linearGradient id="paint9_linear" x1="1679.23" y1="1949.28" x2="1819.94" y2="2054.55" gradientUnits="userSpaceOnUse">
<stop stop-color="#ECC4D7"/>
<stop offset="0.42" stop-color="#EFD4D1"/>
<stop offset="1" stop-color="#F2EAC9"/>
</linearGradient>
<linearGradient id="paint10_linear" x1="3892.37" y1="10519.5" x2="10384.2" y2="10092.1" gradientUnits="userSpaceOnUse">
<stop stop-opacity="0"/>
<stop offset="0.88" stop-opacity="0.8"/>
<stop offset="0.97"/>
</linearGradient>
<linearGradient id="paint11_linear" x1="1968.75" y1="5015.04" x2="3231.32" y2="5623.49" gradientUnits="userSpaceOnUse">
<stop stop-opacity="0"/>
<stop offset="0.88" stop-opacity="0.8"/>
<stop offset="0.97"/>
</linearGradient>
<linearGradient id="paint12_linear" x1="7087.8" y1="4885.32" x2="8007.19" y2="5642.06" gradientUnits="userSpaceOnUse">
<stop stop-opacity="0"/>
<stop offset="0.88" stop-opacity="0.8"/>
<stop offset="0.97"/>
</linearGradient>
<linearGradient id="paint13_linear" x1="690.977" y1="3940.84" x2="1470.94" y2="4058.57" gradientUnits="userSpaceOnUse">
<stop stop-opacity="0"/>
<stop offset="0.88" stop-opacity="0.8"/>
<stop offset="0.97"/>
</linearGradient>
<linearGradient id="paint14_linear" x1="6330.2" y1="615.035" x2="6330.2" y2="865.684" gradientUnits="userSpaceOnUse">
<stop stop-opacity="0"/>
<stop offset="0.88" stop-opacity="0.8"/>
<stop offset="0.97"/>
</linearGradient>
<linearGradient id="paint15_linear" x1="3355.79" y1="2471.94" x2="3147.11" y2="3235.33" gradientUnits="userSpaceOnUse">
<stop stop-color="#ECC4D7"/>
<stop offset="0.42" stop-color="#EFD4D1"/>
<stop offset="1" stop-color="#F2EAC9"/>
</linearGradient>
<linearGradient id="paint16_linear" x1="1903.65" y1="3378.66" x2="1685.22" y2="3397.35" gradientUnits="userSpaceOnUse">
<stop stop-opacity="0"/>
<stop offset="0.88" stop-opacity="0.8"/>
<stop offset="0.97"/>
</linearGradient>
<linearGradient id="paint17_linear" x1="1308.77" y1="3009.01" x2="1170.96" y2="3024.41" gradientUnits="userSpaceOnUse">
<stop stop-opacity="0"/>
<stop offset="0.88" stop-opacity="0.8"/>
<stop offset="0.97"/>
</linearGradient>
<linearGradient id="paint18_linear" x1="144.996" y1="52.1466" x2="181.749" y2="90.5333" gradientUnits="userSpaceOnUse">
<stop stop-color="white" stop-opacity="0"/>
<stop offset="0.84" stop-color="white" stop-opacity="0.84"/>
<stop offset="0.97" stop-color="white"/>
</linearGradient>
<linearGradient id="paint19_linear" x1="1687.98" y1="1561.47" x2="1381.68" y2="1719.67" gradientUnits="userSpaceOnUse">
<stop stop-opacity="0"/>
<stop offset="0.88" stop-opacity="0.8"/>
<stop offset="0.97"/>
</linearGradient>
<linearGradient id="paint20_linear" x1="3200.31" y1="9948.62" x2="4067.69" y2="9925.43" gradientUnits="userSpaceOnUse">
<stop stop-opacity="0"/>
<stop offset="0.88" stop-opacity="0.8"/>
<stop offset="0.97"/>
</linearGradient>
<clipPath id="clip0">
<rect width="214" height="159" fill="white"/>
</clipPath>
</defs>
</svg>
