<svg width="167" height="180" viewBox="0 0 167 180" fill="none" xmlns="http://www.w3.org/2000/svg">
<g clip-path="url(#clip0)">
<path opacity="0.18" d="M63.3491 177.577C27.6221 172.409 5.93618 147.148 1.06293 117.084C-1.95239 98.6013 1.39797 78.3254 11.6927 59.7518C38.7697 10.9314 107.208 9.80664 107.208 9.80664C146.59 7.86112 138.823 74.2216 136.539 88.5394C135.321 96.1086 142.996 106.231 150.946 117.084C157.981 126.69 165.291 136.904 166.814 146.419C170.104 166.634 121.006 185.925 63.3491 177.577Z" fill="#2D914C"/>
<path d="M63.3491 178.003C27.6222 172.835 5.93623 147.574 1.06299 117.509H150.976C158.042 127.115 165.322 137.329 166.845 146.844C170.104 167.059 121.006 186.362 63.3491 178.003Z" fill="#2D914C"/>
<path d="M63.3491 178.003C27.6222 172.835 5.93623 147.574 1.06299 117.509H150.976C158.042 127.115 165.322 137.329 166.845 146.844C170.104 167.059 121.006 186.362 63.3491 178.003Z" fill="url(#paint0_linear)"/>
<path opacity="0.18" d="M63.7755 152.133C61.9785 152.103 59.816 151.86 58.9936 150.249C58.5977 149.458 58.6282 148.516 58.5063 147.604C57.288 139.609 43.2774 139.974 40.9626 132.222C40.7799 131.554 40.6885 130.733 41.1758 130.216C41.6023 129.76 42.2723 129.669 42.8815 129.638L63.2577 128.21C64.0801 125.2 60.8516 122.647 57.8972 121.704C44.5871 117.449 29.4801 126.203 16.3832 121.248C15.6827 120.975 14.9517 120.64 14.6167 119.972C13.6725 118.057 16.6878 116.719 18.8503 116.689L70.3849 115.868C71.4813 115.837 72.5778 115.837 73.6134 116.172C75.1972 116.689 76.4155 117.965 77.5729 119.181C82.4461 124.379 87.5021 129.669 93.8983 132.861C105.625 138.697 119.635 136.539 132.519 139.001C136.235 139.731 140.803 142.284 139.89 145.932C136.966 157.423 115.249 153.106 107.452 152.954L63.7755 152.133Z" fill="#1D2741"/>
<path d="M121.584 24.9756L121.615 34.9768L125.544 45.2515L128.742 43.7316C129.141 43.5408 129.598 43.5067 130.021 43.6362C130.444 43.7658 130.803 44.0494 131.026 44.4308L131.879 45.9203C132.032 46.1797 132.131 46.4665 132.172 46.7644C132.213 47.0622 132.195 47.3653 132.119 47.6561C132.042 47.947 131.909 48.2199 131.727 48.4593C131.545 48.6988 131.317 48.9 131.057 49.0514L130.965 49.1122C128.651 50.3281 123.96 53.2464 123.077 53.2464C121.737 53.2464 117.838 47.2275 117.838 47.2275L121.584 24.9756Z" fill="#2D914C"/>
<path d="M129.991 43.6404C129.991 43.6404 128.559 44.7652 129.229 45.9811C129.899 47.1971 132.184 47.2579 132.184 47.2579C132.184 47.2579 134.042 43.9444 129.991 43.6404Z" fill="#2D914C"/>
<path d="M130.996 36.8311C131.706 36.9039 132.409 37.0361 133.097 37.2263L136.265 37.9863C136.425 38.0131 136.574 38.0872 136.691 38.1991C136.874 38.4422 136.6 38.807 136.326 38.8982C135.412 39.263 134.255 38.5942 133.433 39.1414C132.976 39.4454 132.823 40.0534 132.458 40.4486C132.001 40.9957 131.24 41.2389 130.509 41.2997C129.784 41.3239 129.062 41.395 128.346 41.5125C127.28 41.7557 126.153 42.4549 125.178 41.9077C125.084 41.8536 125.001 41.7812 124.935 41.6949C124.813 41.4821 124.965 41.2085 125.087 40.9653C125.425 40.3315 125.573 39.6138 125.513 38.8982C125.483 37.8951 125.453 37.9863 126.458 37.6215C127.92 37.1351 129.443 36.7095 130.996 36.8311Z" fill="url(#paint1_linear)"/>
<path d="M132.366 88.7217L132.275 90.8192L135.96 90.7888L136.204 87.9009L132.366 88.7217Z" fill="url(#paint2_linear)"/>
<path d="M132.275 90.8192L135.961 90.7888L137.087 92.248C137.087 92.248 141.991 94.0111 142.905 96.4126C143.819 98.8141 143.636 100.06 143.636 100.06L130.722 95.835L132.275 90.8192Z" fill="#2D914C"/>
<path d="M105.381 55.7087C105.381 55.7087 131.3 55.8911 133.432 57.3806C139.341 61.4845 137.514 88.053 137.514 88.053L132.245 89.5729L127.981 67.017L105.381 55.7087Z" fill="#25233A"/>
<path d="M74.1007 86.5026H52.3234V101.58H74.1007V86.5026Z" fill="#2D914C"/>
<path d="M61.278 86.9586H53.7245V101.489H61.278V86.9586Z" fill="url(#paint3_linear)"/>
<path d="M72.6082 101.58H50.8309V118.36H72.6082V101.58Z" fill="#2D914C"/>
<path d="M72.6082 101.58H50.8309V118.36H72.6082V101.58Z" fill="url(#paint4_linear)"/>
<path d="M65.3594 86.5026H61.4303V89.5729H65.3594V86.5026Z" fill="url(#paint5_linear)"/>
<path d="M63.2273 101.52H59.2982V104.59H63.2273V101.52Z" fill="url(#paint6_linear)"/>
<path d="M63.6842 89.5729H63.3796V101.52H63.6842V89.5729Z" fill="url(#paint7_linear)"/>
<path d="M61.5827 104.59H61.2781V116.537H61.5827V104.59Z" fill="url(#paint8_linear)"/>
<path d="M78.5781 48.413H52.6281V66.3787H78.5781V48.413Z" fill="#2D914C"/>
<path d="M78.5781 48.413H52.6281V66.3787H78.5781V48.413Z" fill="url(#paint9_linear)"/>
<path d="M76.781 66.3483H50.8309V86.3506H76.781V66.3483Z" fill="#2D914C"/>
<path d="M76.781 66.3483H50.8309V86.3506H76.781V66.3483Z" fill="url(#paint10_linear)"/>
<path d="M68.1614 48.413H63.4709V52.0609H68.1614V48.413Z" fill="url(#paint11_linear)"/>
<path d="M65.603 66.2875H60.9125V69.9353H65.603V66.2875Z" fill="url(#paint12_linear)"/>
<path d="M66.1513 52.0609H65.7858V66.2875H66.1513V52.0609Z" fill="url(#paint13_linear)"/>
<path d="M63.6537 69.9353H63.2882V84.1619H63.6537V69.9353Z" fill="url(#paint14_linear)"/>
<path d="M53.755 74.1911H24.15V94.6799H53.755V74.1911Z" fill="#2D914C"/>
<path d="M53.7245 86.3506V94.6495H24.15V74.1911H50.831V86.3506H53.7245Z" fill="url(#paint15_linear)"/>
<path d="M53.7244 74.1911H50.8309V86.381H53.7244V74.1911Z" fill="url(#paint16_linear)"/>
<path d="M45.9883 94.6495H16.3833V117.479H45.9883V94.6495Z" fill="#2D914C"/>
<path d="M45.9883 94.6495H16.3833V117.479H45.9883V94.6495Z" fill="url(#paint17_linear)"/>
<path d="M41.8155 74.1911H36.4854V78.3558H41.8155V74.1911Z" fill="url(#paint18_linear)"/>
<path d="M33.2569 94.5887H27.9268V98.7533H33.2569V94.5887Z" fill="url(#paint19_linear)"/>
<path d="M39.5921 78.3558H39.1656V94.5887H39.5921V78.3558Z" fill="url(#paint20_linear)"/>
<path d="M31.003 98.7533H30.6071V114.986H31.003V98.7533Z" fill="url(#paint21_linear)"/>
<path d="M52.3235 30.8122H22.7185V51.3009H52.3235V30.8122Z" fill="#2D914C"/>
<path d="M52.3235 30.8122H22.7185V51.3009H52.3235V30.8122Z" fill="url(#paint22_linear)"/>
<path d="M50.2827 51.3009H20.6777V74.1303H50.2827V51.3009Z" fill="#2D914C"/>
<path d="M50.2827 51.3009H20.6777V74.1303H50.2827V51.3009Z" fill="url(#paint23_linear)"/>
<path d="M40.4145 30.8122H35.0844V34.9768H40.4145V30.8122Z" fill="url(#paint24_linear)"/>
<path d="M37.5209 51.2097H32.1908V55.3743H37.5209V51.2097Z" fill="url(#paint25_linear)"/>
<path d="M38.1606 34.9768H37.7646V51.2097H38.1606V34.9768Z" fill="url(#paint26_linear)"/>
<path d="M35.267 55.3743H34.8711V71.6072H35.267V55.3743Z" fill="url(#paint27_linear)"/>
<path opacity="0.46" d="M50.2828 61.8797V74.0999C50.2828 74.0999 45.8359 68.4154 46.0187 65.3451C46.2014 62.2749 50.2828 61.8797 50.2828 61.8797Z" fill="url(#paint28_linear)"/>
<path d="M69.3493 78.6598L69.1361 86.3506H50.8309V66.3483H52.6279V63.9468L55.3387 66.3483L63.2882 73.3096L63.6232 73.644L69.3493 78.6598Z" fill="url(#paint29_linear)"/>
<path d="M129.473 67.8378H81.8065V100.82H129.473V67.8378Z" fill="#2D914C"/>
<path d="M129.473 67.8378H81.8065V100.82H129.473V67.8378Z" fill="url(#paint30_linear)"/>
<path d="M117.016 100.82H69.3494V137.572H117.016V100.82Z" fill="#2D914C"/>
<path d="M117.016 100.82H69.3494V137.572H117.016V100.82Z" fill="url(#paint31_linear)"/>
<path d="M110.315 67.8378H101.726V74.5559H110.315V67.8378Z" fill="url(#paint32_linear)"/>
<path d="M96.4872 100.668H87.8981V107.387H96.4872V100.668Z" fill="url(#paint33_linear)"/>
<path d="M106.691 74.5255H106.021V100.668H106.691V74.5255Z" fill="url(#paint34_linear)"/>
<path d="M92.9236 107.387H92.2535V133.529H92.9236V107.387Z" fill="url(#paint35_linear)"/>
<path d="M67.7045 137.572H61.1561V75.0423C61.1573 74.6129 61.2434 74.188 61.4096 73.7919C61.5757 73.3958 61.8185 73.0364 62.1241 72.7342C62.4297 72.432 62.7921 72.193 63.1905 72.0309C63.5889 71.8688 64.0154 71.7868 64.4456 71.7896C65.3113 71.7943 66.1407 72.1375 66.7557 72.7457C67.3707 73.3538 67.7223 74.1783 67.735 75.0423V137.572H67.7045Z" fill="#2D914C"/>
<path d="M65.8467 77.3222C65.1269 77.8763 64.2166 78.1234 63.3148 78.0094C62.413 77.8955 61.5931 77.4298 61.0344 76.7143L52.3234 65.5883C51.7683 64.8699 51.5208 63.9614 51.6349 63.0614C51.7491 62.1613 52.2156 61.343 52.9326 60.7853C53.648 60.2263 54.5563 59.9733 55.4583 60.0815C56.3604 60.1898 57.1827 60.6506 57.7449 61.3629L66.4558 72.4888C66.7374 72.8447 66.9452 73.2529 67.0671 73.6896C67.189 74.1264 67.2226 74.583 67.1659 75.0329C67.1092 75.4828 66.9633 75.9169 66.7368 76.3099C66.5104 76.703 66.2078 77.0471 65.8467 77.3222Z" fill="#2D914C"/>
<path d="M144.824 140.612C144.824 141.419 144.503 142.192 143.932 142.762C143.36 143.332 142.586 143.652 141.778 143.652H67.3696C65.7507 143.654 64.1972 143.015 63.0496 141.875C61.902 140.735 61.254 139.188 61.2476 137.572H141.747C142.15 137.568 142.549 137.644 142.922 137.795C143.295 137.946 143.635 138.169 143.921 138.452C144.207 138.735 144.434 139.071 144.589 139.442C144.744 139.813 144.824 140.211 144.824 140.612Z" fill="#2D914C"/>
<path d="M144.824 140.612H67.3696C66.2966 140.614 65.242 140.335 64.3117 139.801C63.3815 139.267 62.6083 138.499 62.0699 137.572H141.747C142.149 137.57 142.548 137.648 142.92 137.799C143.292 137.951 143.631 138.174 143.916 138.457C144.202 138.739 144.429 139.074 144.585 139.444C144.741 139.814 144.822 140.211 144.824 140.612Z" fill="#2D914C"/>
<path d="M67.7045 137.572H61.1561V75.0423C61.1573 74.6129 61.2434 74.188 61.4096 73.7919C61.5757 73.3958 61.8185 73.0364 62.1241 72.7342C62.4297 72.432 62.7921 72.193 63.1905 72.0309C63.5889 71.8688 64.0154 71.7868 64.4456 71.7896C65.3113 71.7943 66.1407 72.1375 66.7557 72.7457C67.3707 73.3538 67.7223 74.1783 67.735 75.0423V137.572H67.7045Z" fill="url(#paint36_linear)"/>
<path d="M65.8467 77.3222C65.1269 77.8763 64.2166 78.1234 63.3148 78.0094C62.413 77.8955 61.5931 77.4298 61.0344 76.7143L52.3234 65.5883C51.7683 64.8699 51.5208 63.9614 51.6349 63.0614C51.7491 62.1613 52.2156 61.343 52.9326 60.7853C53.648 60.2263 54.5563 59.9733 55.4583 60.0815C56.3604 60.1898 57.1827 60.6506 57.7449 61.3629L66.4558 72.4888C66.7374 72.8447 66.9452 73.2529 67.0671 73.6896C67.189 74.1264 67.2226 74.583 67.1659 75.0329C67.1092 75.4828 66.9633 75.9169 66.7368 76.3099C66.5104 76.703 66.2078 77.0471 65.8467 77.3222Z" fill="url(#paint37_linear)"/>
<path d="M144.824 140.612C144.824 141.419 144.503 142.192 143.932 142.762C143.36 143.332 142.586 143.652 141.778 143.652H67.3696C65.7507 143.654 64.1972 143.015 63.0496 141.875C61.902 140.735 61.254 139.188 61.2476 137.572H141.747C142.15 137.568 142.549 137.644 142.922 137.795C143.295 137.946 143.635 138.169 143.921 138.452C144.207 138.735 144.434 139.071 144.589 139.442C144.744 139.813 144.824 140.211 144.824 140.612Z" fill="url(#paint38_linear)"/>
<path d="M144.824 140.612H67.3696C66.2966 140.614 65.242 140.335 64.3117 139.801C63.3815 139.267 62.6083 138.499 62.0699 137.572H141.747C142.149 137.57 142.548 137.648 142.92 137.799C143.292 137.951 143.631 138.174 143.916 138.457C144.202 138.739 144.429 139.074 144.585 139.444C144.741 139.814 144.822 140.211 144.824 140.612Z" fill="url(#paint39_linear)"/>
<path d="M78.1331 154.279C80.1076 152.308 80.1076 149.113 78.1331 147.142C76.1586 145.172 72.9573 145.172 70.9828 147.142C69.0083 149.113 69.0084 152.308 70.9828 154.279C72.9573 156.249 76.1586 156.249 78.1331 154.279Z" fill="#2D914C"/>
<path opacity="0.57" d="M74.5881 152.377C75.4291 152.377 76.111 151.696 76.111 150.857C76.111 150.017 75.4291 149.337 74.5881 149.337C73.747 149.337 73.0652 150.017 73.0652 150.857C73.0652 151.696 73.747 152.377 74.5881 152.377Z" fill="#1D2741"/>
<path d="M75.8673 150.218H72.5779V143.652H79.1872L75.8673 150.218Z" fill="url(#paint40_linear)"/>
<path d="M130.234 155.751C133.027 155.751 135.29 153.492 135.29 150.705C135.29 147.918 133.027 145.659 130.234 145.659C127.442 145.659 125.178 147.918 125.178 150.705C125.178 153.492 127.442 155.751 130.234 155.751Z" fill="#2D914C"/>
<path d="M79.5525 151.52C80 148.769 78.1283 146.177 75.372 145.731C72.6157 145.284 70.0186 147.152 69.5712 149.903C69.1238 152.654 70.9955 155.246 73.7518 155.693C76.5081 156.139 79.1051 154.271 79.5525 151.52Z" fill="url(#paint41_linear)"/>
<path d="M130.234 155.751C133.027 155.751 135.29 153.492 135.29 150.705C135.29 147.918 133.027 145.659 130.234 145.659C127.442 145.659 125.178 147.918 125.178 150.705C125.178 153.492 127.442 155.751 130.234 155.751Z" fill="url(#paint42_linear)"/>
<path opacity="0.57" d="M128.681 150.857C128.681 151.157 128.77 151.451 128.938 151.701C129.105 151.951 129.343 152.146 129.621 152.261C129.899 152.376 130.206 152.406 130.501 152.347C130.796 152.289 131.068 152.144 131.281 151.931C131.494 151.719 131.639 151.448 131.698 151.153C131.756 150.858 131.726 150.553 131.611 150.275C131.496 149.997 131.3 149.76 131.05 149.593C130.8 149.426 130.505 149.337 130.204 149.337C129.8 149.337 129.413 149.497 129.127 149.782C128.841 150.067 128.681 150.454 128.681 150.857Z" fill="#1D2741"/>
<path d="M128.925 150.218H132.245V143.652H125.635L128.925 150.218Z" fill="#2D914C"/>
<path d="M75.8673 150.218H72.5779V143.652H79.1872L75.8673 150.218Z" fill="#2D914C"/>
<path d="M75.8673 150.218H72.5779V143.652H79.1872L75.8673 150.218Z" fill="url(#paint43_linear)"/>
<path d="M128.925 150.218H132.245V143.652H125.635L128.925 150.218Z" fill="url(#paint44_linear)"/>
<path opacity="0.2" d="M86.0402 68.6586H81.8065V100.699H86.0402V68.6586Z" fill="url(#paint45_linear)"/>
<path opacity="0.2" d="M73.7048 101.185H69.4712V136.721H73.7048V101.185Z" fill="url(#paint46_linear)"/>
<path d="M100.416 55.3743C100.416 55.3743 98.802 64.9378 105.655 67.0657C112.508 69.1936 129.473 67.8256 129.473 67.8256L145.067 86.2473L148.936 81.0491L134.864 61.7763C132.191 58.9444 128.549 57.2192 124.661 56.9429L100.416 55.3743Z" fill="#3F3D56"/>
<path d="M145.098 86.2594L146.712 87.597L148.935 84.6787L147.626 82.8548L145.098 86.2594Z" fill="url(#paint47_linear)"/>
<path d="M146.712 87.597L148.935 84.6787H150.763C150.763 84.6787 155.149 81.882 157.646 82.642C160.144 83.402 160.997 84.3139 160.997 84.3139L149.727 91.9136L146.712 87.597Z" fill="#2D914C"/>
<path d="M132.275 90.8192L135.961 90.7888L137.087 92.248C137.087 92.248 141.991 94.0111 142.905 96.4126C143.819 98.8141 143.636 100.06 143.636 100.06L130.722 95.835L132.275 90.8192Z" fill="url(#paint48_linear)"/>
<path d="M146.712 87.597L148.935 84.6787H150.763C150.763 84.6787 155.149 81.882 157.646 82.642C160.144 83.402 160.997 84.3139 160.997 84.3139L149.727 91.9136L146.712 87.597Z" fill="url(#paint49_linear)"/>
<path d="M117.533 55.9519H100.355L100.173 55.8607C99.6243 55.5567 98.2232 54.4016 98.3755 51.3009C98.4973 49.0514 100.508 40.8133 102.152 34.3688C103.31 29.7786 104.315 26.0699 104.315 26.0699C104.315 26.0699 106.447 20.4766 110.01 19.0174C111.351 18.4703 113.056 17.5583 114.914 17.8927C117.99 18.5007 121.158 21.2669 121.615 25.006C121.98 28.1371 117.533 55.9519 117.533 55.9519Z" fill="#2D914C"/>
<path d="M117.533 55.9519H100.355L100.173 55.8607C99.6243 55.5567 98.2232 54.4016 98.3755 51.3009C98.4973 49.0514 100.508 40.8133 102.152 34.3688C103.31 29.7786 104.315 26.0699 104.315 26.0699C104.315 26.0699 106.447 20.4766 110.01 19.0174C111.351 18.4703 113.056 17.5583 114.914 17.8927C117.99 18.5007 121.158 21.2669 121.615 25.006C121.98 28.1371 117.533 55.9519 117.533 55.9519Z" fill="url(#paint50_linear)"/>
<path d="M106.355 42.1387C106.355 42.1387 102.457 52.4135 105.381 55.6965L100.173 55.8485C99.6243 55.5445 98.2232 54.3894 98.3755 51.2887C98.4973 49.0392 100.508 40.8012 102.152 34.3566L109.036 24.9756L106.355 42.1387Z" fill="url(#paint51_linear)"/>
<path d="M114.884 17.8623L116.711 12.8465C116.711 12.8465 118.843 4.79083 123.747 4.36525C128.651 3.93966 132.762 7.49631 130.691 13.1505C128.62 18.8046 127.585 19.6862 125.574 20.051C123.564 20.4158 121.676 19.4734 121.676 19.4734L119.909 22.1485C119.94 22.1485 119.361 23.6988 114.884 17.8623Z" fill="url(#paint52_linear)"/>
<path d="M106.234 23.6684C106.234 23.6684 97.8883 35.7063 98.3451 38.8374C98.8934 42.5157 114.67 43.0932 121.128 43.2756C121.958 43.3099 122.775 43.0648 123.449 42.5797C124.123 42.0946 124.614 41.3976 124.843 40.6005V40.5701C125.123 39.6188 125.015 38.5955 124.541 37.724C124.067 36.8524 123.267 36.2035 122.315 35.9191C122.136 35.8642 121.953 35.8235 121.767 35.7975L110.955 34.3384L116.041 24.6716C117.351 20.5678 112.478 17.2239 109.127 19.9294C107.931 20.9784 106.948 22.2479 106.234 23.6684Z" fill="#2D914C"/>
<path d="M125.788 37.6823L124.447 37.5303L123.534 42.5156H125.026L125.788 37.6823Z" fill="#2D914C"/>
<path d="M129.991 43.6404C129.991 43.6404 128.559 44.7652 129.229 45.9811C129.899 47.1971 132.184 47.2579 132.184 47.2579C132.184 47.2579 134.042 43.9444 129.991 43.6404Z" fill="url(#paint53_linear)"/>
<path d="M125.788 37.6823L124.447 37.5303L123.534 42.5156H125.026L125.788 37.6823Z" fill="url(#paint54_linear)"/>
<path d="M121.188 11.5698C120.762 11.3874 121.128 10.6578 120.853 10.293C120.579 9.92823 120.092 10.141 119.787 10.4146C119.488 10.6976 119.271 11.0558 119.158 11.4517C119.046 11.8476 119.042 12.2664 119.148 12.6641C119.25 12.9145 119.291 13.1851 119.27 13.4545C119.117 14.0017 118.386 14.0625 117.838 13.9409C117.29 13.8193 116.681 13.5761 116.224 13.8801C115.828 13.2113 116.102 12.3601 116.407 11.661C116.947 10.3898 117.599 9.16902 118.356 8.01311C118.538 7.7706 118.663 7.48998 118.721 7.19234C118.782 6.73636 118.508 6.34118 118.356 5.946C117.564 4.03088 118.66 1.69017 120.488 0.687016C122.315 -0.316142 124.6 -0.13375 126.488 0.687016C127.189 0.991003 127.859 1.38619 128.59 1.53818C129.686 1.75097 130.813 1.44698 131.94 1.44698C132.812 1.4774 133.664 1.71367 134.426 2.13641C135.188 2.55915 135.84 3.15631 136.326 3.87888C136.795 4.61911 137.08 5.45984 137.16 6.33185C137.239 7.20386 137.11 8.08223 136.783 8.89467C136.387 9.83703 135.412 10.7794 134.468 10.445C134.072 10.3234 133.768 9.98903 133.402 9.77623C133.037 9.56344 132.488 9.53304 132.245 9.86743C132.191 9.95382 132.13 10.0352 132.062 10.1106C131.727 10.3538 131.453 9.77623 131.27 9.44185C130.844 8.62108 129.686 8.65148 128.772 8.68188C127.884 8.70175 126.996 8.63044 126.123 8.46909C125.483 8.34749 124.63 7.92191 123.991 8.10431C123.199 8.2259 121.28 11.6002 121.188 11.5698Z" fill="#3F3D56"/>
<path d="M144.062 33.7608L144.854 34.7032L126.823 47.6834L126.123 46.6803L144.062 33.7608Z" fill="url(#paint55_linear)"/>
<path d="M129.991 45.4339C129.991 45.4339 130.295 46.4371 131.879 45.9203C133.463 45.4035 136.295 43.7316 136.539 43.306C136.783 42.8804 139.219 40.3574 139.067 38.9286L129.991 45.4339Z" fill="url(#paint56_linear)"/>
</g>
<defs>
<linearGradient id="paint0_linear" x1="27.8567" y1="78.8756" x2="198.46" y2="251.552" gradientUnits="userSpaceOnUse">
<stop stop-opacity="0"/>
<stop offset="0.91" stop-opacity="0.8"/>
<stop offset="1"/>
</linearGradient>
<linearGradient id="paint1_linear" x1="124.917" y1="39.4606" x2="136.762" y2="39.4606" gradientUnits="userSpaceOnUse">
<stop stop-color="#ECC4D7"/>
<stop offset="0.42" stop-color="#EFD4D1"/>
<stop offset="1" stop-color="#F2EAC9"/>
</linearGradient>
<linearGradient id="paint2_linear" x1="-6241.82" y1="-1295.11" x2="-6283.27" y2="-1294.21" gradientUnits="userSpaceOnUse">
<stop stop-color="#ECC4D7"/>
<stop offset="0.42" stop-color="#EFD4D1"/>
<stop offset="1" stop-color="#F2EAC9"/>
</linearGradient>
<linearGradient id="paint3_linear" x1="1841.95" y1="7046.68" x2="2344.98" y2="7119.82" gradientUnits="userSpaceOnUse">
<stop stop-opacity="0"/>
<stop offset="0.91" stop-opacity="0.8"/>
<stop offset="1"/>
</linearGradient>
<linearGradient id="paint4_linear" x1="5656.76" y1="8937.68" x2="6254.16" y2="10241.4" gradientUnits="userSpaceOnUse">
<stop stop-opacity="0"/>
<stop offset="0.91" stop-opacity="0.8"/>
<stop offset="1"/>
</linearGradient>
<linearGradient id="paint5_linear" x1="61.4242" y1="88.0378" x2="65.3472" y2="88.0378" gradientUnits="userSpaceOnUse">
<stop stop-color="#183866"/>
<stop offset="1" stop-color="#1A7FC1"/>
</linearGradient>
<linearGradient id="paint6_linear" x1="1121.55" y1="1604.69" x2="956.959" y2="1717.81" gradientUnits="userSpaceOnUse">
<stop stop-opacity="0"/>
<stop offset="0.91" stop-opacity="0.8"/>
<stop offset="1"/>
</linearGradient>
<linearGradient id="paint7_linear" x1="68.2041" y1="94.4853" x2="62.4914" y2="95.7881" gradientUnits="userSpaceOnUse">
<stop stop-color="#68E1FD"/>
<stop offset="1" stop-color="#69B9EB"/>
</linearGradient>
<linearGradient id="paint8_linear" x1="145.654" y1="850.422" x2="139.644" y2="850.388" gradientUnits="userSpaceOnUse">
<stop stop-color="#68E1FD"/>
<stop offset="1" stop-color="#69B9EB"/>
</linearGradient>
<linearGradient id="paint9_linear" x1="58.9876" y1="50.1305" x2="82.6122" y2="76.1671" gradientUnits="userSpaceOnUse">
<stop stop-color="white" stop-opacity="0"/>
<stop offset="0.09" stop-color="white" stop-opacity="0.05"/>
<stop offset="0.24" stop-color="white" stop-opacity="0.17"/>
<stop offset="0.45" stop-color="white" stop-opacity="0.37"/>
<stop offset="0.69" stop-color="white" stop-opacity="0.65"/>
<stop offset="0.98" stop-color="white"/>
</linearGradient>
<linearGradient id="paint10_linear" x1="6106.01" y1="4349.06" x2="7838.55" y2="1700.15" gradientUnits="userSpaceOnUse">
<stop stop-color="white" stop-opacity="0"/>
<stop offset="0.09" stop-color="white" stop-opacity="0.05"/>
<stop offset="0.24" stop-color="white" stop-opacity="0.17"/>
<stop offset="0.45" stop-color="white" stop-opacity="0.37"/>
<stop offset="0.69" stop-color="white" stop-opacity="0.65"/>
<stop offset="0.98" stop-color="white"/>
</linearGradient>
<linearGradient id="paint11_linear" x1="1354.69" y1="-2193.27" x2="1332.79" y2="1149.09" gradientUnits="userSpaceOnUse">
<stop stop-opacity="0"/>
<stop offset="0.91" stop-opacity="0.8"/>
<stop offset="1"/>
</linearGradient>
<linearGradient id="paint12_linear" x1="1315.07" y1="-2211.36" x2="1293.17" y2="1130.96" gradientUnits="userSpaceOnUse">
<stop stop-opacity="0"/>
<stop offset="0.91" stop-opacity="0.8"/>
<stop offset="1"/>
</linearGradient>
<linearGradient id="paint13_linear" x1="148.944" y1="4761.82" x2="-1063.69" y2="5939.1" gradientUnits="userSpaceOnUse">
<stop stop-opacity="0"/>
<stop offset="0.91" stop-opacity="0.8"/>
<stop offset="1"/>
</linearGradient>
<linearGradient id="paint14_linear" x1="168.045" y1="2535.97" x2="159.453" y2="2535.92" gradientUnits="userSpaceOnUse">
<stop stop-color="#68E1FD"/>
<stop offset="1" stop-color="#69B9EB"/>
</linearGradient>
<linearGradient id="paint15_linear" x1="4404.13" y1="3881.08" x2="5744.8" y2="1603.02" gradientUnits="userSpaceOnUse">
<stop stop-color="white" stop-opacity="0"/>
<stop offset="0.09" stop-color="white" stop-opacity="0.05"/>
<stop offset="0.24" stop-color="white" stop-opacity="0.17"/>
<stop offset="0.45" stop-color="white" stop-opacity="0.37"/>
<stop offset="0.69" stop-color="white" stop-opacity="0.65"/>
<stop offset="0.98" stop-color="white"/>
</linearGradient>
<linearGradient id="paint16_linear" x1="666.362" y1="2277.88" x2="926.252" y2="2205.37" gradientUnits="userSpaceOnUse">
<stop stop-color="white" stop-opacity="0"/>
<stop offset="0.09" stop-color="white" stop-opacity="0.05"/>
<stop offset="0.24" stop-color="white" stop-opacity="0.17"/>
<stop offset="0.45" stop-color="white" stop-opacity="0.37"/>
<stop offset="0.69" stop-color="white" stop-opacity="0.65"/>
<stop offset="0.98" stop-color="white"/>
</linearGradient>
<linearGradient id="paint17_linear" x1="4291.93" y1="2202.26" x2="6103.69" y2="-225.575" gradientUnits="userSpaceOnUse">
<stop stop-color="white" stop-opacity="0"/>
<stop offset="0.09" stop-color="white" stop-opacity="0.05"/>
<stop offset="0.24" stop-color="white" stop-opacity="0.17"/>
<stop offset="0.45" stop-color="white" stop-opacity="0.37"/>
<stop offset="0.69" stop-color="white" stop-opacity="0.65"/>
<stop offset="0.98" stop-color="white"/>
</linearGradient>
<linearGradient id="paint18_linear" x1="1043.51" y1="-2544.15" x2="1018.42" y2="1271.71" gradientUnits="userSpaceOnUse">
<stop stop-opacity="0"/>
<stop offset="0.91" stop-opacity="0.8"/>
<stop offset="1"/>
</linearGradient>
<linearGradient id="paint19_linear" x1="888.212" y1="-2565.49" x2="863.091" y2="1250.31" gradientUnits="userSpaceOnUse">
<stop stop-opacity="0"/>
<stop offset="0.91" stop-opacity="0.8"/>
<stop offset="1"/>
</linearGradient>
<linearGradient id="paint20_linear" x1="102.251" y1="6624.71" x2="-1507.87" y2="8118.03" gradientUnits="userSpaceOnUse">
<stop stop-opacity="0"/>
<stop offset="0.91" stop-opacity="0.8"/>
<stop offset="1"/>
</linearGradient>
<linearGradient id="paint21_linear" x1="76.2672" y1="7810.3" x2="-622.536" y2="10341.6" gradientUnits="userSpaceOnUse">
<stop stop-opacity="0"/>
<stop offset="0.91" stop-opacity="0.8"/>
<stop offset="1"/>
</linearGradient>
<linearGradient id="paint22_linear" x1="3970.24" y1="6638.23" x2="6633.6" y2="3944.2" gradientUnits="userSpaceOnUse">
<stop stop-color="white" stop-opacity="0"/>
<stop offset="0.09" stop-color="white" stop-opacity="0.05"/>
<stop offset="0.24" stop-color="white" stop-opacity="0.17"/>
<stop offset="0.45" stop-color="white" stop-opacity="0.37"/>
<stop offset="0.69" stop-color="white" stop-opacity="0.65"/>
<stop offset="0.98" stop-color="white"/>
</linearGradient>
<linearGradient id="paint23_linear" x1="3519.39" y1="6078.5" x2="6488.85" y2="2930.7" gradientUnits="userSpaceOnUse">
<stop stop-color="white" stop-opacity="0"/>
<stop offset="0.09" stop-color="white" stop-opacity="0.05"/>
<stop offset="0.24" stop-color="white" stop-opacity="0.17"/>
<stop offset="0.45" stop-color="white" stop-opacity="0.37"/>
<stop offset="0.69" stop-color="white" stop-opacity="0.65"/>
<stop offset="0.98" stop-color="white"/>
</linearGradient>
<linearGradient id="paint24_linear" x1="1011.19" y1="-2500.97" x2="986.07" y2="1314.88" gradientUnits="userSpaceOnUse">
<stop stop-opacity="0"/>
<stop offset="0.91" stop-opacity="0.8"/>
<stop offset="1"/>
</linearGradient>
<linearGradient id="paint25_linear" x1="960.647" y1="-2521.67" x2="935.558" y2="1294.15" gradientUnits="userSpaceOnUse">
<stop stop-opacity="0"/>
<stop offset="0.91" stop-opacity="0.8"/>
<stop offset="1"/>
</linearGradient>
<linearGradient id="paint26_linear" x1="92.4329" y1="4537.92" x2="1321.86" y2="7138.24" gradientUnits="userSpaceOnUse">
<stop stop-opacity="0"/>
<stop offset="0.91" stop-opacity="0.8"/>
<stop offset="1"/>
</linearGradient>
<linearGradient id="paint27_linear" x1="86.1188" y1="5504.86" x2="-1207.56" y2="8763.9" gradientUnits="userSpaceOnUse">
<stop stop-opacity="0"/>
<stop offset="0.91" stop-opacity="0.8"/>
<stop offset="1"/>
</linearGradient>
<linearGradient id="paint28_linear" x1="41.5627" y1="67.5855" x2="67.3754" y2="68.7879" gradientUnits="userSpaceOnUse">
<stop stop-opacity="0"/>
<stop offset="0.84" stop-opacity="0.66"/>
<stop offset="0.91" stop-opacity="0.8"/>
<stop offset="1"/>
</linearGradient>
<linearGradient id="paint29_linear" x1="4934.73" y1="9290.76" x2="3523.33" y2="11141" gradientUnits="userSpaceOnUse">
<stop stop-opacity="0"/>
<stop offset="0.84" stop-opacity="0.66"/>
<stop offset="0.91" stop-opacity="0.8"/>
<stop offset="1"/>
</linearGradient>
<linearGradient id="paint30_linear" x1="18062.1" y1="6353.67" x2="20614.4" y2="712.043" gradientUnits="userSpaceOnUse">
<stop stop-color="white" stop-opacity="0"/>
<stop offset="0.09" stop-color="white" stop-opacity="0.05"/>
<stop offset="0.24" stop-color="white" stop-opacity="0.17"/>
<stop offset="0.45" stop-color="white" stop-opacity="0.37"/>
<stop offset="0.69" stop-color="white" stop-opacity="0.65"/>
<stop offset="0.98" stop-color="white"/>
</linearGradient>
<linearGradient id="paint31_linear" x1="13783" y1="1223.23" x2="21242.8" y2="1223.23" gradientUnits="userSpaceOnUse">
<stop stop-color="white" stop-opacity="0"/>
<stop offset="0.09" stop-color="white" stop-opacity="0.05"/>
<stop offset="0.24" stop-color="white" stop-opacity="0.17"/>
<stop offset="0.45" stop-color="white" stop-opacity="0.37"/>
<stop offset="0.69" stop-color="white" stop-opacity="0.65"/>
<stop offset="0.98" stop-color="white"/>
</linearGradient>
<linearGradient id="paint32_linear" x1="3620.01" y1="-4118.56" x2="3579.49" y2="2036.88" gradientUnits="userSpaceOnUse">
<stop stop-opacity="0"/>
<stop offset="0.91" stop-opacity="0.8"/>
<stop offset="1"/>
</linearGradient>
<linearGradient id="paint33_linear" x1="3224.14" y1="-4153.87" x2="3183.57" y2="2001.56" gradientUnits="userSpaceOnUse">
<stop stop-opacity="0"/>
<stop offset="0.91" stop-opacity="0.8"/>
<stop offset="1"/>
</linearGradient>
<linearGradient id="paint34_linear" x1="361.14" y1="9551.35" x2="5069.48" y2="19594.2" gradientUnits="userSpaceOnUse">
<stop stop-opacity="0"/>
<stop offset="0.91" stop-opacity="0.8"/>
<stop offset="1"/>
</linearGradient>
<linearGradient id="paint35_linear" x1="316.87" y1="11743.3" x2="5025.31" y2="21786.1" gradientUnits="userSpaceOnUse">
<stop stop-opacity="0"/>
<stop offset="0.91" stop-opacity="0.8"/>
<stop offset="1"/>
</linearGradient>
<linearGradient id="paint36_linear" x1="2521.04" y1="-4847.02" x2="2662.75" y2="-4847.02" gradientUnits="userSpaceOnUse">
<stop stop-color="white" stop-opacity="0"/>
<stop offset="0.09" stop-color="white" stop-opacity="0.05"/>
<stop offset="0.24" stop-color="white" stop-opacity="0.17"/>
<stop offset="0.45" stop-color="white" stop-opacity="0.37"/>
<stop offset="0.69" stop-color="white" stop-opacity="0.65"/>
<stop offset="0.98" stop-color="white"/>
</linearGradient>
<linearGradient id="paint37_linear" x1="5440.75" y1="-3380.55" x2="6238.39" y2="-3380.55" gradientUnits="userSpaceOnUse">
<stop stop-color="white" stop-opacity="0"/>
<stop offset="0.09" stop-color="white" stop-opacity="0.05"/>
<stop offset="0.24" stop-color="white" stop-opacity="0.17"/>
<stop offset="0.45" stop-color="white" stop-opacity="0.37"/>
<stop offset="0.69" stop-color="white" stop-opacity="0.65"/>
<stop offset="0.98" stop-color="white"/>
</linearGradient>
<linearGradient id="paint38_linear" x1="31764" y1="254.913" x2="54697.3" y2="254.913" gradientUnits="userSpaceOnUse">
<stop stop-color="white" stop-opacity="0"/>
<stop offset="0.09" stop-color="white" stop-opacity="0.05"/>
<stop offset="0.24" stop-color="white" stop-opacity="0.17"/>
<stop offset="0.45" stop-color="white" stop-opacity="0.37"/>
<stop offset="0.69" stop-color="white" stop-opacity="0.65"/>
<stop offset="0.98" stop-color="white"/>
</linearGradient>
<linearGradient id="paint39_linear" x1="31675.9" y1="106.927" x2="54160.1" y2="106.927" gradientUnits="userSpaceOnUse">
<stop stop-color="white" stop-opacity="0"/>
<stop offset="0.09" stop-color="white" stop-opacity="0.05"/>
<stop offset="0.24" stop-color="white" stop-opacity="0.17"/>
<stop offset="0.45" stop-color="white" stop-opacity="0.37"/>
<stop offset="0.69" stop-color="white" stop-opacity="0.65"/>
<stop offset="0.98" stop-color="white"/>
</linearGradient>
<linearGradient id="paint40_linear" x1="2044.14" y1="-254.978" x2="2187.56" y2="-254.978" gradientUnits="userSpaceOnUse">
<stop stop-color="white" stop-opacity="0"/>
<stop offset="0.09" stop-color="white" stop-opacity="0.05"/>
<stop offset="0.24" stop-color="white" stop-opacity="0.17"/>
<stop offset="0.45" stop-color="white" stop-opacity="0.37"/>
<stop offset="0.69" stop-color="white" stop-opacity="0.65"/>
<stop offset="0.98" stop-color="white"/>
</linearGradient>
<linearGradient id="paint41_linear" x1="3144.97" y1="7519.85" x2="3153.53" y2="6692.99" gradientUnits="userSpaceOnUse">
<stop stop-opacity="0"/>
<stop offset="0.91" stop-opacity="0.8"/>
<stop offset="1"/>
</linearGradient>
<linearGradient id="paint42_linear" x1="5030.63" y1="7538.71" x2="5039.09" y2="6711.84" gradientUnits="userSpaceOnUse">
<stop stop-opacity="0"/>
<stop offset="0.91" stop-opacity="0.8"/>
<stop offset="1"/>
</linearGradient>
<linearGradient id="paint43_linear" x1="2021.6" y1="-222.475" x2="2164.23" y2="-272.301" gradientUnits="userSpaceOnUse">
<stop stop-color="white" stop-opacity="0"/>
<stop offset="0.09" stop-color="white" stop-opacity="0.05"/>
<stop offset="0.24" stop-color="white" stop-opacity="0.17"/>
<stop offset="0.45" stop-color="white" stop-opacity="0.37"/>
<stop offset="0.69" stop-color="white" stop-opacity="0.65"/>
<stop offset="0.98" stop-color="white"/>
</linearGradient>
<linearGradient id="paint44_linear" x1="3248.54" y1="-254.978" x2="3391.96" y2="-254.978" gradientUnits="userSpaceOnUse">
<stop stop-color="white" stop-opacity="0"/>
<stop offset="0.09" stop-color="white" stop-opacity="0.05"/>
<stop offset="0.24" stop-color="white" stop-opacity="0.17"/>
<stop offset="0.45" stop-color="white" stop-opacity="0.37"/>
<stop offset="0.69" stop-color="white" stop-opacity="0.65"/>
<stop offset="0.98" stop-color="white"/>
</linearGradient>
<linearGradient id="paint45_linear" x1="1628.57" y1="5647.83" x2="1128.7" y2="5581.25" gradientUnits="userSpaceOnUse">
<stop stop-color="#183866"/>
<stop offset="1" stop-color="#1A7FC1"/>
</linearGradient>
<linearGradient id="paint46_linear" x1="1456.92" y1="2385.45" x2="907.013" y2="2319.39" gradientUnits="userSpaceOnUse">
<stop stop-color="#183866"/>
<stop offset="1" stop-color="#1A7FC1"/>
</linearGradient>
<linearGradient id="paint47_linear" x1="2229.25" y1="-651.336" x2="2184.1" y2="-614.536" gradientUnits="userSpaceOnUse">
<stop stop-color="#ECC4D7"/>
<stop offset="0.42" stop-color="#EFD4D1"/>
<stop offset="1" stop-color="#F2EAC9"/>
</linearGradient>
<linearGradient id="paint48_linear" x1="6719.36" y1="4569.32" x2="6676.11" y2="3991.91" gradientUnits="userSpaceOnUse">
<stop stop-opacity="0"/>
<stop offset="0.91" stop-opacity="0.8"/>
<stop offset="1"/>
</linearGradient>
<linearGradient id="paint49_linear" x1="8256.41" y1="4567.86" x2="8216.06" y2="3981.87" gradientUnits="userSpaceOnUse">
<stop stop-opacity="0"/>
<stop offset="0.91" stop-opacity="0.8"/>
<stop offset="1"/>
</linearGradient>
<linearGradient id="paint50_linear" x1="10763.8" y1="11187.3" x2="6950.61" y2="11486.3" gradientUnits="userSpaceOnUse">
<stop stop-opacity="0"/>
<stop offset="0.91" stop-opacity="0.8"/>
<stop offset="1"/>
</linearGradient>
<linearGradient id="paint51_linear" x1="4459.79" y1="9502.26" x2="3650.03" y2="9555.1" gradientUnits="userSpaceOnUse">
<stop stop-opacity="0"/>
<stop offset="0.91" stop-opacity="0.8"/>
<stop offset="1"/>
</linearGradient>
<linearGradient id="paint52_linear" x1="13990.6" y1="-9684.81" x2="14905.2" y2="-9795.87" gradientUnits="userSpaceOnUse">
<stop stop-color="#ECC4D7"/>
<stop offset="0.42" stop-color="#EFD4D1"/>
<stop offset="1" stop-color="#F2EAC9"/>
</linearGradient>
<linearGradient id="paint53_linear" x1="1871.67" y1="1136.91" x2="1869.1" y2="1245.9" gradientUnits="userSpaceOnUse">
<stop stop-opacity="0"/>
<stop offset="0.91" stop-opacity="0.8"/>
<stop offset="1"/>
</linearGradient>
<linearGradient id="paint54_linear" x1="1180.48" y1="1520.81" x2="1102.82" y2="1516.61" gradientUnits="userSpaceOnUse">
<stop stop-opacity="0"/>
<stop offset="0.91" stop-opacity="0.8"/>
<stop offset="1"/>
</linearGradient>
<linearGradient id="paint55_linear" x1="133.999" y1="38.1656" x2="135.952" y2="41.4915" gradientUnits="userSpaceOnUse">
<stop offset="0.09" stop-color="#68E1FD"/>
<stop offset="0.2" stop-color="#65D5F1"/>
<stop offset="0.4" stop-color="#5DB7D2"/>
<stop offset="0.66" stop-color="#51859F"/>
<stop offset="0.97" stop-color="#404059"/>
<stop offset="0.99" stop-color="#3F3D56"/>
</linearGradient>
<linearGradient id="paint56_linear" x1="5824.19" y1="2086.86" x2="5617.53" y2="1742.11" gradientUnits="userSpaceOnUse">
<stop stop-color="#ECC4D7"/>
<stop offset="0.42" stop-color="#EFD4D1"/>
<stop offset="1" stop-color="#F2EAC9"/>
</linearGradient>
<clipPath id="clip0">
<rect width="167" height="180" fill="white"/>
</clipPath>
</defs>
</svg>
