<svg width="166" height="174" viewBox="0 0 166 174" fill="none" xmlns="http://www.w3.org/2000/svg">
<g clip-path="url(#clip0)">
<path opacity="0.18" d="M91.818 0.0845257C73.5704 1.58488 62.316 20.6525 45.8984 28.7485C38.5229 32.3872 30.2134 33.7215 22.6482 36.9466C9.77974 42.4294 -1.07776 55.1168 0.0838803 69.0337C1.58992 87.0729 21.0809 98.2745 27.2072 115.309C28.8971 120.011 29.5159 125.045 31.2583 129.724C35.6072 141.403 47.3928 149.924 59.8614 150.408C69.8754 150.796 79.4312 146.498 89.3401 144.984C101.47 143.125 113.837 145.476 126.115 145.059C138.394 144.643 151.8 140.477 157.821 129.802C162.695 121.159 161.504 110.391 158.808 100.844C156.111 91.2972 152.016 81.9804 151.47 72.0752C150.84 60.5414 154.59 47.2538 146.961 38.5722C141.298 32.1134 130.841 30.5897 126.801 23.0151C122.441 14.8579 120.911 13.7712 113.58 8.93514C106.33 4.14276 101.377 -0.702066 91.818 0.0845257Z" fill="#2D914C"/>
<path d="M138.97 16.8331H94.8659C91.3019 16.8331 88.4127 19.7169 88.4127 23.2744V118.659C88.4127 122.216 91.3019 125.1 94.8659 125.1H138.97C142.534 125.1 145.423 122.216 145.423 118.659V23.2744C145.423 19.7169 142.534 16.8331 138.97 16.8331Z" fill="#2D914C"/>
<path d="M143.08 24.9554V115.99C143.079 117.587 142.443 119.118 141.312 120.246C140.18 121.375 138.646 122.009 137.047 122.009H96.7893C95.1908 122.008 93.6582 121.373 92.5282 120.244C91.3982 119.116 90.763 117.586 90.7622 115.99V24.9583C90.763 23.3619 91.3985 21.8312 92.5291 20.7021C93.6597 19.573 95.1929 18.938 96.7922 18.9365H102.921V19.4113C102.921 19.8563 103.009 20.2969 103.18 20.7079C103.35 21.119 103.6 21.4925 103.916 21.8071C104.231 22.1218 104.605 22.3713 105.017 22.5416C105.429 22.7119 105.87 22.7995 106.316 22.7995H127.208C127.654 22.7999 128.095 22.7125 128.507 22.5424C128.919 22.3723 129.294 22.1227 129.609 21.808C129.924 21.4933 130.174 21.1196 130.345 20.7084C130.515 20.2972 130.603 19.8564 130.602 19.4113V18.9365H137.05C138.648 18.938 140.181 19.5726 141.312 20.7011C142.442 21.8295 143.078 23.3595 143.08 24.9554Z" fill="#2D914C"/>
<path opacity="0.81" d="M143.08 24.9554V115.99C143.079 117.587 142.443 119.118 141.312 120.246C140.18 121.375 138.646 122.009 137.047 122.009H96.7893C95.1908 122.008 93.6582 121.373 92.5282 120.244C91.3982 119.116 90.763 117.586 90.7622 115.99V24.9583C90.763 23.3619 91.3985 21.8312 92.5291 20.7021C93.6597 19.573 95.1929 18.938 96.7922 18.9365H102.921V19.4113C102.921 19.8563 103.009 20.2969 103.18 20.7079C103.35 21.119 103.6 21.4925 103.916 21.8071C104.231 22.1218 104.605 22.3713 105.017 22.5416C105.429 22.7119 105.87 22.7995 106.316 22.7995H127.208C127.654 22.7999 128.095 22.7125 128.507 22.5424C128.919 22.3723 129.294 22.1227 129.609 21.808C129.924 21.4933 130.174 21.1196 130.345 20.7084C130.515 20.2972 130.603 19.8564 130.602 19.4113V18.9365H137.05C138.648 18.938 140.181 19.5726 141.312 20.7011C142.442 21.8295 143.078 23.3595 143.08 24.9554Z" fill="url(#paint0_linear)"/>
<path opacity="0.17" d="M134.91 77.1355H102.408C100.764 77.1355 99.4307 78.4659 99.4307 80.1071V88.0662C99.4307 89.7074 100.764 91.0378 102.408 91.0378H134.91C136.554 91.0378 137.887 89.7074 137.887 88.0662V80.1071C137.887 78.4659 136.554 77.1355 134.91 77.1355Z" fill="white"/>
<path opacity="0.17" d="M134.91 96.6955H102.408C100.764 96.6955 99.4307 98.0259 99.4307 99.667V107.626C99.4307 109.267 100.764 110.598 102.408 110.598H134.91C136.554 110.598 137.887 109.267 137.887 107.626V99.667C137.887 98.0259 136.554 96.6955 134.91 96.6955Z" fill="white"/>
<path d="M152.983 85.051L139.192 71.8595C139.192 71.8595 134.172 75.8274 136.314 83.0087C138.456 90.19 145.423 98.8338 145.423 98.8338V118.644C145.423 118.644 145.502 125.089 138.967 125.089H94.8659C94.8659 125.089 98.7127 135.198 106.541 143.78C114.369 152.363 128.413 162.964 127.812 174H166C166 174 156.217 139.241 159.579 125.1C162.941 110.959 161.686 93.3685 152.983 85.051Z" fill="url(#paint1_linear)"/>
<path d="M94.609 57.9427C93.2139 57.6018 89.7173 55.1954 86.8687 52.623C85.0591 50.9915 83.5093 49.2931 82.9227 48.0112C81.4108 44.7134 81.1452 37.4913 86.8687 38.0448C86.8687 38.0448 89.2036 37.5146 94.609 45.5582C100.014 53.6019 96.8914 58.502 94.609 57.9427Z" fill="url(#paint2_linear)"/>
<path d="M95.724 71.3526C94.2647 71.2652 90.1785 69.4211 86.86 67.3265C84.9103 66.097 83.2116 64.7802 82.4411 63.679C80.3571 60.7074 78.7957 53.6514 84.5279 53.1707C84.5279 53.1707 85.1759 52.8794 86.8629 53.7534C88.2726 54.4788 90.4062 56.0024 93.497 59.1692C100.271 66.1116 98.0765 71.4925 95.724 71.3526Z" fill="url(#paint3_linear)"/>
<path d="M92.169 88.8033C91.2 88.5411 88.9848 86.866 86.8687 84.8499C84.8256 82.9126 82.8964 80.6606 82.2397 79.0496C80.8971 75.7575 80.4885 68.483 85.2343 68.9171C85.2343 68.9171 85.7392 68.7627 86.8687 69.6979C87.934 70.5719 89.5568 72.4364 91.8305 76.3169C96.5208 84.3081 94.0662 89.3131 92.169 88.8033Z" fill="url(#paint4_linear)"/>
<path d="M94.3464 103.268C93.1176 103.175 89.5451 101.38 86.8687 99.4631C85.6078 98.56 84.5338 97.6306 84.0172 96.8411C82.3827 94.3794 81.0985 88.5673 85.532 88.2265C85.532 88.2265 85.9085 88.0575 86.8687 88.4916C87.934 88.9723 89.7232 90.2017 92.5105 93.2403C97.7992 99.0057 96.1559 103.405 94.3464 103.268Z" fill="url(#paint5_linear)"/>
<path opacity="0.17" d="M134.91 38.0157H102.408C100.764 38.0157 99.4307 39.3461 99.4307 40.9873V48.9464C99.4307 50.5876 100.764 51.918 102.408 51.918H134.91C136.554 51.918 137.887 50.5876 137.887 48.9464V40.9873C137.887 39.3461 136.554 38.0157 134.91 38.0157Z" fill="white"/>
<path opacity="0.17" d="M134.91 57.5756H102.408C100.764 57.5756 99.4307 58.906 99.4307 60.5472V68.5063C99.4307 70.1475 100.764 71.4779 102.408 71.4779H134.91C136.554 71.4779 137.887 70.1475 137.887 68.5063V60.5472C137.887 58.906 136.554 57.5756 134.91 57.5756Z" fill="white"/>
<path opacity="0.81" d="M86.8687 38.0448V52.6113C85.0591 50.9799 83.5093 49.2814 82.9227 47.9996C81.4224 44.7134 81.1452 37.4913 86.8687 38.0448Z" fill="url(#paint6_linear)"/>
<path opacity="0.81" d="M86.8687 53.7505V67.3265C84.9191 66.0971 83.2204 64.7802 82.4498 63.679C80.3659 60.7074 78.8044 53.6514 84.5367 53.1707C84.5367 53.1707 85.1847 52.891 86.8687 53.7505Z" fill="url(#paint7_linear)"/>
<path opacity="0.81" d="M86.8687 69.6979V84.8471C84.8256 82.9097 82.8964 80.6577 82.2397 79.0467C80.8971 75.7546 80.4885 68.4801 85.2342 68.9142C85.2342 68.9171 85.7392 68.754 86.8687 69.6979Z" fill="url(#paint8_linear)"/>
<path opacity="0.81" d="M86.8687 88.4916V99.4631C85.6079 98.5599 84.5338 97.6306 84.0172 96.8411C82.3827 94.3794 81.0985 88.5673 85.532 88.2265C85.532 88.2265 85.9085 88.0575 86.8687 88.4916Z" fill="url(#paint9_linear)"/>
<path d="M82.5024 11.0705V123.912C82.5028 124.757 82.3363 125.594 82.0124 126.375C81.6886 127.156 81.2138 127.866 80.615 128.464C80.0163 129.062 79.3054 129.536 78.523 129.86C77.7406 130.183 76.9019 130.35 76.055 130.35H22.4038C21.5569 130.35 20.7183 130.183 19.9358 129.86C19.1534 129.536 18.4425 129.062 17.8438 128.464C17.2451 127.866 16.7702 127.156 16.4464 126.375C16.1225 125.594 15.9561 124.757 15.9564 123.912V11.0705C15.9561 10.2252 16.1225 9.38802 16.4464 8.60689C16.7702 7.82577 17.2451 7.11598 17.8438 6.51808C18.4425 5.92018 19.1534 5.44589 19.9358 5.12229C20.7183 4.7987 21.5569 4.63214 22.4038 4.63214H76.055C76.9019 4.63214 77.7406 4.7987 78.523 5.12229C79.3054 5.44589 80.0163 5.92018 80.615 6.51808C81.2138 7.11598 81.6886 7.82577 82.0124 8.60689C82.3363 9.38802 82.5028 10.2252 82.5024 11.0705Z" fill="#2D914C"/>
<path opacity="0.17" d="M32.412 4.63214V130.35H22.4038C21.5569 130.35 20.7183 130.183 19.9358 129.86C19.1534 129.536 18.4425 129.062 17.8438 128.464C17.2451 127.866 16.7702 127.156 16.4464 126.375C16.1225 125.594 15.9561 124.757 15.9564 123.912V11.0705C15.9561 10.2252 16.1225 9.38802 16.4464 8.60689C16.7702 7.82577 17.2451 7.11598 17.8438 6.51808C18.4425 5.92018 19.1534 5.44589 19.9358 5.12229C20.7183 4.7987 21.5569 4.63214 22.4038 4.63214H32.412Z" fill="white"/>
<path opacity="0.19" d="M72.4592 63.9791V84.3198C72.4592 85.1859 72.1145 86.0166 71.5009 86.629C70.8873 87.2415 70.0551 87.5856 69.1873 87.5856H15.9564V60.7162H69.1873C69.6169 60.7158 70.0423 60.7999 70.4392 60.9637C70.8362 61.1275 71.1969 61.3678 71.5007 61.6708C71.8046 61.9738 72.0456 62.3337 72.2101 62.7297C72.3745 63.1258 72.4592 63.5503 72.4592 63.9791Z" fill="url(#paint10_linear)"/>
<path d="M65.647 55.8189H3.9519C2.14491 55.8189 0.680061 57.2811 0.680061 59.0847V79.4254C0.680061 81.2291 2.14491 82.6912 3.9519 82.6912H65.647C67.454 82.6912 68.9188 81.2291 68.9188 79.4254V59.0847C68.9188 57.2811 67.454 55.8189 65.647 55.8189Z" fill="#2D914C"/>
<path opacity="0.19" d="M69.5405 30.881H27.0678C26.6558 30.881 26.2605 30.7178 25.9689 30.4273C25.6772 30.1367 25.513 29.7425 25.5122 29.3312C25.5122 28.9193 25.6761 28.5244 25.9678 28.2332C26.2596 27.942 26.6553 27.7784 27.0678 27.7784H69.5405C69.9531 27.7784 70.3488 27.942 70.6405 28.2332C70.9322 28.5244 71.0961 28.9193 71.0961 29.3312C71.0961 29.5349 71.0559 29.7367 70.9777 29.9249C70.8995 30.1132 70.7848 30.2842 70.6403 30.4281C70.4958 30.5721 70.3243 30.6862 70.1356 30.7639C69.9469 30.8416 69.7446 30.8814 69.5405 30.881Z" fill="url(#paint11_linear)"/>
<path opacity="0.19" d="M69.5405 40.4192H27.0678C26.6553 40.4192 26.2596 40.2556 25.9678 39.9644C25.6761 39.6732 25.5122 39.2782 25.5122 38.8664C25.513 38.4551 25.6772 38.0609 25.9689 37.7703C26.2605 37.4797 26.6558 37.3165 27.0678 37.3165H69.5405C69.7446 37.3161 69.9469 37.3559 70.1356 37.4337C70.3243 37.5114 70.4958 37.6255 70.6403 37.7694C70.7848 37.9134 70.8995 38.0844 70.9777 38.2726C71.0559 38.4608 71.0961 38.6626 71.0961 38.8664C71.0961 39.2782 70.9322 39.6732 70.6405 39.9644C70.3488 40.2556 69.9531 40.4192 69.5405 40.4192Z" fill="url(#paint12_linear)"/>
<path opacity="0.19" d="M69.5405 49.9515H27.0678C26.6558 49.9515 26.2605 49.7883 25.9689 49.4977C25.6772 49.2072 25.513 48.813 25.5122 48.4016C25.5122 47.9898 25.6761 47.5949 25.9678 47.3037C26.2596 47.0124 26.6553 46.8488 27.0678 46.8488H69.5405C69.9531 46.8488 70.3488 47.0124 70.6405 47.3037C70.9322 47.5949 71.0961 47.9898 71.0961 48.4016C71.0961 48.6054 71.0559 48.8072 70.9777 48.9954C70.8995 49.1837 70.7848 49.3546 70.6403 49.4986C70.4958 49.6426 70.3243 49.7567 70.1356 49.8344C69.9469 49.9121 69.7446 49.9519 69.5405 49.9515Z" fill="url(#paint13_linear)"/>
<path opacity="0.19" d="M21.1692 62.636V75.0088C21.169 75.6269 20.9297 76.2211 20.5011 76.6673C20.0726 77.1135 19.488 77.3773 18.8693 77.4036C18.8343 77.4065 18.7992 77.4065 18.7642 77.4036H6.36857C5.73073 77.4036 5.11901 77.1506 4.66798 76.7004C4.21696 76.2503 3.96358 75.6397 3.96358 75.003V62.636C3.96358 62.3209 4.0258 62.0089 4.1467 61.7178C4.2676 61.4267 4.4448 61.1623 4.66816 60.9396C4.89152 60.7169 5.15667 60.5404 5.44844 60.42C5.74021 60.2997 6.05288 60.238 6.36857 60.2384H18.7642C19.0799 60.238 19.3926 60.2997 19.6843 60.42C19.9761 60.5404 20.2413 60.7169 20.4646 60.9396C20.688 61.1623 20.8652 61.4267 20.9861 61.7178C21.107 62.0089 21.1692 62.3209 21.1692 62.636Z" fill="url(#paint14_linear)"/>
<path opacity="0.17" d="M19.1436 75.5245C19.144 76.157 19.0516 76.7862 18.8693 77.3919C18.8343 77.3948 18.7992 77.3948 18.7642 77.3919H6.45029C5.96709 75.7861 6.12578 74.0559 6.89308 72.5643C7.66037 71.0727 8.97662 69.9358 10.5656 69.392C9.8991 69.0158 9.37365 68.433 9.06893 67.7318C8.76422 67.0307 8.69687 66.2494 8.87709 65.5066C9.05731 64.7638 9.47527 64.0999 10.0676 63.6156C10.6599 63.1313 11.3943 62.853 12.1594 62.8229C12.9245 62.7928 13.6786 63.0125 14.3073 63.4487C14.936 63.885 15.405 64.514 15.6433 65.2403C15.8816 65.9667 15.8761 66.7507 15.6276 67.4737C15.3791 68.1966 14.9013 68.8189 14.2665 69.2463C15.6628 69.6031 16.9002 70.4139 17.7834 71.5508C18.6666 72.6877 19.1452 74.0859 19.1436 75.5245Z" fill="white"/>
</g>
<defs>
<linearGradient id="paint0_linear" x1="117.538" y1="-55.4489" x2="116.581" y2="139.308" gradientUnits="userSpaceOnUse">
<stop/>
<stop offset="0.97" stop-opacity="0.1"/>
</linearGradient>
<linearGradient id="paint1_linear" x1="94.8659" y1="122.93" x2="166" y2="122.93" gradientUnits="userSpaceOnUse">
<stop stop-color="#ECC4D7"/>
<stop offset="0.42" stop-color="#EFD4D1"/>
<stop offset="1" stop-color="#F2EAC9"/>
</linearGradient>
<linearGradient id="paint2_linear" x1="6823.55" y1="3328.48" x2="7658.05" y2="3328.48" gradientUnits="userSpaceOnUse">
<stop stop-color="#ECC4D7"/>
<stop offset="0.42" stop-color="#EFD4D1"/>
<stop offset="1" stop-color="#F2EAC9"/>
</linearGradient>
<linearGradient id="paint3_linear" x1="7546.48" y1="3948.04" x2="8593.18" y2="3948.04" gradientUnits="userSpaceOnUse">
<stop stop-color="#ECC4D7"/>
<stop offset="0.42" stop-color="#EFD4D1"/>
<stop offset="1" stop-color="#F2EAC9"/>
</linearGradient>
<linearGradient id="paint4_linear" x1="5747.38" y1="5467.17" x2="6343.09" y2="5467.17" gradientUnits="userSpaceOnUse">
<stop stop-color="#ECC4D7"/>
<stop offset="0.42" stop-color="#EFD4D1"/>
<stop offset="1" stop-color="#F2EAC9"/>
</linearGradient>
<linearGradient id="paint5_linear" x1="5977.57" y1="5042.46" x2="6610.44" y2="5042.46" gradientUnits="userSpaceOnUse">
<stop stop-color="#ECC4D7"/>
<stop offset="0.42" stop-color="#EFD4D1"/>
<stop offset="1" stop-color="#F2EAC9"/>
</linearGradient>
<linearGradient id="paint6_linear" x1="1999.27" y1="2339.9" x2="2229.99" y2="2336.83" gradientUnits="userSpaceOnUse">
<stop/>
<stop offset="0.97" stop-opacity="0.1"/>
</linearGradient>
<linearGradient id="paint7_linear" x1="2578.65" y1="3016.51" x2="2877.68" y2="3011.2" gradientUnits="userSpaceOnUse">
<stop/>
<stop offset="0.97" stop-opacity="0.1"/>
</linearGradient>
<linearGradient id="paint8_linear" x1="2280.77" y1="4308" x2="2542.51" y2="4304.38" gradientUnits="userSpaceOnUse">
<stop/>
<stop offset="0.97" stop-opacity="0.1"/>
</linearGradient>
<linearGradient id="paint9_linear" x1="1832.92" y1="3738.44" x2="2040.06" y2="3735.22" gradientUnits="userSpaceOnUse">
<stop/>
<stop offset="0.97" stop-opacity="0.1"/>
</linearGradient>
<linearGradient id="paint10_linear" x1="39.7291" y1="67.6935" x2="53.8808" y2="91.9433" gradientUnits="userSpaceOnUse">
<stop stop-color="#183866"/>
<stop offset="1" stop-color="#1A7FC1"/>
</linearGradient>
<linearGradient id="paint11_linear" x1="14045.3" y1="214.962" x2="14047.7" y2="372.972" gradientUnits="userSpaceOnUse">
<stop stop-color="#183866"/>
<stop offset="1" stop-color="#1A7FC1"/>
</linearGradient>
<linearGradient id="paint12_linear" x1="13729.4" y1="229.279" x2="13731.8" y2="387.288" gradientUnits="userSpaceOnUse">
<stop stop-color="#183866"/>
<stop offset="1" stop-color="#1A7FC1"/>
</linearGradient>
<linearGradient id="paint13_linear" x1="13413.5" y1="243.59" x2="13415.9" y2="401.599" gradientUnits="userSpaceOnUse">
<stop stop-color="#183866"/>
<stop offset="1" stop-color="#1A7FC1"/>
</linearGradient>
<linearGradient id="paint14_linear" x1="1679.28" y1="4115.17" x2="1685.3" y2="4115.17" gradientUnits="userSpaceOnUse">
<stop stop-color="#183866"/>
<stop offset="1" stop-color="#1A7FC1"/>
</linearGradient>
<clipPath id="clip0">
<rect width="166" height="174" fill="white"/>
</clipPath>
</defs>
</svg>
