<svg width="44" height="40" viewBox="0 0 44 40" fill="none" xmlns="http://www.w3.org/2000/svg">
<path d="M18.3786 9.87905C19.9322 9.63018 21.5221 9.74227 23.0254 10.2067C24.5286 10.671 25.9048 11.4752 27.0472 12.5569C28.1897 13.6387 29.0678 14.9689 29.6136 16.4445C30.1593 17.9202 30.3581 19.5016 30.1944 21.0664" stroke="#2D914C" stroke-width="1.5"/>
<path d="M34.1421 34.1421C30.5866 37.6977 25.8221 39.7835 20.7978 39.9841C15.7734 40.1847 10.8579 38.4853 7.03016 35.2244C3.20247 31.9636 0.743529 27.3806 0.143098 22.3882C-0.457334 17.3958 0.844805 12.3604 3.79016 8.285C6.73552 4.20956 11.108 1.39312 16.0366 0.39665C20.9652 -0.599823 26.0884 0.296794 30.3856 2.90792C34.6829 5.51905 37.8389 9.65306 39.225 14.4866C40.6112 19.3201 40.1258 24.4984 37.8655 28.9901L35.7428 27.9219C37.7345 23.9639 38.1622 19.4009 36.9407 15.1417C35.7193 10.8825 32.9382 7.23967 29.1516 4.9388C25.3649 2.63793 20.8505 1.84784 16.5075 2.72592C12.1645 3.60399 8.31161 6.08578 5.71621 9.67697C3.12082 13.2682 1.9734 17.7052 2.50249 22.1044C3.03158 26.5036 5.19835 30.5421 8.57124 33.4155C11.9441 36.2889 16.2756 37.7863 20.703 37.6096C25.1303 37.4328 29.3287 35.5949 32.4618 32.4618L34.1421 34.1421Z" fill="#2D914C"/>
<path d="M35.2803 29.711C35.3969 30.1085 35.8136 30.3363 36.211 30.2197L42.6883 28.3203C43.0858 28.2038 43.3135 27.7871 43.197 27.3896C43.0804 26.9921 42.6637 26.7644 42.2662 26.8809L36.5087 28.5693L34.8203 22.8117C34.7038 22.4142 34.2871 22.1865 33.8896 22.303C33.4921 22.4196 33.2644 22.8363 33.3809 23.2338L35.2803 29.711ZM36.1616 27.6403L35.3419 29.1403L36.6581 29.8597L37.4779 28.3597L36.1616 27.6403Z" fill="#2D914C"/>
<path d="M20 30.25C17.9296 30.25 15.9078 29.623 14.2007 28.4517C12.4936 27.2803 11.1812 25.6194 10.4363 23.6877" stroke="#2D914C" stroke-width="1.5"/>
</svg>
