<svg width="173" height="161" viewBox="0 0 173 161" fill="none" xmlns="http://www.w3.org/2000/svg">
<g clip-path="url(#clip0)">
<path opacity="0.18" d="M171.07 123.004C169.687 128.802 167.696 134.543 164.176 139.352C158.822 146.666 150.45 151.131 142.056 154.556C135.137 157.377 127.866 159.684 120.392 159.808C110.243 159.978 100.396 156.126 90.2432 155.861C78.2351 155.55 66.612 160.264 54.6329 160.943C41.9976 161.613 29.5297 157.812 19.4159 150.207C17.1458 148.491 15.0251 146.586 13.0764 144.512C8.82221 140.054 5.52731 134.771 3.39538 128.989C2.3546 126.062 1.59209 123.043 1.11797 119.972C0.322951 115.06 0.111773 110.032 0.0289585 105.037C-0.231908 89.2234 1.09727 72.271 10.828 59.8042C14.2441 55.4304 18.5463 51.8353 22.803 48.2775L46.31 28.6496C52.459 23.5137 58.6369 18.3613 65.4899 14.2112C73.0674 9.62627 81.353 6.34182 89.6593 3.26861C93.3446 1.9101 97.0878 0.572296 100.997 0.149833C109.56 -0.77793 117.999 2.78816 125.344 7.28615C132.234 11.5025 138.864 16.9738 141.7 24.5533C144.085 30.8986 143.526 37.952 144.934 44.5913C147.87 58.4539 159.112 68.5724 166.102 80.4428C173.691 93.332 174.482 108.619 171.07 123.004Z" fill="#2D914C"/>
<path d="M63.3947 43.9901C62.9325 44.0327 62.4898 44.1969 62.1117 44.4661C61.7335 44.7352 61.4333 45.0997 61.2415 45.5225C60.872 46.3809 60.8322 47.3454 61.1297 48.2313C61.2768 48.5649 61.3476 48.9271 61.3368 49.2916C61.261 49.5947 61.1197 49.8775 60.9227 50.1199C60.1881 51.117 59.7697 52.3117 59.7219 53.5493C59.7219 54.7919 60.4299 56.0551 61.5852 56.4693C60.8481 58.0183 60.8274 60.0064 61.9082 61.3401C62.9889 62.6737 65.2787 62.9678 66.4216 61.688C66.7319 62.2637 67.2107 62.7306 67.794 63.0262C68.3772 63.3219 69.0369 63.432 69.6845 63.3418C70.332 63.2517 70.9366 62.9656 71.4169 62.5219C71.8973 62.0782 72.2305 61.4982 72.3718 60.8596C73.4567 61.4685 74.9308 60.959 75.643 59.9401C75.9715 59.4107 76.1764 58.814 76.2423 58.1944C76.3083 57.5748 76.2337 56.9484 76.024 56.3616C75.5967 55.1906 74.9644 54.105 74.1565 53.1559C75.0426 52.4849 75.9701 51.7684 76.3925 50.7412C76.8148 49.714 76.5084 48.2934 75.4732 47.8958C75.8896 47.2652 76.1156 46.5281 76.1243 45.7725C76.133 45.0168 75.9239 44.2747 75.5221 43.6347C75.1204 42.9948 74.5429 42.4841 73.8586 42.1637C73.1744 41.8433 72.4124 41.7268 71.6638 41.828C70.8646 41.9192 70.2683 42.3872 69.4774 42.0434C68.8646 41.7742 68.4878 40.9624 67.9785 40.5441C65.7177 38.7051 62.0034 41.1115 63.3947 43.9901Z" fill="#2D914C"/>
<path d="M122.98 87.9014C122.534 98.2691 118.102 108.064 110.61 115.242C103.118 122.42 93.1438 126.428 82.7692 126.428C72.3945 126.428 62.4206 122.42 54.9285 115.242C47.4364 108.064 43.0048 98.2691 42.5585 87.9014H122.98Z" fill="#2D914C"/>
<path d="M106.533 87.9014C106.533 87.9014 100.62 119.499 94.2846 120.646C87.9492 121.794 106.533 123.094 115.887 108.838C124.023 96.4418 122.98 87.9014 122.98 87.9014H106.533Z" fill="url(#paint0_linear)"/>
<path d="M53.6805 88.1209C53.6805 88.1209 56.9475 117.971 76.3966 120.941C95.8456 123.91 101.191 121.537 101.191 121.537C101.191 121.537 89.1832 133.416 72.8314 128.959C56.4796 124.502 47.3742 107.037 47.3742 107.037C47.3742 107.037 42.1071 92.4325 42.5502 87.9014L53.6805 88.1209Z" fill="url(#paint1_linear)"/>
<path d="M67.0261 90.9373C67.1089 90.8214 67.229 90.6184 67.3739 90.4362C67.7632 89.9102 68.1565 89.9309 68.405 90.5521C68.8191 91.5586 69.2994 92.5775 68.9971 93.7082C68.8609 94.045 68.6858 94.3647 68.4754 94.6608C67.8418 95.804 66.3719 96.595 66.9847 98.2559C67.0121 98.3337 67.0225 98.4164 67.0154 98.4985C67.0082 98.5807 66.9837 98.6603 66.9433 98.7322C66.4216 99.4984 66.757 100.074 67.2207 100.737C67.8667 101.66 68.3222 102.721 68.9847 103.636C69.9329 104.928 70.4795 106.535 71.9122 107.442C72.6078 107.881 73.3656 108.242 74.0198 108.731C74.3695 109.001 74.6117 109.387 74.703 109.82C74.8604 110.963 74.8604 112.127 74.9805 113.278C75.0757 114.202 75.2952 115.121 75.3945 116.045C75.4884 116.567 75.4771 117.102 75.3614 117.619C75.0938 118.373 75.0865 119.196 75.3407 119.955C75.5643 120.634 75.7548 121.326 75.9577 122.026C76.5622 123.927 79.3779 125.339 81.3779 124.739L79.2496 123.666C79.6347 123.252 79.9328 122.949 80.2682 122.597L79.3862 122.067L80.2144 121.57C80.1233 121.177 80.0322 120.771 79.9245 120.274L81.1667 120.473C81.2123 120.137 81.2537 119.851 81.3034 119.503C82.0943 119.425 82.8893 119.358 83.7878 119.276C83.6967 118.745 83.6098 118.253 83.5187 117.76C84.8686 118.145 85.6884 117.822 86.5787 116.674C86.9765 116.233 87.4025 115.818 87.854 115.432C88.4379 114.848 89.0962 114.31 89.0962 113.361C89.0962 113.216 89.4399 113.021 89.6552 112.926C90.7277 112.479 91.6594 111.659 92.9678 111.766C93.1625 111.766 93.4564 111.493 93.5765 111.269C94.1935 110.081 94.7898 108.871 95.3653 107.662C95.4548 107.428 95.4763 107.174 95.4274 106.929C95.3446 106.316 95.208 105.711 96.0403 105.483C96.1645 105.446 96.2473 105.235 96.3467 105.102C96.8477 104.394 97.3322 103.669 97.8622 102.986C98.2763 102.464 98.3756 100.989 97.9657 100.501C97.8829 100.405 97.7173 100.29 97.6344 100.31C96.7732 100.55 96.297 99.9416 95.7877 99.4819C95.5918 99.2899 95.3502 99.151 95.0857 99.0785C94.8213 99.0061 94.5426 99.0023 94.2763 99.0677C93.8374 99.1505 93.3405 98.873 92.8809 98.9227C91.9368 99.018 91.4109 98.3843 90.7484 97.908C90.2349 97.5435 89.56 97.2204 88.9803 97.9784C88.1522 97.4607 87.5269 96.8353 87.4275 95.8495C87.4081 95.2535 87.1914 94.6808 86.8115 94.2213C86.4315 93.7618 85.9098 93.4415 85.3282 93.3106C84.8065 93.1769 84.2644 93.1418 83.7299 93.207C83.4772 93.2646 83.2133 93.247 82.9705 93.1565C82.7278 93.066 82.5168 92.9065 82.3634 92.6976C81.85 92.0432 81.3986 91.2811 80.4421 91.1071C80.2889 91.1071 80.0901 90.8089 80.057 90.6226C80.0324 90.3988 79.9398 90.1879 79.7918 90.0183C79.6437 89.8487 79.4473 89.7286 79.2289 89.6741C79.0032 89.6031 78.7719 89.5519 78.5374 89.5208C78.2627 89.4816 77.9839 89.4816 77.7092 89.5208C77.169 89.6002 76.6182 89.5676 76.0911 89.4251C75.564 89.2826 75.0718 89.0332 74.6451 88.6925C73.2952 87.657 71.0551 88.1955 70.0903 89.5995L70.0489 89.6575C69.846 89.9474 69.6348 90.2415 69.4112 90.5521C69.1341 90.3084 68.8362 90.0894 68.5209 89.8977C68.082 89.6782 67.6472 89.4836 67.1503 89.9184C66.9992 89.9856 66.8337 90.0139 66.6688 90.0009C66.504 89.9879 66.345 89.9339 66.2063 89.8439C66.1317 89.7818 66.7528 87.9759 66.6907 87.9138H63.933C63.9703 88.0339 65.1752 89.906 65.2125 89.9847L67.0261 90.9373Z" fill="url(#paint2_linear)"/>
<path d="M108.823 118.903C108.057 120.518 106.752 121.802 105.423 122.995C102.279 125.908 98.8322 128.477 95.1417 130.657C92.93 131.948 90.6024 133.03 88.1894 133.888C77.262 137.723 65.2249 136.244 53.8875 133.888C48.2023 132.707 42.3266 131.316 36.6538 132.546C32.9271 133.354 29.5441 135.238 26.2191 137.102L13.0599 144.491C10.813 142.116 8.82149 139.511 7.1179 136.721C5.61933 134.275 4.37081 131.684 3.39124 128.988C2.35046 126.061 1.58795 123.042 1.11383 119.971C3.34155 118.915 6.99368 119.23 9.05162 118.841C13.536 117.987 17.9252 116.67 22.302 115.357L34.4509 111.704C36.7366 111.017 39.0057 110.329 41.2376 109.447C43.2831 108.619 45.2665 107.645 47.3824 107.037C50.7571 106.063 54.3223 106.08 57.8295 106.096L75.2662 106.2C75.5997 106.171 75.9348 106.234 76.2351 106.382C77.0177 106.871 76.6492 108.093 76.0736 108.809C73.6637 111.841 69.5271 112.831 65.6845 113.22C64.5458 113.336 63.3698 113.427 62.3512 113.941C61.3326 114.454 60.4879 115.523 60.6245 116.658C60.8191 118.373 62.8564 119.11 64.5458 119.454C69.4926 120.439 74.478 121.195 79.5021 121.719C82.3054 122.005 85.146 122.208 87.9327 121.79C95.3032 120.688 101.448 115.395 108.723 113.788C109.73 115.266 109.589 117.292 108.823 118.903Z" fill="#FAAF90"/>
<path d="M82.645 90.6805C104.816 90.6805 122.789 89.5346 122.789 88.1209C122.789 86.7073 104.816 85.5613 82.645 85.5613C60.4738 85.5613 42.5005 86.7073 42.5005 88.1209C42.5005 89.5346 60.4738 90.6805 82.645 90.6805Z" fill="#3E3E54"/>
<path d="M70.906 82.1526C73.0545 81.6864 75.2366 81.3914 77.4318 81.2704C80.4131 81.0509 83.4359 80.91 86.3675 81.4982C88.304 81.9498 90.2076 82.5324 92.0651 83.2419C99.9094 85.961 108.035 87.7867 116.288 88.6842C100.752 89.2143 85.2081 88.6842 69.6886 87.9262C67.563 87.8185 65.4388 87.7067 63.316 87.5908C61.6928 87.5038 58.8937 87.8641 57.4941 87.1517C58.4134 85.6814 61.8668 85.3252 63.4113 84.7412C65.8874 83.8134 68.3222 82.7697 70.906 82.1526Z" fill="#3E3E54"/>
<path d="M73.0178 82.778C73.0178 82.778 72.0157 60.0561 67.2208 52.0376L68.6659 51.3707C68.6659 51.3707 75.4608 82.6661 75.5726 83.0016C75.6844 83.3371 74.6865 84.3353 73.0178 82.778Z" fill="#3E3E54"/>
<path d="M87.3696 44.1226C86.9224 43.9986 86.4504 43.9954 86.0016 44.1133C85.5528 44.2311 85.1433 44.4659 84.8147 44.7936C84.1673 45.4633 83.7885 46.3478 83.7505 47.2786C83.7708 47.644 83.7086 48.0092 83.5684 48.3472C83.3919 48.6085 83.16 48.8277 82.8893 48.9892C81.8494 49.6628 81.0346 50.6321 80.5498 51.7725C80.1357 52.928 80.3262 54.3652 81.262 55.1646C80.0197 56.3492 79.2993 58.2005 79.8334 59.8324C80.3676 61.4643 82.4131 62.5494 83.9327 61.7542C84.0187 62.4029 84.3011 63.0097 84.7419 63.4931C85.1827 63.9766 85.7609 64.3135 86.3987 64.4587C87.0366 64.6039 87.7036 64.5504 88.3101 64.3053C88.9167 64.0603 89.4338 63.6354 89.7919 63.0879C90.591 64.0405 92.1521 64.086 93.179 63.3861C93.674 63.0071 94.077 62.5212 94.3581 61.9647C94.6391 61.4082 94.7909 60.7954 94.8022 60.172C94.8165 58.9266 94.6104 57.6885 94.1935 56.5148C95.2577 56.2042 96.3798 55.8604 97.1375 55.0486C97.8953 54.2368 98.1148 52.8038 97.2825 52.0624C97.9004 51.6218 98.3778 51.0119 98.657 50.3061C98.9362 49.6003 99.0054 48.8287 98.8561 48.0845C98.7069 47.3403 98.3456 46.6551 97.8158 46.1116C97.2861 45.5681 96.6105 45.1895 95.8705 45.0214C95.092 44.8225 94.3674 45.0503 93.7504 44.4498C93.2742 43.9818 93.2121 43.0871 92.8809 42.5156C91.4151 40.0056 87.0921 40.9375 87.3696 44.1226Z" fill="#2D914C"/>
<path d="M88.0818 63.0175C88.0528 62.2554 88.0321 61.4436 88.4213 60.7892C88.6664 60.4231 88.9699 60.0999 89.3198 59.8324C89.8882 59.3202 90.5117 58.8729 91.179 58.4987C91.8537 58.1259 92.6306 57.9806 93.3943 58.0846C92.5455 58.8632 91.324 59.1242 90.4378 59.8448C89.4228 60.7131 88.6377 61.8185 88.1522 63.063C87.4772 65.2954 87.4441 67.9918 87.0963 70.307C86.7484 72.6223 86.4006 75.008 86.0487 77.3481C85.6843 79.8332 85.0466 82.4052 84.9472 84.9069C84.9472 85.2589 83.6388 85.8429 82.6284 83.7927C83.8706 80.0651 84.8975 76.2671 85.8333 72.4608C86.6242 69.2177 87.324 65.9416 87.8085 62.6364C88.0279 61.1454 88.4006 59.4472 88.3219 57.9396C88.235 56.345 86.5538 54.7836 85.2122 54.1002C85.1211 54.0505 85.0259 54.0049 84.9307 53.9635C84.7899 54.0629 84.8975 54.2865 85.0135 54.4191C86.0321 55.5539 87.4027 56.461 87.9368 57.8899C88.0776 58.2668 88.1522 58.6644 88.2805 59.0455C88.1977 58.8011 88.4958 58.0887 88.4586 57.7367C88.3911 57.2674 88.3551 56.7942 88.3509 56.3202C88.3683 55.2106 88.2865 54.1017 88.1066 53.0067L89.6967 52.8949C89.6967 52.8949 89.0259 57.368 88.1977 62.9719" fill="#3E3E54"/>
<path d="M105.332 47.1792C104.885 47.0548 104.413 47.0514 103.964 47.1693C103.515 47.2872 103.106 47.5221 102.777 47.8502C102.13 48.52 101.751 49.4044 101.713 50.3353C101.732 50.7006 101.669 51.0654 101.531 51.4039C101.354 51.6652 101.123 51.8844 100.852 52.0458C99.8125 52.7184 98.9979 53.6861 98.5123 54.825C98.0982 55.9847 98.2846 57.4219 99.2245 58.2213C97.9823 59.4058 97.2618 61.2572 97.7959 62.8891C98.3301 64.521 100.376 65.6061 101.895 64.8109C101.981 65.4595 102.264 66.0663 102.704 66.5498C103.145 67.0333 103.723 67.3702 104.361 67.5154C104.999 67.6606 105.666 67.6071 106.273 67.362C106.879 67.117 107.396 66.6921 107.754 66.1445C108.554 67.0972 110.115 67.1427 111.142 66.4428C111.635 66.0625 112.037 65.5764 112.318 65.0202C112.599 64.4639 112.752 63.8518 112.765 63.2287C112.778 61.983 112.57 60.7449 112.152 59.5715C113.22 59.2609 114.338 58.9171 115.1 58.1053C115.862 57.2935 116.073 55.8605 115.245 55.1191C115.863 54.6785 116.34 54.0685 116.62 53.3627C116.899 52.6569 116.968 51.8854 116.819 51.1412C116.669 50.3969 116.308 49.7118 115.778 49.1683C115.249 48.6248 114.573 48.2461 113.833 48.078C113.055 47.8792 112.33 48.107 111.713 47.5064C111.233 47.0384 111.171 46.1438 110.843 45.5722C109.378 43.0664 105.055 43.9942 105.332 47.1792Z" fill="#2D914C"/>
<path d="M106.044 66.0741C106.015 65.312 105.995 64.5002 106.38 63.8458C106.626 63.4797 106.931 63.1565 107.282 62.8891C107.851 62.3769 108.474 61.9296 109.142 61.5554C109.816 61.1823 110.593 61.037 111.357 61.1412C110.508 61.9199 109.286 62.1808 108.4 62.9015C107.385 63.7707 106.599 64.8757 106.111 66.1197C105.44 68.3521 105.407 71.0484 105.059 73.3637C104.711 75.679 104.359 78.0646 104.011 80.4048C103.647 82.8898 103.009 85.4619 102.906 87.9635C102.906 88.3156 101.601 88.8996 100.591 86.8494C101.833 83.1218 102.86 79.3237 103.792 75.5174C104.587 72.2744 105.287 68.9982 105.771 65.6931C105.986 64.202 106.363 62.5039 106.28 60.9963C106.198 59.4017 104.512 57.8402 103.175 57.1568C103.084 57.1071 102.988 57.0616 102.893 57.0202C102.752 57.1196 102.856 57.3432 102.976 57.4757C103.995 58.6106 105.365 59.5177 105.899 60.9466C106.04 61.3235 106.115 61.7211 106.243 62.1021C106.16 61.8578 106.458 61.1454 106.417 60.7933C106.354 60.3237 106.318 59.8507 106.309 59.3768C106.331 58.2672 106.249 57.1579 106.065 56.0634L107.659 55.9516C107.659 55.9516 106.988 60.4247 106.152 66.0286" fill="#3E3E54"/>
<path d="M93.3156 64.7446C93.0661 64.6752 92.8026 64.6735 92.5523 64.7398C92.3019 64.806 92.0738 64.9378 91.8912 65.1215C91.528 65.4962 91.3157 65.9917 91.2949 66.5132C91.3052 66.7172 91.2698 66.9209 91.1914 67.1096C91.0936 67.2558 90.965 67.3787 90.8146 67.4699C90.2336 67.8457 89.7779 68.3866 89.5061 69.0231C89.3805 69.3449 89.3528 69.6967 89.4264 70.0342C89.5001 70.3717 89.6719 70.6799 89.9202 70.92C89.5607 71.2389 89.2962 71.6509 89.1559 72.1106C89.0156 72.5703 89.005 73.0599 89.1252 73.5252C89.4233 74.4364 90.562 75.0453 91.4109 74.6021C91.4603 74.9639 91.619 75.3021 91.8657 75.5713C92.1125 75.8405 92.4355 76.0279 92.7916 76.1085C93.1477 76.1891 93.5199 76.1591 93.8585 76.0224C94.1971 75.8856 94.4858 75.6488 94.6862 75.3435C94.9301 75.5919 95.2544 75.7454 95.6011 75.7765C95.9478 75.8077 96.2943 75.7143 96.5785 75.5133C96.854 75.3011 97.0785 75.0299 97.2354 74.7195C97.3923 74.4092 97.4777 74.0676 97.4853 73.7199C97.4922 73.0233 97.3773 72.3309 97.1458 71.6738C97.7621 71.5509 98.334 71.2649 98.8021 70.8455C99.2162 70.394 99.3445 69.6029 98.8849 69.1888C99.2258 68.9406 99.4884 68.5999 99.6415 68.2069C99.7945 67.8139 99.8316 67.3853 99.7483 66.9718C99.6651 66.5584 99.4649 66.1776 99.1717 65.8746C98.8784 65.5715 98.5044 65.359 98.094 65.2623C97.6593 65.1505 97.2659 65.2623 96.9098 64.9434C96.6406 64.6825 96.6075 64.1813 96.4212 63.8624C95.5765 62.4459 93.1666 62.9678 93.3156 64.7446Z" fill="#2D914C"/>
<path d="M93.7132 75.302C93.6575 74.8782 93.7236 74.4472 93.9037 74.0595C94.0384 73.8537 94.208 73.6729 94.4047 73.5252C94.7212 73.2374 95.07 72.9873 95.444 72.7797C95.822 72.5698 96.258 72.4884 96.6862 72.5477C96.2142 72.9619 95.5351 73.1276 95.0299 73.5294C94.4635 74.0154 94.0243 74.6325 93.7505 75.3269C93.3778 76.5694 93.3571 78.0812 93.1625 79.3734L92.5786 83.3123C92.3757 84.6957 92.0196 86.1411 91.9616 87.5369C91.9616 87.7357 91.2329 88.0588 90.6697 86.9157C91.353 84.8448 91.9368 82.7117 92.4585 80.5828C92.9016 78.7729 93.2867 76.9422 93.56 75.095C93.7393 74.2323 93.835 73.3543 93.8457 72.4732C93.8001 71.5827 92.8602 70.7088 92.1107 70.3277L91.9534 70.249C91.8747 70.307 91.9534 70.4313 91.9989 70.5058C92.5703 71.1395 93.3364 71.6448 93.6345 72.4442C93.7132 72.6554 93.7546 72.8584 93.825 73.0903C93.7794 72.9536 93.9451 72.556 93.9244 72.3614C93.8867 72.0979 93.866 71.8323 93.8622 71.5661C93.8748 70.9447 93.8291 70.3235 93.7256 69.7106L94.6159 69.6485L93.7877 75.2772" fill="#3E3E54"/>
<path d="M115.402 65.1008C115.154 64.9893 114.881 64.9455 114.61 64.9738C114.34 65.0022 114.082 65.1017 113.862 65.2623C113.428 65.5957 113.133 66.0783 113.034 66.6167C113.011 66.8288 112.943 67.0335 112.835 67.2172C112.711 67.3557 112.557 67.4635 112.384 67.532C111.722 67.8317 111.164 68.3219 110.781 68.9402C110.599 69.2523 110.512 69.6114 110.533 69.9725C110.553 70.3336 110.68 70.6805 110.897 70.9697C110.473 71.2439 110.132 71.6298 109.913 72.0851C109.694 72.5403 109.605 73.0473 109.655 73.5501C109.825 74.5441 110.897 75.3517 111.862 75.0245C111.855 75.408 111.966 75.7843 112.179 76.103C112.392 76.4217 112.698 76.6677 113.055 76.8078C113.411 76.948 113.803 76.9757 114.176 76.8872C114.549 76.7987 114.886 76.5982 115.141 76.3126C115.357 76.6078 115.669 76.8171 116.024 76.9036C116.379 76.99 116.753 76.9479 117.079 76.7848C117.403 76.6094 117.682 76.3634 117.897 76.0651C118.112 75.7668 118.257 75.4239 118.322 75.0618C118.437 74.3406 118.426 73.6048 118.288 72.8874C118.942 72.858 119.576 72.6535 120.123 72.2951C120.636 71.8809 120.885 71.0815 120.471 70.5804C120.864 70.3771 121.191 70.065 121.412 69.6811C121.634 69.2972 121.74 68.8578 121.718 68.4153C121.697 67.9727 121.549 67.5456 121.292 67.1849C121.035 66.8241 120.679 66.545 120.268 66.3806C119.854 66.1984 119.394 66.2688 119.092 65.8629C118.852 65.5481 118.897 65.0345 118.756 64.6659C118.106 63.0672 115.527 63.2287 115.402 65.1008Z" fill="#2D914C"/>
<path d="M114.156 76.1138C114.167 75.6714 114.302 75.2409 114.545 74.8713C114.72 74.6793 114.926 74.5182 115.154 74.395C115.527 74.1481 115.927 73.9439 116.346 73.7861C116.77 73.6285 117.234 73.6125 117.667 73.7406C117.108 74.1175 116.384 74.1548 115.8 74.5027C115.134 74.9133 114.581 75.4825 114.189 76.1594C113.601 77.4019 113.361 78.951 112.947 80.2639L111.705 84.2608C111.291 85.6648 110.678 87.1062 110.4 88.5475C110.363 88.7505 109.572 88.9617 109.158 87.7192C110.197 85.6483 111.137 83.5566 112.011 81.4278C112.756 79.6178 113.448 77.783 114.019 75.9067C114.341 75.0384 114.578 74.141 114.727 73.227C114.819 72.2992 113.982 71.2431 113.266 70.7419L113.113 70.6384C113.021 70.6839 113.063 70.8248 113.113 70.9117C113.605 71.6573 114.317 72.3034 114.504 73.1814C114.549 73.4092 114.558 73.6495 114.599 73.8814C114.574 73.7323 114.81 73.343 114.819 73.1359C114.821 72.8587 114.842 72.582 114.881 72.3075C114.988 71.6644 115.038 71.0129 115.03 70.3609L115.961 70.4354L114.206 76.147" fill="#3E3E54"/>
<path d="M49.3659 65.1008C49.0785 65.1263 48.8028 65.2265 48.566 65.3914C48.3293 65.5563 48.1397 65.7802 48.016 66.041C47.7794 66.5725 47.7469 67.1727 47.9249 67.7267C48.0146 67.9372 48.057 68.1648 48.0491 68.3935C48.0005 68.5841 47.9116 68.7621 47.7883 68.9154C47.3245 69.5323 47.0549 70.2735 47.014 71.0443C47.0007 71.4301 47.1023 71.8112 47.3057 72.1393C47.5092 72.4674 47.8054 72.7278 48.1568 72.8874C47.9007 73.3591 47.7806 73.8928 47.8098 74.4288C47.8391 74.9648 48.0165 75.4822 48.3224 75.9233C48.985 76.7517 50.3928 76.9629 51.134 76.1718C51.3208 76.5381 51.6161 76.8378 51.9796 77.0298C52.3431 77.2219 52.757 77.297 53.1648 77.2449C53.5726 77.1928 53.9544 77.016 54.2579 76.7387C54.5614 76.4613 54.7719 76.097 54.8607 75.6955C55.2109 75.8626 55.6092 75.8993 55.9841 75.7991C56.359 75.6989 56.6859 75.4684 56.9062 75.1488C57.1142 74.8201 57.246 74.4489 57.2918 74.0626C57.3377 73.6763 57.2965 73.2847 57.1712 72.9164C56.9122 72.1843 56.5253 71.5042 56.0283 70.9076C56.6228 70.5445 57.1101 70.0299 57.4403 69.4165C57.7095 68.7787 57.5273 67.8924 56.8855 67.6397C57.1483 67.2494 57.2935 66.7917 57.3038 66.3211C57.3141 65.8506 57.1889 65.387 56.9433 64.9856C56.6977 64.5841 56.342 64.2617 55.9184 64.0567C55.4949 63.8517 55.0214 63.7728 54.5542 63.8293C54.0574 63.879 53.6805 64.1689 53.1919 63.9452C52.811 63.7754 52.5833 63.266 52.2644 63.0009C50.8524 61.8246 48.5212 63.295 49.3659 65.1008Z" fill="#2D914C"/>
<path d="M53.8296 76.0103C53.6062 75.5869 53.5099 75.1079 53.5522 74.6311C53.6164 74.3646 53.7256 74.1111 53.8752 73.8814C54.0965 73.4582 54.366 73.0621 54.6785 72.701C54.9926 72.3387 55.4151 72.0874 55.8834 71.9845C55.5522 72.6182 54.9021 73.0323 54.5294 73.6412C54.1214 74.367 53.8982 75.182 53.8793 76.0144C53.9621 77.4641 54.5211 79.0504 54.8151 80.4793C55.1091 81.9082 55.4114 83.3785 55.7136 84.8323C56.0283 86.3606 56.2064 88.0091 56.6826 89.496C56.753 89.7031 56.1194 90.3243 55.0884 89.3386C55.0097 86.8949 54.8068 84.4471 54.5377 82.02C54.3058 79.9491 54.0159 77.8782 53.5894 75.8446C53.445 74.8707 53.2094 73.9124 52.8855 72.9826C52.4963 72.0714 51.1754 71.5164 50.2437 71.4005H50.0491C49.987 71.4874 50.0988 71.5951 50.194 71.649C51.0222 72.0921 52.0325 72.3324 52.6495 73.053C52.811 73.2436 52.9435 73.4672 53.0967 73.6578C52.9973 73.5335 53.018 73.0489 52.9228 72.8542C52.7826 72.5862 52.6595 72.3095 52.5543 72.0259C52.3271 71.3707 52.0416 70.7372 51.7013 70.1331L52.6081 69.7189C52.6081 69.7189 53.1754 72.4815 53.8834 75.9316" fill="#3E3E54"/>
<path d="M71.3242 58.6354C71.7383 57.9231 72.3552 57.3059 72.6699 56.5314C72.9444 55.7134 73.0528 54.8488 72.9888 53.9883C73.1294 54.7725 73.1836 55.5697 73.1503 56.3657C73.4642 56.2677 73.7969 56.2459 74.121 56.302C74.445 56.3582 74.751 56.4908 75.0136 56.6888C74.1855 56.7633 73.3242 56.8503 72.6492 57.3308C71.8211 57.9231 71.465 58.9875 71.349 59.9981C71.2331 61.0087 71.2994 62.0441 71.0758 63.0423C71.0758 62.2968 70.7031 61.5844 70.6203 60.872C70.5375 60.1596 70.9557 59.2443 71.3242 58.6354Z" fill="#3E3E54"/>
<path d="M66.7859 54.9451C66.6038 54.5641 66.4588 54.1168 66.082 53.9221L67.4526 56.548L65.3036 57.2314C65.1172 57.2894 64.8895 57.4385 64.964 57.6166C65.5562 57.6704 66.1276 57.4095 66.7156 57.3266C67.3697 57.2501 68.031 57.3869 68.6011 57.7168C69.1711 58.0467 69.6194 58.5519 69.8791 59.1573C69.8252 59.0248 70.0033 58.5319 70.0033 58.358C70.0217 58.1054 69.9732 57.8525 69.8625 57.6249C69.6762 57.3556 69.2331 57.2397 68.9598 57.0699C68.0484 56.5822 67.2944 55.8453 66.7859 54.9451Z" fill="#3E3E54"/>
<path d="M60.3637 66.5339C60.0775 66.5601 59.8034 66.6617 59.5692 66.8283C59.335 66.9949 59.1491 67.2206 59.0304 67.4823C58.7998 68.0151 58.7762 68.6147 58.9641 69.1639C59.0537 69.3715 59.0962 69.5964 59.0883 69.8224C59.0436 70.0129 58.9573 70.1911 58.8358 70.3443C58.3815 70.9639 58.1234 71.7054 58.0946 72.4732C58.0863 72.8554 58.1916 73.2315 58.3973 73.5537C58.603 73.876 58.8997 74.1298 59.2498 74.2832C59.0018 74.7559 58.8891 75.2881 58.9242 75.8208C58.9592 76.3536 59.1407 76.8664 59.4486 77.3025C60.1153 78.1309 61.5397 78.309 62.2436 77.5138C62.4361 77.8705 62.7331 78.1599 63.0946 78.3431C63.4562 78.5262 63.8652 78.5944 64.2666 78.5386C64.668 78.4827 65.0428 78.3054 65.3407 78.0304C65.6385 77.7554 65.8452 77.396 65.933 77.0002C66.284 77.1612 66.6808 77.1921 67.0525 77.0874C67.4242 76.9827 67.7465 76.7492 67.9619 76.4286C68.1643 76.1004 68.2906 75.7309 68.3314 75.3475C68.3723 74.964 68.3267 74.5763 68.198 74.2127C67.932 73.4867 67.5395 72.8136 67.0386 72.2247C67.6244 71.8571 68.1029 71.3413 68.4257 70.7295C68.6866 70.0917 68.4961 69.2136 67.8543 68.9651C68.1119 68.5743 68.2517 68.1176 68.2569 67.6495C68.2621 67.1814 68.1326 66.7217 67.8838 66.3252C67.6349 65.9287 67.2773 65.6122 66.8536 65.4135C66.4299 65.2147 65.9579 65.1421 65.4941 65.2043C64.9972 65.2623 64.6286 65.5523 64.14 65.341C63.7591 65.1753 63.5272 64.67 63.2084 64.4091C61.8047 63.2618 59.5024 64.7487 60.3637 66.5339Z" fill="#2D914C"/>
<path d="M66.3305 90.5728C66.3305 90.5728 65.7094 76.4907 62.7405 71.5206L63.639 71.1064C63.639 71.1064 67.846 90.5024 67.9081 90.6971C67.9702 90.8918 67.3657 91.5254 66.3305 90.5728Z" fill="#3E3E54"/>
<path d="M65.2787 75.6085C65.5862 75.1959 65.863 74.7612 66.1069 74.308C66.2756 73.8001 66.3417 73.2637 66.3015 72.73C66.3884 73.2164 66.4217 73.7108 66.4009 74.2045C66.5955 74.1441 66.8016 74.1307 67.0024 74.1653C67.2031 74.1998 67.3929 74.2814 67.5562 74.4033C67.0395 74.4093 66.5338 74.5523 66.0903 74.8175C65.8497 75.0237 65.6539 75.2772 65.515 75.5621C65.3762 75.8471 65.2972 76.1575 65.2829 76.4742C65.2611 77.1062 65.2058 77.7367 65.1173 78.3628C65.0494 77.9091 64.9554 77.4597 64.8357 77.0167C64.8374 76.5133 64.9919 76.0222 65.2787 75.6085Z" fill="#3E3E54"/>
<path d="M62.4671 73.3223C62.3512 73.0862 62.2642 72.8045 62.0282 72.6886L62.8564 74.3163L61.5272 74.7305C61.4112 74.7678 61.2663 74.863 61.316 74.9707C61.6832 74.9522 62.0471 74.8924 62.4009 74.7926C62.8068 74.7437 63.2175 74.828 63.5715 75.0326C63.9254 75.2373 64.2034 75.5513 64.3636 75.9275C64.3305 75.8446 64.4381 75.5381 64.4381 75.4304C64.4511 75.2735 64.421 75.116 64.3512 74.9748C64.2352 74.8092 63.9619 74.7388 63.7922 74.6311C63.2374 74.3265 62.7786 73.8733 62.4671 73.3223Z" fill="#3E3E54"/>
<path d="M99.1872 27.7542C104.721 27.7542 109.208 23.2667 109.208 17.731C109.208 12.1954 104.721 7.70789 99.1872 7.70789C93.653 7.70789 89.1666 12.1954 89.1666 17.731C89.1666 23.2667 93.653 27.7542 99.1872 27.7542Z" fill="#2D914C"/>
<path d="M84.115 11.2864C85.6875 13.8064 86.4717 16.7388 86.3669 19.7075C86.2621 22.6763 85.2732 25.5461 83.527 27.9489C85.9576 28.1145 88.413 28.624 90.5165 29.8582C92.62 31.0925 94.3343 33.122 94.7856 35.5201C96.6621 32.9394 99.4564 31.1768 102.593 30.595C105.73 30.0133 108.97 30.6568 111.647 32.393C111.233 28.8891 109.229 25.4099 110.214 22.0178C110.943 19.5327 113.113 17.7559 115.183 16.1613C113.326 14.8654 111.86 13.0832 110.948 11.0099C110.036 8.93661 109.712 6.6522 110.011 4.40688C107.982 6.10916 105.063 6.47778 102.496 5.84408C100.347 5.29736 99.0009 3.88501 97.1127 2.96553C95.8705 2.36497 96.1894 2.40639 95.3157 3.49982C94.6987 4.26606 94.2349 5.13169 93.5807 5.87722C92.342 7.28889 90.8768 8.48429 89.2453 9.41431C88.7609 9.68767 84.4711 11.8373 84.115 11.2864Z" fill="url(#paint3_linear)"/>
<path d="M95.3984 128.441L95.1417 130.657C92.93 131.948 90.6024 133.03 88.1894 133.888C77.262 137.723 65.2249 136.244 53.8876 133.888C48.2023 132.707 42.3266 131.316 36.6538 132.546C32.9271 133.353 29.5442 135.238 26.2191 137.102L13.0599 144.491C10.8131 142.116 8.82151 139.511 7.11792 136.721C9.8094 135.329 27.1964 126.507 34.3805 127.327C42.1734 128.218 63.552 132.003 68.6741 131.784C73.7962 131.564 95.3984 128.441 95.3984 128.441Z" fill="url(#paint4_linear)"/>
</g>
<defs>
<linearGradient id="paint0_linear" x1="94.533" y1="98.492" x2="157.134" y2="126.557" gradientUnits="userSpaceOnUse">
<stop offset="0.02" stop-color="white" stop-opacity="0"/>
<stop offset="0.32" stop-color="white" stop-opacity="0.39"/>
<stop offset="0.68" stop-color="white" stop-opacity="0.68"/>
<stop offset="1" stop-color="white"/>
</linearGradient>
<linearGradient id="paint1_linear" x1="33.2501" y1="133.275" x2="82.2522" y2="97.1993" gradientUnits="userSpaceOnUse">
<stop offset="0.01"/>
<stop offset="0.13" stop-opacity="0.69"/>
<stop offset="1" stop-opacity="0"/>
</linearGradient>
<linearGradient id="paint2_linear" x1="7156.4" y1="5225.64" x2="6728.16" y2="17509.5" gradientUnits="userSpaceOnUse">
<stop offset="0.01"/>
<stop offset="0.13" stop-opacity="0.69"/>
<stop offset="1" stop-opacity="0"/>
</linearGradient>
<linearGradient id="paint3_linear" x1="6722.41" y1="1781.74" x2="9142.19" y2="1781.74" gradientUnits="userSpaceOnUse">
<stop offset="0.02" stop-color="white" stop-opacity="0"/>
<stop offset="0.32" stop-color="white" stop-opacity="0.39"/>
<stop offset="0.68" stop-color="white" stop-opacity="0.68"/>
<stop offset="1" stop-color="white"/>
</linearGradient>
<linearGradient id="paint4_linear" x1="11950.6" y1="7838.57" x2="11928.9" y2="4029.74" gradientUnits="userSpaceOnUse">
<stop offset="0.01"/>
<stop offset="0.13" stop-opacity="0.69"/>
<stop offset="1" stop-opacity="0"/>
</linearGradient>
<clipPath id="clip0">
<rect width="173" height="161" fill="white"/>
</clipPath>
</defs>
</svg>
