<svg width="174" height="166" viewBox="0 0 174 166" fill="none" xmlns="http://www.w3.org/2000/svg">
<g clip-path="url(#clip0)">
<path opacity="0.24" d="M60.3756 5.62489C52.6376 11.6155 48.6503 21.2351 41.9902 28.4083C32.2485 38.9123 17.3233 43.6323 8.30464 54.7496C-2.12306 67.5915 -2.17036 86.7765 5.01009 101.696C8.69661 109.37 14.2517 117.221 12.5386 125.553C11.7141 129.595 9.22712 133.126 8.2472 137.131C6.52051 144.182 9.86576 151.799 15.2891 156.608C20.7125 161.416 27.8929 163.781 35.0396 164.95C58.5813 168.796 82.3832 160.884 106.229 160.46C113.261 160.331 120.326 160.857 127.311 160.026C145.534 157.865 162.115 146.11 171.255 130.165C172.668 127.708 173.958 125.045 173.992 122.209C174.04 119.319 172.806 116.584 171.654 113.934C167.937 105.409 164.781 96.5384 163.75 87.2983C162.662 77.5906 163.96 67.7576 163.254 58.0126C161.97 40.3253 152.583 22.0755 136.157 15.5054C122.807 10.1653 106.776 14.1297 93.9192 7.67147C88.5128 4.96077 86.7219 0.813398 80.0415 0.142499C73.1348 -0.555507 65.8969 1.3386 60.3756 5.62489Z" fill="#2D914C"/>
<path opacity="0.24" d="M52.9968 141.492C45.6576 141.451 36.8518 142.237 33.3984 148.736C44.9683 156.53 59.7245 157.448 73.6698 157.451C80.0899 157.451 86.5473 157.316 92.9134 156.435C101.608 155.215 110.038 152.606 118.428 149.997L127.927 147.056C128.829 146.774 129.89 146.324 130.025 145.385C131.002 138.754 103.669 141.641 99.3403 141.756C83.9285 142.156 68.4221 141.583 52.9968 141.492Z" fill="#2D914C"/>
<path d="M76.6365 36.2624C76.6365 36.2624 70.2637 39.0307 69.5135 39.6508C68.8377 40.2132 70.6624 78.5934 70.8009 80.4706C70.9395 82.3477 81.134 82.6595 85.5538 81.8124C88.4989 81.2055 91.3804 80.3218 94.1602 79.1728C94.1602 79.1728 95.5557 39.5288 94.6873 38.8274C93.8189 38.126 85.3815 35.5 85.3815 35.5L76.6365 36.2624Z" fill="#2D914C"/>
<path d="M91.9469 38.431C91.9469 38.431 93.8932 38.3022 95.2178 39.1087C96.5424 39.9151 109.004 50.8392 109.315 54.0548C109.626 57.2704 107.122 59.3034 106.031 59.0832C104.939 58.8629 101.577 55.5525 100.824 54.5122C100.07 53.472 93.3897 52.0862 93.3897 52.0862L91.9469 38.431Z" fill="#2D914C"/>
<path d="M70.3211 58.1615C70.3225 58.3833 70.4082 58.5962 70.5608 58.7568C70.7134 58.9173 70.9214 59.0135 71.1422 59.0255C75.2173 59.9031 79.1978 57.5008 83.2797 56.6537C85.1314 56.2776 87.0811 56.2132 88.7808 55.383C90.8623 54.3665 92.2578 52.3606 93.5554 50.436L96.9344 45.4483C97.4717 44.6486 98.0224 43.6084 97.519 42.7884C97.127 42.1514 96.2316 41.9955 95.5186 42.2226C94.8056 42.4496 94.2379 42.9714 93.677 43.4661C90.8625 45.9433 87.7716 48.0855 84.4657 49.8498C83.0617 50.6371 81.5749 51.2656 80.0325 51.7236C77.3292 52.469 72.4905 51.8422 69.7602 51.9608C69.7467 51.9743 69.9832 56.3081 70.3211 58.1615Z" fill="url(#paint0_linear)"/>
<path d="M105.956 49.0332C106.733 49.3867 107.408 49.9323 107.916 50.619C108.798 51.8252 110.319 53.577 110.619 55.0239C110.978 56.7011 109.484 59.073 107.764 59.3745C106.707 59.5348 105.627 59.4148 104.63 59.0267C103.634 58.6385 102.756 57.9956 102.084 57.1619C101.426 56.3128 100.977 55.3206 100.771 54.2654C100.566 53.2102 100.61 52.1214 100.901 51.0866C101.601 48.5351 103.997 48.1387 105.956 49.0332Z" fill="#2D914C"/>
<path d="M88.2536 143.511C88.2536 143.511 87.49 148.563 87.9157 149.136C88.3415 149.709 90.7474 149.522 92.2375 149.19C93.7277 148.858 94.0892 146.927 94.0892 146.927L94.1906 145.338L88.2536 143.511Z" fill="#BA816C"/>
<path d="M67.7294 141.156C67.7294 141.156 66.2021 148.011 66.5603 148.611C66.9185 149.211 69.6014 147.723 71.1085 147.537C72.6155 147.35 72.7608 144.911 72.7608 144.911L73.0176 143.338L67.7294 141.156Z" fill="#BA816C"/>
<path d="M76.3561 32.5115C76.3561 32.5115 76.917 36.6013 76.471 38.1159C76.0249 39.6305 78.0963 44.1641 81.1678 44.442C84.2394 44.7198 84.7125 39.4814 84.7699 38.8647C84.8273 38.248 83.9319 37.8482 84.3745 36.3437C84.8172 34.8393 76.8291 30.6885 76.3561 32.5115Z" fill="#BA816C"/>
<path d="M84.3745 36.3404C84.0366 37.5093 84.486 38.0108 84.6854 38.4615C83.9477 39.0743 83.0104 39.3928 82.0531 39.356C80.2082 39.1866 77.5793 37.3975 76.5994 34.5106L76.5487 34.3514C76.4642 33.3179 76.3561 32.5081 76.3561 32.5081C76.8291 30.6885 84.8206 34.8291 84.3745 36.3404Z" fill="#A6634C"/>
<path d="M76.5825 37.5398C76.5825 37.5398 78.5356 43.5813 80.5934 44.3878C80.5934 44.3878 81.1408 44.7469 79.5222 45.533C77.9037 46.3191 74.0144 41.3077 74.9335 37.9736C75.0352 37.549 75.244 37.1577 75.5398 36.8373C75.8357 36.5169 76.2087 36.2781 76.623 36.1438L76.5825 37.5398Z" fill="white"/>
<path d="M84.3204 36.9571C84.3204 36.9571 84.6177 41.2942 82.6309 44.0726C82.6309 44.0726 83.2661 45.2382 83.8811 45.2925C84.4961 45.3467 86.3647 41.7889 85.9998 38.9596C85.7835 37.3196 84.6684 36.5437 84.3204 36.9571Z" fill="white"/>
<path d="M71.1084 80.5045L69.8413 106.412L67.4117 142.329C67.4117 142.329 68.8073 144.006 72.8182 144.06L80.0527 107.523L83.452 88.9551L86.385 107.056L87.6048 144.779C87.6048 144.779 90.4466 144.836 94.1331 145.172L96.5255 107.971L94.1602 79.1694L71.1084 80.5045Z" fill="#606161"/>
<path d="M71.1084 80.5045L69.8413 106.412L67.4117 142.329C67.4117 142.329 68.8073 144.006 72.8182 144.06L80.0527 107.523L83.452 88.9551L86.385 107.056L87.6048 144.779C87.6048 144.779 90.4466 144.836 94.1331 145.172L96.5255 107.971L94.1602 79.1694L71.1084 80.5045Z" fill="url(#paint1_linear)"/>
<path d="M87.3007 24.4878C87.3007 24.4878 87.196 32.5556 86.385 34.653C85.5741 36.7504 83.5669 38.4412 81.7219 38.2717C79.877 38.1023 77.2515 36.3133 76.2715 33.4298C75.2916 30.5462 75.2849 23.7017 75.6768 22.814C76.0688 21.9262 78.1841 19.1715 83.0499 20.0626C86.4053 20.6793 87.4122 23.2545 87.3007 24.4878Z" fill="#BA816C"/>
<path d="M84.0062 17.9652C83.4167 17.2992 82.707 16.7509 81.9146 16.3489C81.1232 16.0061 80.2726 15.8219 79.4107 15.8068C77.7584 15.7288 75.8965 16.1287 74.9909 17.501C74.403 18.4057 74.3388 19.534 74.403 20.6284C74.4243 20.7741 74.4056 20.9229 74.3489 21.0588C74.18 21.3773 73.7204 21.3129 73.3622 21.3095C71.9397 21.3095 70.9766 23.0037 71.2943 24.3895C71.7133 26.2159 73.4974 26.5784 74.2915 28.0015C74.4199 28.2319 74.599 28.4895 74.8625 28.4962C75.2004 28.4962 75.3795 28.1235 75.4775 27.8186C75.9709 26.1921 75.7512 24.664 76.917 23.2307C76.9912 23.1183 77.1044 23.0374 77.2346 23.0037C77.6333 22.9596 77.6942 23.7051 78.0929 23.7627C78.4578 23.2951 78.9816 22.7665 79.5493 22.9461C79.88 23.1089 80.15 23.3737 80.3197 23.7017C80.7844 24.3534 81.3751 24.9048 82.0565 25.3232C82.7379 25.7416 83.4961 26.0184 84.2863 26.1373C85.0765 26.2561 85.8824 26.2145 86.6562 26.015C87.43 25.8154 88.156 25.462 88.7909 24.9757C89.2408 24.6682 89.577 24.2203 89.7472 23.7017C89.933 23.0037 89.6154 22.282 89.2876 21.6382C89.0436 21.0761 88.7002 20.563 88.2739 20.1236C88.0563 19.905 87.7881 19.744 87.4933 19.6547C87.1985 19.5654 86.8863 19.5507 86.5844 19.6119C86.3382 19.73 86.0662 19.7836 85.7937 19.7678C85.6151 19.6996 85.4593 19.5821 85.3443 19.4289C84.8915 18.958 84.459 18.4463 84.0062 17.9652Z" fill="#606161"/>
<path d="M75.8221 28.1066C75.8221 28.1066 75.6802 26.2294 74.3962 26.7343C73.1122 27.2392 74.3421 30.7699 74.9301 31.1392C75.1899 31.3337 75.499 31.4511 75.8221 31.478" fill="#BA816C"/>
<path d="M104.672 54.3733C104.672 54.3733 103.047 51.893 106.659 49.3144C110.271 46.7359 121.405 39.6067 121.405 39.6067L122.111 43.7236C122.111 43.7236 111.373 57.5855 108.575 57.1348C107.758 57.0033 106.981 56.6861 106.305 56.2075C105.628 55.7288 105.07 55.1015 104.672 54.3733Z" fill="#BA816C"/>
<path d="M121.405 39.6067C121.684 39.115 121.987 38.6377 122.314 38.1768C122.52 37.8888 122.781 37.655 122.99 37.3806C123.304 36.9672 123.183 36.1574 123.206 35.6389C123.206 35.0637 123.342 34.4967 123.605 33.9854C123.652 33.8892 123.729 33.8108 123.825 33.7618C123.888 33.7417 123.956 33.7392 124.021 33.7547C124.086 33.7703 124.145 33.8031 124.193 33.8499C124.289 33.9456 124.363 34.0612 124.409 34.1887C124.652 34.738 124.801 35.3246 124.849 35.9236C124.879 36.3674 125.011 36.7198 125.46 36.5369C125.888 36.3662 126.334 36.2412 126.788 36.1641C127.197 36.093 128.478 35.8253 128.633 36.4352C128.917 37.533 127.156 41.5551 127.045 41.8566C126.933 42.1582 122.108 43.7439 122.108 43.7439L121.405 39.6067Z" fill="#BA816C"/>
<path d="M61.4613 149.278C61.1842 149.539 60.8902 149.868 60.9477 150.244C61.0051 150.62 61.3532 150.84 61.6843 151C63.9821 152.104 66.6853 151.918 69.1858 151.403C70.1116 151.213 71.0814 150.949 71.7302 150.258C72.0913 149.847 72.3506 149.357 72.4871 148.828C72.6878 148.138 72.7555 147.415 72.6865 146.7C72.6912 146.559 72.6632 146.419 72.6045 146.29C72.5459 146.162 72.4582 146.049 72.3486 145.961C72.2022 145.891 72.0406 145.86 71.8789 145.87C70.213 145.832 67.8071 145.28 66.2764 145.948C64.484 146.757 62.8526 147.886 61.4613 149.278Z" fill="#606161"/>
<path d="M88.9598 147.313C88.5688 147.213 88.1584 147.219 87.7704 147.33C87.5366 147.442 87.3364 147.613 87.1899 147.828C87.0433 148.042 86.9557 148.291 86.9358 148.55C86.9016 149.069 86.9611 149.59 87.1115 150.088C87.1768 150.517 87.3436 150.924 87.5981 151.274C87.9546 151.627 88.4137 151.857 88.9091 151.931C89.8422 152.118 90.7896 152.223 91.7408 152.247L97.7216 152.568C98.1657 152.645 98.6224 152.56 99.0091 152.328C99.2121 152.129 99.3427 151.868 99.3801 151.586C99.4175 151.304 99.3594 151.018 99.2152 150.773C98.9126 150.291 98.4958 149.892 98.0021 149.61C96.8532 148.848 95.2279 147.577 93.8425 147.367C93.1836 147.259 92.3625 147.499 91.6867 147.503C90.7742 147.509 89.8626 147.446 88.9598 147.313Z" fill="#606161"/>
<path d="M61.4613 149.278C61.1842 149.539 60.8902 149.868 60.9477 150.244C61.0051 150.62 61.3532 150.84 61.6843 151C63.9821 152.104 66.6853 151.918 69.1858 151.403C70.1116 151.213 71.0814 150.949 71.7302 150.258C72.0913 149.847 72.3506 149.357 72.4871 148.828C72.6878 148.138 72.7555 147.415 72.6865 146.7C72.6912 146.559 72.6632 146.419 72.6045 146.29C72.5459 146.162 72.4582 146.049 72.3486 145.961C72.2022 145.891 72.0406 145.86 71.8789 145.87C70.213 145.832 67.8071 145.28 66.2764 145.948C64.484 146.757 62.8526 147.886 61.4613 149.278Z" fill="url(#paint2_linear)"/>
<path d="M88.9598 147.313C88.5688 147.213 88.1584 147.219 87.7704 147.33C87.5366 147.442 87.3364 147.613 87.1899 147.828C87.0433 148.042 86.9557 148.291 86.9358 148.55C86.9016 149.069 86.9611 149.59 87.1115 150.088C87.1768 150.517 87.3436 150.924 87.5981 151.274C87.9546 151.627 88.4137 151.857 88.9091 151.931C89.8422 152.118 90.7896 152.223 91.7408 152.247L97.7216 152.568C98.1657 152.645 98.6224 152.56 99.0091 152.328C99.2121 152.129 99.3427 151.868 99.3801 151.586C99.4175 151.304 99.3594 151.018 99.2152 150.773C98.9126 150.291 98.4958 149.892 98.0021 149.61C96.8532 148.848 95.2279 147.577 93.8425 147.367C93.1836 147.259 92.3625 147.499 91.6867 147.503C90.7742 147.509 89.8626 147.446 88.9598 147.313Z" fill="url(#paint3_linear)"/>
<path d="M141.957 65.0399C141.932 64.8988 141.936 64.7542 141.968 64.6145C142 64.4749 142.059 64.343 142.142 64.2267C142.947 63.315 143.561 62.2511 143.949 61.0978C144.338 59.9445 144.492 58.7249 144.403 57.5109C144.299 55.3835 143.373 53.3803 141.821 51.9256C140.27 50.4709 138.214 49.679 136.091 49.7177L117.209 50.026C117.207 49.8459 117.217 49.6659 117.239 49.4872C117.516 47.6541 117.776 45.8244 118.074 44.0015C118.493 41.5835 118.395 39.1038 117.786 36.7266C116.948 33.4467 115.631 30.3531 114.208 27.29C113.485 25.7246 112.461 24.542 110.876 23.8305C107.697 22.4039 104.598 22.3463 101.625 24.3319C99.7221 25.5992 98.6239 27.2663 98.7726 29.6991C98.928 32.4098 98.8605 35.09 98.9348 37.794C98.9852 38.4512 98.887 39.1114 98.6476 39.7253C98.3874 40.3115 97.9718 40.7859 97.7183 41.389C97.4855 41.8668 97.2272 42.3317 96.9445 42.7816C96.4242 43.7372 95.9004 44.6859 95.3496 45.6211C93.7311 48.403 92.2038 51.2458 90.2034 53.7837C89.4059 54.8002 88.5443 55.7693 87.6826 56.7418C87.4495 57.0061 87.1825 57.1687 86.7905 56.8671C85.9478 56.2611 84.9233 55.9633 83.888 56.0234C76.4901 56.1364 69.0945 56.255 61.7012 56.3792C58.7344 56.4266 56.6698 58.7172 56.9064 61.6888C57.1395 64.3995 57.4031 67.1102 57.6565 69.7938C57.8762 72.2571 58.0755 74.7205 58.3323 77.1737C58.6094 80.125 58.9169 83.0762 59.2041 86.0241C59.4069 88.03 59.569 90.0326 59.7785 92.0385C59.8504 92.3302 59.9643 92.6098 60.1165 92.8687L59.8259 92.9161C59.9745 93.9326 59.9407 95.0508 60.3158 95.9927C61.4478 98.8085 63.634 99.2524 66.0906 99.0118C66.1413 99.0118 66.1683 98.8627 66.2055 98.7814C66.5262 98.8924 66.8583 98.9674 67.1955 99.005C73.0683 98.9169 78.9512 98.8322 84.824 98.7136C85.7153 98.7335 86.5916 98.481 87.3364 97.9895C88.0812 97.4981 88.6592 96.791 88.9937 95.9622C89.2542 95.2654 89.4654 94.5509 89.6256 93.8242C89.8901 93.933 90.1474 94.0586 90.396 94.2003C91.1596 94.6475 91.9402 95.1253 92.6532 95.6166C92.8034 95.7281 92.9641 95.8246 93.133 95.9046C93.4786 96.0184 93.8355 96.0945 94.1974 96.1317C94.6085 96.228 95.0289 96.2791 95.451 96.2841C100.08 96.2367 104.699 96.152 109.305 96.0774C114.978 95.9826 120.682 95.908 126.369 95.7793L128.197 95.7352C129.033 95.7122 129.852 95.4904 130.586 95.088C131.864 94.3343 133.068 93.4631 134.185 92.4858C136.888 90.1139 138.091 87.1694 137.206 83.5404C137.19 83.2304 137.283 82.9247 137.469 82.6764C137.929 81.9987 138.446 81.3617 138.892 80.6773C139 80.5146 138.926 80.2368 138.929 80.0165C139.372 80.2673 139.335 79.82 139.402 79.6404C140.112 77.8819 140.078 76.0725 139.683 74.2529C139.654 74.1125 139.656 73.9678 139.686 73.8279C139.716 73.688 139.775 73.5558 139.858 73.4397C142.132 71.0407 142.703 68.2148 141.957 65.0399ZM84.1988 65.3076L84.6516 92.9805C84.6685 93.919 84.6685 93.919 83.7122 93.9326C77.6672 94.0342 71.6254 94.1223 65.5837 94.2409C64.9079 94.2613 64.7052 94.0648 64.6444 93.4074C64.383 90.2449 64.0958 87.0824 63.7827 83.9199C63.5191 81.1483 63.215 78.3766 62.9616 75.6049C62.7318 73.233 62.5426 70.8611 62.3263 68.4656C62.1304 66.2936 61.9344 64.1183 61.7012 61.9463C61.6303 61.3296 61.8398 61.1941 62.4243 61.1975C67.4219 61.1331 72.4094 61.0416 77.407 60.9603C79.0965 60.9332 80.786 60.9129 82.4958 60.9162C82.6095 60.9079 82.7239 60.9193 82.8337 60.9501C83.0326 61.0281 83.2001 61.1698 83.3101 61.3533C83.6825 61.7744 83.9182 62.2991 83.9859 62.8578C83.9947 63.0304 84.0253 63.2012 84.0772 63.366C84.1076 63.505 84.138 63.6337 84.1718 63.7828C84.2194 64.2907 84.2307 64.8014 84.2056 65.311L84.1988 65.3076ZM137.172 62.258C136.878 62.4444 136.55 62.5799 136.266 62.7731C135.645 63.1932 135.591 63.6032 136.138 64.1047C137.686 65.5651 138.409 68.4181 136.239 70.3935C135.547 71.0032 134.791 71.5371 133.986 71.9861C133.198 72.4401 133.097 72.9111 133.81 73.4566C134.172 73.712 134.477 74.0399 134.706 74.4196C134.935 74.7992 135.083 75.2225 135.141 75.6625C135.188 76.0013 135.283 76.3401 135.357 76.679C134.976 79.0034 133.465 80.3554 131.441 81.277C130.657 81.6158 130.586 82.0021 131.221 82.5476C131.948 83.1223 132.465 83.9216 132.691 84.8213C133.131 86.6205 132.276 87.8708 131.069 89.0025C130.813 89.2465 130.529 89.4498 130.272 89.6802C129.133 90.6967 127.846 91.0694 126.291 91.0728C119.642 91.1033 112.992 91.2524 106.332 91.371C106.115 91.371 105.896 91.4286 105.676 91.4523C105.435 91.4146 105.193 91.392 104.949 91.3845L101.151 91.4455L99.2321 91.4794C98.6645 91.5434 98.0911 91.5343 97.5257 91.4523C97.414 91.432 97.2996 91.432 97.1878 91.4523C96.805 91.5277 96.4179 91.5798 96.0288 91.6082C95.6725 91.601 95.3202 91.531 94.9881 91.4015C94.3415 91.1114 93.7218 90.7645 93.1364 90.3646C92.5721 90.0258 92.028 89.6531 91.4468 89.3481C91.2229 89.2141 90.9676 89.1416 90.7068 89.138C89.8993 89.138 89.1018 89.138 88.2976 89.1685C87.811 89.1956 87.6691 89.0296 87.659 88.5417C87.659 85.8649 87.5812 83.1779 87.5373 80.5045C87.4461 74.8357 87.365 69.1737 87.2501 63.505C87.2501 62.8442 87.3616 62.4342 88.0138 62.1157C90.5244 60.8857 92.3018 58.8493 93.9304 56.6367C96.0626 53.6726 98.0039 50.5749 99.7424 47.3627L100.847 45.3975C101.736 43.788 102.615 42.1751 103.486 40.5419C103.642 40.2103 103.72 39.8477 103.716 39.4814C103.712 39.3348 103.686 39.1898 103.638 39.051C103.616 38.8997 103.607 38.7466 103.611 38.5936L103.594 37.4958C103.594 36.7684 103.585 36.0399 103.567 35.3103L103.496 30.9257C103.48 30.4276 103.469 29.9295 103.463 29.4382C103.45 29.2565 103.482 29.0745 103.556 28.9079C103.629 28.7414 103.742 28.5954 103.885 28.4827C105.612 26.9579 107.859 27.3103 109.46 28.4319C109.903 28.7436 110.065 29.4721 110.332 30.0244C111.549 32.5668 112.537 35.2136 113.282 37.9329C113.823 39.9659 113.698 41.9989 113.353 44.032C112.815 47.1673 112.272 50.305 111.724 53.4449C111.65 53.8752 111.599 54.3157 111.539 54.8002C111.68 54.8198 111.822 54.83 111.964 54.8307C119.99 54.6986 128.025 54.5969 136.057 54.4275C138.466 54.3665 140.112 56.5147 139.723 58.8087C139.449 60.4012 138.5 61.4652 137.179 62.2648L137.172 62.258Z" fill="#2D914C"/>
<path opacity="0.54" d="M141.838 64.325C141.812 64.1841 141.815 64.0393 141.846 63.8996C141.878 63.7598 141.937 63.6278 142.021 63.5117C142.825 62.5993 143.44 61.5349 143.829 60.3811C144.217 59.2273 144.372 58.0073 144.285 56.7926C144.183 54.6624 143.259 52.6556 141.707 51.1971C140.156 49.7386 138.099 48.9431 135.972 48.979L117.084 49.2941C117.085 49.1118 117.097 48.9297 117.117 48.7486C117.398 46.9155 117.651 45.0925 117.955 43.2696C118.373 40.8502 118.274 38.3695 117.665 35.9913C116.827 32.7114 115.506 29.611 114.09 26.5479C113.363 24.9825 112.346 23.8033 110.758 23.0986C107.572 21.6653 104.48 21.6043 101.499 23.5967C99.597 24.8605 98.5056 26.5242 98.6509 28.9672C98.8097 31.6542 98.7354 34.3514 98.8097 37.0587C98.8612 37.7151 98.7665 38.3748 98.5327 38.9901C98.2657 39.5762 97.8568 40.0472 97.5967 40.6571C97.3619 41.1317 97.1037 41.5943 96.8229 42.043C96.3025 43.0019 95.7787 43.9506 95.2246 44.8858C93.6128 47.6677 92.0855 50.5105 90.0851 53.0484C89.2842 54.0649 88.426 55.0306 87.5643 56.0031C87.5203 56.0784 87.4597 56.1426 87.3873 56.191C87.3149 56.2394 87.2324 56.2707 87.1462 56.2824C87.0599 56.2942 86.9721 56.2861 86.8895 56.2589C86.8068 56.2316 86.7313 56.1858 86.6689 56.1251C85.8257 55.5255 84.8052 55.2293 83.773 55.2848C76.3684 55.3955 68.9684 55.5084 61.5728 55.6236C58.6161 55.6744 56.5448 57.9684 56.7881 60.9332C57.0178 63.6439 57.2848 66.3546 57.5382 69.0653C57.7579 71.5185 57.9505 73.9852 58.1937 76.4384C58.4708 79.3931 58.7749 82.3342 59.0655 85.2855C59.2717 87.2914 59.4305 89.2939 59.6467 91.2998C59.7197 91.5933 59.8335 91.875 59.9846 92.1368L59.694 92.174C59.8393 93.221 59.8157 94.3121 60.1908 95.2608C61.316 98.0664 63.4988 98.5171 65.9588 98.2731C66.0061 98.2731 66.0297 98.1274 66.0804 98.0427C66.3968 98.1562 66.7259 98.2301 67.0603 98.2629C72.9365 98.1782 78.8261 98.0935 84.6921 97.9817C85.5837 98.0004 86.4598 97.7465 87.204 97.2538C87.9482 96.7612 88.5253 96.053 88.8585 95.2236C89.1261 94.5291 89.3374 93.8141 89.4904 93.0855C89.7547 93.1971 90.013 93.3226 90.2642 93.4616C91.0278 93.9123 91.805 94.3866 92.518 94.8847C92.6729 94.9896 92.8356 95.0825 93.0046 95.1626C93.3502 95.2772 93.707 95.3544 94.069 95.393C94.4789 95.4901 94.898 95.5435 95.3192 95.5522C99.9451 95.5048 104.564 95.4201 109.194 95.3456C114.864 95.2473 120.557 95.1761 126.254 95.0406L128.082 95.0067C128.918 94.9788 129.735 94.7536 130.468 94.3494C131.74 93.6049 132.941 92.7428 134.053 91.7742C136.756 89.4023 137.966 86.4646 137.094 82.8323C137.076 82.5214 137.171 82.2145 137.361 81.9682C137.811 81.2906 138.331 80.6569 138.78 79.9623C138.888 79.8064 138.817 79.5252 138.817 79.3084C139.264 79.5625 139.216 79.1118 139.287 78.9322C139.936 77.2102 140.034 75.3285 139.568 73.5481C139.541 73.4073 139.543 73.2624 139.575 73.1225C139.606 72.9826 139.666 72.8507 139.75 72.7349C142.007 70.3156 142.575 67.4965 141.838 64.325ZM83.5906 93.221C77.5455 93.3159 71.5105 93.4006 65.462 93.5226C64.7862 93.5463 64.5801 93.3396 64.5193 92.6857C64.2625 89.5243 63.9719 86.3799 63.6576 83.2185C63.4042 80.4502 63.09 77.6785 62.8332 74.9102C62.6169 72.5147 62.4209 70.1462 62.2047 67.7642C62.0087 65.5888 61.8161 63.4135 61.5863 61.2381C61.512 60.6316 61.7181 60.4995 62.3027 60.4995C67.3036 60.4249 72.2843 60.3402 77.2887 60.2555C78.9782 60.2318 80.6677 60.2081 82.3775 60.2182C82.4905 60.2026 82.6056 60.2107 82.7154 60.242C82.9094 60.3264 83.0741 60.4667 83.1885 60.6452C83.5688 61.0629 83.8108 61.5884 83.8812 62.1496C83.8892 62.3229 83.9176 62.4946 83.9656 62.6613C83.9994 62.807 84.0366 62.9289 84.0603 63.0848C84.1104 63.5858 84.1183 64.0902 84.0839 64.5926L84.5468 92.2587C84.5468 93.1939 84.5468 93.1939 83.5906 93.221ZM139.591 58.0802C139.314 59.6829 138.368 60.74 137.047 61.5431C136.756 61.7261 136.429 61.8582 136.138 62.0547C135.52 62.4783 135.462 62.8917 136.016 63.3898C137.557 64.8468 138.284 67.7032 136.114 69.6718C135.421 70.2832 134.665 70.8203 133.86 71.2745C133.073 71.7252 132.975 72.1995 133.692 72.7451C134.052 72.9999 134.355 73.327 134.582 73.7055C134.81 74.0841 134.956 74.5058 135.013 74.9441C135.06 75.283 135.158 75.6387 135.229 75.9606C134.854 78.2918 133.34 79.6404 131.316 80.5654C130.529 80.9043 130.458 81.2804 131.1 81.8293C131.825 82.4027 132.339 83.2012 132.563 84.0995C133.002 85.9089 132.154 87.1491 130.941 88.2909C130.688 88.5349 130.407 88.728 130.154 88.9686C129.015 89.9851 127.717 90.3545 126.166 90.3545C119.513 90.3917 112.873 90.5374 106.21 90.6594C105.99 90.6594 105.774 90.717 105.554 90.7306C105.335 90.7441 105.058 90.6696 104.828 90.6696L101.023 90.7306L99.1105 90.7678C98.5415 90.8336 97.9663 90.8211 97.4007 90.7306C97.2887 90.7134 97.1748 90.7134 97.0628 90.7306C96.679 90.8076 96.2908 90.8608 95.9004 90.8898C95.5474 90.8824 95.1985 90.8124 94.8698 90.6831C94.2241 90.3971 93.6035 90.057 93.0147 89.6666C92.447 89.3278 91.8996 88.9483 91.3252 88.6501C91.1058 88.5087 90.8492 88.4367 90.5886 88.4434C89.7877 88.4197 88.9869 88.4197 88.1759 88.4671C87.6893 88.4909 87.544 88.3214 87.544 87.8335C87.544 85.1635 87.4596 82.4765 87.4258 79.8031C87.3278 74.1275 87.2433 68.4655 87.1352 62.8036C87.1352 62.1496 87.2433 61.7362 87.8955 61.4076C90.4061 60.181 92.1868 58.1513 93.8088 55.9286C95.9467 52.9681 97.8903 49.8713 99.6275 46.658C99.989 46.0006 100.364 45.3568 100.729 44.6995C101.614 43.0832 102.5 41.467 103.371 39.8405C103.525 39.5095 103.604 39.1485 103.601 38.7834C103.597 38.6349 103.572 38.4878 103.527 38.3463C103.504 38.1972 103.493 38.0465 103.493 37.8956V36.791C103.493 36.0625 103.493 35.334 103.469 34.6021L103.395 30.2277C103.371 29.7296 103.371 29.2112 103.361 28.7334C103.339 28.5523 103.364 28.3685 103.432 28.1995C103.501 28.0305 103.611 27.8819 103.753 27.7677C105.473 26.2362 107.727 26.5886 109.329 27.7068C109.775 28.0219 109.934 28.7504 110.2 29.2959C111.421 31.8342 112.41 34.4777 113.157 37.1942C113.701 39.2272 113.569 41.2603 113.228 43.2933C112.684 46.4275 112.14 49.5516 111.593 52.6994C111.522 53.1365 111.471 53.5736 111.41 54.0548C111.551 54.0769 111.693 54.0883 111.836 54.0887C119.858 53.9565 127.89 53.8583 135.925 53.6888C136.474 53.6758 137.018 53.7868 137.518 54.0137C138.018 54.2406 138.46 54.5775 138.813 54.9994C139.165 55.4212 139.418 55.9173 139.553 56.4507C139.687 56.984 139.701 57.541 139.591 58.0802Z" fill="url(#paint4_linear)"/>
<path d="M83.5466 94.1799C77.5015 94.2782 71.4666 94.3629 65.4215 94.4849C64.7457 94.5086 64.5362 94.3019 64.4754 93.6446C64.2219 90.4866 63.9313 87.3388 63.6137 84.1808C63.3603 81.4092 63.046 78.6409 62.7892 75.8692C62.573 73.477 62.3804 71.1085 62.1607 68.7265C61.9681 66.5511 61.7721 64.3758 61.5424 62.2004C61.4714 61.5939 61.6775 61.4584 62.2587 61.4584C67.2631 61.3872 72.2404 61.3025 77.2447 61.2178C78.9342 61.1907 80.6238 61.167 82.3369 61.1805C82.4498 61.1608 82.5658 61.169 82.6748 61.2043C82.8679 61.2887 83.0323 61.4276 83.1479 61.6041C83.5277 62.0234 83.7696 62.5499 83.8406 63.1119C83.8487 63.2852 83.877 63.4569 83.9251 63.6236C83.9645 63.7629 83.9961 63.9043 84.0197 64.0471C84.0727 64.548 84.0818 65.0525 84.0467 65.5549L84.5063 93.221C84.513 94.1461 84.513 94.1461 83.5466 94.1799Z" fill="white"/>
<path d="M59.0419 67.7303C61.7857 68.9704 64.5813 70.0886 67.4286 71.0848C68.1429 71.3649 68.8902 71.5517 69.6521 71.6405C71.3686 71.7658 72.9872 70.9255 74.5043 70.1123C75.2748 69.6955 76.1668 69.0551 76.035 68.1877C75.9628 67.9029 75.8108 67.6447 75.5971 67.4436C75.3834 67.2425 75.1168 67.1068 74.8287 67.0526C74.253 66.9546 73.668 66.9228 73.0851 66.9577C70.9901 66.9238 69.0303 65.9988 67.1887 64.9721C65.1005 63.8031 63.0663 62.4478 61.5491 60.5977C61.3619 60.3117 61.1049 60.0784 60.8024 59.9201C60.531 59.8332 60.2408 59.8238 59.9644 59.893C55.8724 60.6621 55.3858 66.0835 59.0419 67.7303Z" fill="url(#paint5_linear)"/>
<path d="M139.723 58.8188C139.443 60.4215 138.5 61.4787 137.179 62.2818C136.888 62.4613 136.56 62.5969 136.27 62.79C135.651 63.217 135.594 63.6303 136.148 64.1284C137.689 65.5854 138.415 68.4418 136.246 70.4105C135.552 71.0207 134.796 71.5578 133.992 72.0132C133.205 72.4638 133.107 72.9348 133.823 73.4837C134.184 73.7379 134.487 74.0648 134.714 74.4435C134.941 74.8222 135.087 75.2444 135.141 75.6828C135.192 76.0216 135.286 76.3605 135.361 76.6993C134.986 79.0339 133.472 80.3825 131.448 81.3041C130.661 81.6429 130.586 82.0224 131.228 82.568C131.953 83.1431 132.469 83.9424 132.695 84.8416C133.131 86.651 132.282 87.8911 131.073 89.033C130.816 89.277 130.539 89.4701 130.282 89.7107C129.143 90.7272 127.849 91.0931 126.298 91.0931C119.645 91.1304 113.005 91.2761 106.342 91.3981C106.122 91.3981 105.906 91.4591 105.686 91.4726C105.445 91.4394 105.203 91.4191 104.96 91.4116C103.686 91.4354 102.425 91.4455 101.155 91.4726L99.2389 91.5065C98.6713 91.5752 98.0969 91.5638 97.5325 91.4726C97.4206 91.4537 97.3064 91.4537 97.1946 91.4726C96.8096 91.5487 96.4202 91.6008 96.0288 91.6285C95.6814 91.6198 95.3383 91.5498 95.0151 91.4218C94.3668 91.1344 93.7458 90.7885 93.16 90.3884C92.5889 90.0495 92.0449 89.6734 91.4705 89.3718C91.2484 89.2339 90.9917 89.1622 90.7305 89.1651C89.933 89.1414 89.1322 89.1414 88.3212 89.1889C87.8346 89.216 87.6893 89.0432 87.6893 88.5586C87.6893 85.8852 87.6049 83.2016 87.5677 80.5282C87.4731 74.8538 87.3762 69.1873 87.2771 63.5287C87.2771 62.8713 87.3852 62.458 88.0408 62.1327C90.548 60.9027 92.3321 58.8731 93.9541 56.6503C96.0924 53.6908 98.035 50.5939 99.7694 47.3797C100.134 46.7257 100.509 46.0785 100.874 45.4246C101.756 43.8083 102.642 42.1921 103.513 40.5623C103.669 40.2318 103.747 39.8704 103.743 39.5051C103.74 39.3568 103.716 39.2097 103.672 39.068C103.648 38.9201 103.636 38.7706 103.635 38.6207V37.5127C103.635 36.7842 103.635 36.0557 103.608 35.3272L103.537 30.9528C103.513 30.4547 103.513 29.9363 103.5 29.4586C103.486 29.2773 103.518 29.0956 103.592 28.9298C103.667 28.7641 103.781 28.6197 103.926 28.5098C105.646 26.9783 107.899 27.3307 109.498 28.4488C109.947 28.7639 110.106 29.4958 110.369 30.0414C111.575 32.5787 112.55 35.2199 113.282 37.9329C113.83 39.9659 113.694 41.9989 113.356 44.032C112.812 47.1662 112.265 50.2869 111.721 53.4347C111.647 53.8718 111.599 54.3089 111.539 54.7901C111.679 54.8132 111.822 54.8257 111.964 54.8273C119.983 54.6952 128.018 54.5969 136.05 54.4275C136.599 54.4134 137.144 54.5237 137.645 54.7501C138.146 54.9765 138.589 55.3133 138.942 55.7353C139.295 56.1573 139.549 56.6538 139.684 57.1876C139.819 57.7215 139.833 58.2791 139.723 58.8188Z" fill="white"/>
<path d="M59.0013 58.1344L69.8919 64.5079L72.139 69.5397L55.5107 62.9696L59.0013 58.1344Z" fill="#BA816C"/>
<path d="M69.8885 64.5079C70.3733 64.0906 70.8934 63.7165 71.4429 63.3897C71.9497 63.1593 77.3055 65.3177 77.3292 65.8971C77.3528 66.4766 77.0656 68.5706 76.4878 68.7671C75.91 68.9636 72.139 69.5396 72.139 69.5396C72.139 69.5396 68.3375 65.6261 69.8885 64.5079Z" fill="#BA816C"/>
<path d="M69.8244 39.4543C69.8244 39.4543 65.3539 41.1484 64.1544 44.1438C62.9548 47.1391 52.8211 60.8214 54.7775 63.1729C55.7676 64.3622 57.9944 65.3279 57.9944 65.3279L64.5261 61.2313L63.1305 59.876L69.5879 50.7037C69.5879 50.7037 71.4497 41.8532 69.8244 39.4543Z" fill="#2D914C"/>
<path d="M68.3883 84.2791C71.3044 84.3333 74.2543 84.3537 77.1029 83.7167C79.9514 83.0796 82.729 81.7107 84.5536 79.427L85.6451 81.0331C95.187 83.5623 105.078 84.5044 114.924 83.8217C116.314 83.7524 117.695 83.5665 119.054 83.266C121.361 82.7035 123.49 81.5718 125.592 80.4706L133.249 76.4249C134.398 76.6417 134.837 78.1191 134.668 79.2576C134.499 80.396 133.962 81.5413 134.084 82.7035C134.188 83.6997 134.759 84.5773 135.009 85.5498C135.449 87.2846 134.753 89.172 133.556 90.5002C132.36 91.8284 130.718 92.6823 129.045 93.3159C124.713 94.9593 120.013 95.3252 115.384 95.5218C111.43 95.6878 107.474 95.742 103.52 95.7996C101.195 95.8301 98.8267 95.8572 96.6033 95.1762C94.5759 94.5561 92.7546 93.3702 90.7744 92.5942C90.1903 92.3175 89.5415 92.2073 88.8991 92.2757C88.43 92.3883 87.9871 92.5908 87.5948 92.8721C85.3376 94.3121 83.2527 96.0741 80.7793 97.1041C77.2617 98.5679 73.3116 98.4121 69.5068 98.2325C66.4657 98.0902 62.8873 97.6497 61.3532 95C60.9202 94.1555 60.6193 93.2492 60.4611 92.313C60.0928 90.6493 57.4943 83.5032 59.4069 82.7408C60.326 82.3782 62.4142 83.6523 63.3941 83.8556C65.0427 84.1473 66.7143 84.2891 68.3883 84.2791Z" fill="url(#paint6_linear)"/>
</g>
<defs>
<linearGradient id="paint0_linear" x1="83.0736" y1="43.4254" x2="89.4744" y2="94.1688" gradientUnits="userSpaceOnUse">
<stop stop-color="#010101" stop-opacity="0"/>
<stop offset="0.95" stop-color="#010101" stop-opacity="0.44"/>
</linearGradient>
<linearGradient id="paint1_linear" x1="8086.5" y1="24859" x2="8237.55" y2="18931.2" gradientUnits="userSpaceOnUse">
<stop stop-color="#010101" stop-opacity="0"/>
<stop offset="0.95" stop-color="#010101" stop-opacity="0.44"/>
</linearGradient>
<linearGradient id="paint2_linear" x1="2571.25" y1="2881.88" x2="2981.4" y2="2881.88" gradientUnits="userSpaceOnUse">
<stop stop-color="#010101" stop-opacity="0"/>
<stop offset="0.95" stop-color="#010101" stop-opacity="0.44"/>
</linearGradient>
<linearGradient id="paint3_linear" x1="3703.07" y1="2532.09" x2="4163.02" y2="2532.09" gradientUnits="userSpaceOnUse">
<stop stop-color="#010101" stop-opacity="0"/>
<stop offset="0.95" stop-color="#010101" stop-opacity="0.44"/>
</linearGradient>
<linearGradient id="paint4_linear" x1="100.009" y1="110.858" x2="101.154" y2="-1.5857" gradientUnits="userSpaceOnUse">
<stop stop-color="white" stop-opacity="0"/>
<stop offset="0.15" stop-color="white" stop-opacity="0.22"/>
<stop offset="0.32" stop-color="white" stop-opacity="0.45"/>
<stop offset="0.48" stop-color="white" stop-opacity="0.65"/>
<stop offset="0.64" stop-color="white" stop-opacity="0.8"/>
<stop offset="0.78" stop-color="white" stop-opacity="0.91"/>
<stop offset="0.91" stop-color="white" stop-opacity="0.98"/>
<stop offset="1" stop-color="white"/>
</linearGradient>
<linearGradient id="paint5_linear" x1="65.1174" y1="74.524" x2="71.0628" y2="32.4516" gradientUnits="userSpaceOnUse">
<stop stop-color="#010101" stop-opacity="0"/>
<stop offset="0.95" stop-color="#010101"/>
</linearGradient>
<linearGradient id="paint6_linear" x1="24604.4" y1="4151.87" x2="24547.3" y2="13938" gradientUnits="userSpaceOnUse">
<stop stop-color="#010101" stop-opacity="0"/>
<stop offset="0.95" stop-color="#010101" stop-opacity="0.44"/>
</linearGradient>
<clipPath id="clip0">
<rect width="174" height="166" fill="white"/>
</clipPath>
</defs>
</svg>
