<svg width="212" height="188" viewBox="0 0 212 188" fill="none" xmlns="http://www.w3.org/2000/svg">
<g clip-path="url(#clip0)">
<path opacity="0.18" d="M3.75939 177.729C9.99051 185.241 20.4557 187.815 30.2226 187.995C40.9751 188.182 51.6397 186.03 61.4764 181.687C70.6921 177.609 79.073 171.651 88.638 168.472C108.559 161.859 130.199 168.167 151.195 168.211C165.927 168.243 181.063 164.94 193.001 156.288C204.939 147.636 213.162 133.167 211.869 118.502C211.094 109.78 207.122 101.602 201.889 94.5806C188.101 76.105 166.205 65.4252 150.48 48.6069C140.238 37.6654 131.928 23.6493 117.911 18.3503C111.254 15.8316 103.976 15.6244 96.8661 15.6953C90.0457 15.788 83.0725 16.1751 76.7868 18.8082C69.8737 21.6976 64.2755 27.1329 59.9322 33.2333C47.6664 50.4605 44.7746 72.5124 35.9244 91.724C29.8788 104.884 21.0723 116.633 15.0103 129.787C9.13933 142.577 -7.34968 164.324 3.75939 177.729Z" fill="#2D914C"/>
<path opacity="0.18" d="M123.706 91.4677L116.885 94.6515L165.081 118.273L171.907 115.095L123.706 91.4677Z" fill="#2D914C"/>
<path d="M161.807 60.6168C161.649 60.4937 161.461 60.4164 161.262 60.3933C161.165 60.3841 161.069 60.4048 160.985 60.4527C160.901 60.5005 160.834 60.573 160.792 60.6604C160.738 60.8185 160.792 61.0093 160.694 61.1402C160.641 61.1894 160.578 61.2261 160.509 61.2478C160.44 61.2695 160.367 61.2756 160.296 61.2656C159.663 61.2589 159.035 61.1521 158.435 60.9494C158.162 60.8382 157.876 60.763 157.584 60.7259C157.438 60.709 157.29 60.7315 157.156 60.7909C157.022 60.8504 156.906 60.9446 156.82 61.0639C156.761 61.1943 156.728 61.3351 156.723 61.4782C156.719 61.6213 156.742 61.7639 156.793 61.898C157.106 62.9681 157.725 63.9236 158.574 64.647C159.423 65.3705 160.466 65.8304 161.573 65.9703C162.276 66.0467 163.117 65.9104 163.455 65.2889C164.241 63.8442 162.991 61.4237 161.807 60.6168Z" fill="url(#paint0_linear)"/>
<path d="M162.877 62.5085C163.035 63.6697 161.818 64.5693 161.584 65.7196C161.284 67.1424 162.528 68.3745 163.646 69.3013C167.804 72.7304 171.983 76.1758 176.632 78.9016C177.407 79.3541 178.269 79.8066 179.158 79.6867C180.299 79.534 181.101 78.5146 181.674 77.506C182.394 76.2467 184.604 72.0544 183.769 70.5879C183.114 69.443 179.404 69.3504 178.089 68.9524C172.807 67.3605 167.842 64.9291 162.877 62.5085Z" fill="#2D914C"/>
<path d="M162.877 62.5085C163.035 63.6697 161.818 64.5693 161.584 65.7196C161.284 67.1424 162.528 68.3745 163.646 69.3013C167.804 72.7304 171.983 76.1758 176.632 78.9016C177.407 79.3541 178.269 79.8066 179.158 79.6867C180.299 79.534 181.101 78.5146 181.674 77.506C182.394 76.2467 184.604 72.0544 183.769 70.5879C183.114 69.443 179.404 69.3504 178.089 68.9524C172.807 67.3605 167.842 64.9291 162.877 62.5085Z" fill="url(#paint1_linear)"/>
<path d="M94.6891 81.0005C95.4949 90.9043 95.1819 100.867 93.7561 110.701C93.6197 111.628 93.5324 112.718 94.2253 113.345C94.5573 113.59 94.9588 113.721 95.3711 113.721C95.7835 113.721 96.185 113.59 96.517 113.345C97.1653 112.833 97.6817 112.173 98.0229 111.421C100.244 107.305 101.771 102.862 103.288 98.4458C105.045 93.3158 106.824 88.0386 106.611 82.636C106.464 78.8799 105.356 75.1891 105.52 71.4329C106.124 71.8851 106.636 72.4497 107.026 73.0957C108.946 75.8542 110.911 78.7109 111.582 82.0036C111.857 83.6128 111.967 85.2459 111.909 86.8774C111.869 94.0881 111.529 101.288 110.889 108.477C110.785 109.649 110.687 110.892 111.244 111.928C111.8 112.964 113.29 113.563 114.185 112.805C114.488 112.509 114.722 112.15 114.872 111.753C118.064 104.666 119.237 96.8648 120.137 89.1562C120.71 84.2879 121.174 79.3051 120.056 74.5403C119.462 72.2723 118.692 70.054 117.753 67.9057L113.672 57.8856C113.5 57.3802 113.239 56.9095 112.902 56.4954C112.073 55.5959 110.692 55.525 109.47 55.5359C105.891 55.5613 102.319 55.7431 98.7541 56.0811C97.7665 56.1792 95.6821 55.9884 94.8692 56.708C94.0562 57.4276 94.0289 59.6792 93.8979 60.7586C93.0904 67.4859 94.1435 74.2732 94.6891 81.0005Z" fill="#3E3E54"/>
<path d="M15.8343 142.675C18.5625 154.478 17.062 166.788 17.4275 178.896C17.4712 180.188 17.6731 181.72 18.8244 182.308C19.7956 182.81 20.9687 182.379 21.9508 181.9C23.6196 181.083 25.2198 180.133 26.736 179.059C27.2489 178.694 27.8273 178.133 27.609 177.538C27.4453 177.042 26.8452 176.868 26.3268 176.786C25.1379 176.6 23.9336 176.531 22.7311 176.579L26.0049 151.545C26.3213 149.146 26.6378 146.693 26.1686 144.321C25.923 143.084 25.5138 141.65 26.3159 140.674C29.1695 145.237 34.6313 147.979 36.5956 152.995C37.5068 155.323 37.545 157.901 37.5668 160.393L37.796 183.595C37.7256 184.196 37.8941 184.801 38.2652 185.28C38.8109 185.825 39.6893 185.689 40.415 185.481C42.6288 184.857 44.6954 183.797 46.4934 182.363C46.9844 181.97 47.4864 181.273 47.0936 180.798C46.8653 180.584 46.5662 180.462 46.2533 180.455L42.2374 179.91C44.5564 171.416 44.6873 162.503 44.8074 153.704C44.8941 151.681 44.8083 149.655 44.5509 147.647C44.1144 144.818 43.0068 142.141 41.8937 139.502C40.1549 135.366 38.3798 131.245 36.5683 127.138C36.4382 126.728 36.1752 126.373 35.8208 126.129C35.4993 125.992 35.1462 125.947 34.8005 125.998L23.9206 126.544C21.4052 126.68 17.8313 126.227 15.5997 127.683C11.1473 130.638 14.9558 138.859 15.8343 142.675Z" fill="#3E3E54"/>
<path d="M18.6607 74.5022C20.123 72.3215 22.1582 70.5552 24.1934 68.8707C26.676 66.8263 29.3441 64.7656 32.5143 64.2095C34.3367 63.8879 36.5192 64.2695 37.425 65.845C38.4562 67.6277 37.3486 69.9828 35.6953 71.2203C34.042 72.4578 31.9741 72.9594 30.1189 73.8589C28.3752 74.6475 26.8958 75.9213 25.8576 77.5279C25.303 78.5472 24.8375 79.6124 24.4662 80.7116C23.9143 82.2767 23.0679 83.722 21.9727 84.9694C21.4227 85.589 20.7518 86.09 20.0012 86.4415C19.2507 86.7931 18.4361 86.9878 17.6076 87.0137C16.4017 87.0137 13.2425 94.5261 12.5332 93.5121C11.6602 92.2637 14.121 83.4756 14.7812 82.2708C16.1999 79.7521 17.051 76.9282 18.6607 74.5022Z" fill="#2D914C"/>
<path d="M34.4894 69.0342C35.035 69.0342 35.7007 69.1487 35.9463 69.6502C36.2409 70.2444 35.7389 70.9204 35.2424 71.3511C34.1275 72.2874 32.8787 73.0518 31.5375 73.619C30.8337 73.9352 30.1134 74.2078 29.3878 74.4695C28.9294 74.633 27.7509 75.2872 27.2707 75.1564C26.1085 74.8293 27.1834 72.5341 27.5435 71.8854C27.973 71.1742 28.6166 70.617 29.3823 70.2935C30.9581 69.4682 32.7103 69.0362 34.4894 69.0342V69.0342Z" fill="url(#paint2_linear)"/>
<path d="M178.422 59.1122C178.222 59.592 178.123 60.108 178.133 60.6277C178.278 61.1518 178.497 61.6528 178.782 62.116C179.235 63.1628 179.115 64.5093 179.966 65.2616C180.593 65.8068 181.543 65.8068 182.367 65.6705C182.531 65.616 182.709 65.616 182.874 65.6705C182.975 65.7276 183.056 65.8154 183.103 65.9213C183.382 66.4337 183.251 67.0661 183.332 67.644C183.342 67.767 183.383 67.8855 183.452 67.9875C183.53 68.0642 183.624 68.1234 183.726 68.161C183.829 68.1986 183.938 68.2138 184.047 68.2055C184.808 68.1923 185.561 68.058 186.279 67.8076C186.877 67.6961 187.426 67.4029 187.85 66.968C188.12 66.5559 188.268 66.0758 188.276 65.5833C188.355 63.9367 188.216 62.2868 187.861 60.6768C187.682 59.4396 187.314 58.2372 186.77 57.1114C186.493 56.5493 186.107 56.0481 185.634 55.6371C185.161 55.2261 184.61 54.9137 184.014 54.7182C183.615 54.6163 183.205 54.5578 182.792 54.5437C182.002 54.5055 181.21 54.5328 180.424 54.6255C179.939 54.68 179.278 54.7291 178.973 55.1706C178.667 55.6122 178.782 56.261 178.765 56.7625C178.748 57.5568 178.632 58.346 178.422 59.1122V59.1122Z" fill="url(#paint3_linear)"/>
<path d="M185.471 51.131C183.458 51.2054 181.459 50.7684 179.66 49.8607C179.213 49.55 178.668 49.4124 178.127 49.4737C177.858 49.5729 177.626 49.7531 177.464 49.9894C177.302 50.2257 177.217 50.5065 177.221 50.793C177.244 51.363 177.391 51.9213 177.652 52.4285C178.042 53.4529 178.567 54.4209 179.213 55.3069C180.173 56.5172 181.565 57.4331 182.11 58.8723C182.187 59.0686 182.29 59.3084 182.498 59.3193C182.705 59.3302 182.858 58.9704 182.989 58.7251C183.053 58.6178 183.139 58.5254 183.241 58.4541C183.344 58.3827 183.461 58.334 183.584 58.3113C183.707 58.2886 183.833 58.2924 183.954 58.3224C184.076 58.3524 184.189 58.4079 184.287 58.4852C184.439 58.6472 184.544 58.8473 184.592 59.0643C184.639 59.2813 184.626 59.507 184.555 59.7173C184.408 60.1355 184.225 60.5404 184.009 60.9276C183.942 61.0483 183.903 61.1824 183.894 61.3201C183.894 61.6908 184.255 61.9361 184.533 62.1815C184.805 62.4166 185.029 62.7016 185.193 63.021C185.318 63.339 185.503 63.6297 185.739 63.8769C185.942 64.0226 186.178 64.1145 186.426 64.144C187.067 64.2571 187.727 64.1735 188.32 63.9042C188.801 63.6436 189.217 63.2779 189.537 62.8342C189.858 62.3906 190.074 61.8805 190.169 61.3419C190.357 60.258 190.34 59.1487 190.12 58.0709C190.006 57.324 189.869 56.5772 189.705 55.8412C189.465 54.7509 189.127 53.5951 188.27 52.8755C187.725 52.4285 187.043 52.1722 186.634 51.6162C186.23 51.5235 185.848 51.1146 185.471 51.131Z" fill="#3E3E54"/>
<path d="M97.1771 17.8214L94.6017 18.9881C93.9045 19.2585 93.2487 19.6256 92.6538 20.0784C91.9184 20.7338 91.3959 21.5938 91.1533 22.548C90.918 23.4975 90.837 24.4785 90.9132 25.4537C91.3934 33.4949 90.5258 41.2199 90.9132 49.272C90.9787 50.7984 91.0551 52.3739 91.6716 53.775C92.8611 56.5008 95.8894 58.0382 98.8467 58.3053C101.804 58.5725 104.745 57.7602 107.61 56.9969C109.879 56.3809 112.318 55.6504 113.753 53.7859C115.887 51.0165 114.921 47.0749 114.097 43.6786C112.869 38.6288 112.165 33.4661 111.996 28.2722C111.964 28.0598 111.974 27.8431 112.025 27.6345C112.077 27.4259 112.169 27.2295 112.297 27.0565C112.571 26.8408 112.908 26.7185 113.257 26.7076L135.3 23.84C136.883 21.9538 136.61 19.9312 134.798 18.263C132.987 16.5948 113.05 15.499 105.934 16.9709C103.141 17.5652 99.7525 16.6602 97.1771 17.8214Z" fill="#2D914C"/>
<path d="M113.372 42.5283L113.552 44.8943C113.552 44.8943 99.3324 43.4387 96.9644 40.7074C94.5963 37.9762 96.2332 57.4658 96.2332 57.4658C96.2332 57.4658 92.4138 58.9214 88.0487 52.1831C83.6837 45.4449 90.8369 23.3658 91.1752 22.5644C91.5135 21.763 113.372 42.5283 113.372 42.5283Z" fill="url(#paint4_linear)"/>
<path d="M135.3 19.0862C134.953 19.1699 134.634 19.3457 134.377 19.5952C134.121 19.8446 133.937 20.1584 133.844 20.5036C133.804 20.8984 133.876 21.2963 134.05 21.6527C134.225 22.009 134.495 22.3097 134.831 22.5208C135.513 22.9289 136.247 23.2425 137.014 23.453C138.509 23.9982 139.966 24.7668 141.553 24.8213C142.099 24.8213 142.765 24.696 142.978 24.1835C143.035 23.931 143.025 23.668 142.95 23.4204C142.874 23.1727 142.735 22.9491 142.546 22.7715C141.975 22.0736 141.289 21.4782 140.517 21.0107C140.396 20.953 140.292 20.8646 140.217 20.7544C140.004 20.3783 140.533 19.9476 140.457 19.5224C140.408 19.3738 140.309 19.247 140.176 19.1642C140.044 19.0815 139.886 19.0481 139.731 19.0699C139.422 19.1201 139.12 19.206 138.831 19.3261C137.598 19.7241 136.615 18.7319 135.3 19.0862Z" fill="url(#paint5_linear)"/>
<path d="M93.0412 113.269C92.6585 114.018 92.5302 114.872 92.6756 115.7C92.8572 116.484 93.2629 117.198 93.8433 117.756C94.4252 118.309 95.0784 118.782 95.7857 119.162C97.0844 119.904 98.5139 120.53 100.031 120.432C100.255 120.426 100.476 120.374 100.68 120.28C100.932 120.118 101.126 119.88 101.231 119.6C101.336 119.32 101.348 119.013 101.264 118.726C101.079 118.153 100.77 117.628 100.358 117.189C99.6583 116.399 99.0674 115.518 98.6012 114.572C98.3284 113.95 98.1702 113.291 97.9028 112.669C97.666 112.029 97.2225 111.486 96.6424 111.126C95.1419 110.33 93.636 112.086 93.0412 113.269Z" fill="#3E3E54"/>
<path d="M109.896 115.324C109.912 115.601 109.998 115.869 110.147 116.104C110.377 116.357 110.671 116.545 110.998 116.649C113.666 117.777 116.362 118.917 119.221 119.375C119.974 119.5 120.961 119.446 121.218 118.726C121.267 118.499 121.265 118.263 121.211 118.036C121.157 117.81 121.053 117.598 120.907 117.418C119.854 115.782 118.129 114.735 116.907 113.242C116.339 112.41 115.702 111.628 115.003 110.903C111.931 108.248 109.563 112.549 109.896 115.324Z" fill="#3E3E54"/>
<path opacity="0.18" d="M171.907 115.095L123.706 91.4677V0L171.907 27.5635V115.095Z" fill="#2D914C"/>
<path opacity="0.18" d="M165.081 118.273L116.885 94.6514V3.17828L165.081 30.7418V118.273Z" fill="#2D914C"/>
<path d="M30.0698 70.0591C30.4299 70.2553 30.8555 70.4516 30.9701 70.8441C31.1501 71.4602 30.4244 71.9344 30.1189 72.4796C29.7478 73.1284 29.9224 73.9352 29.8679 74.6603C29.8149 75.2702 29.6066 75.8564 29.2628 76.3631C28.9189 76.8698 28.451 77.2801 27.9036 77.5551C27.2761 77.8604 26.5504 77.9858 26.0048 78.4219C24.8153 79.365 24.9626 81.3549 23.8223 82.3362C23.4126 82.6556 22.9313 82.8707 22.42 82.9631C21.7215 83.1629 20.9753 83.1148 20.3084 82.8268C19.6452 82.4434 19.1404 81.8365 18.8843 81.115C18.362 79.602 18.1036 78.0106 18.1204 76.4102C18.0058 72.883 18.2732 69.0941 20.4284 66.2974C20.7847 65.8048 21.2354 65.3878 21.7543 65.0708C23.2821 64.204 26.0539 64.6238 27.2707 65.9267C27.6557 66.4609 27.9387 67.0616 28.1055 67.6985C28.4697 68.6873 29.1633 69.5208 30.0698 70.0591V70.0591Z" fill="url(#paint6_linear)"/>
<path d="M26.0922 69.1705C25.5892 69.7348 24.9143 70.118 24.1716 70.2608C23.5277 70.3317 22.7857 70.119 22.2728 70.5225C22.0682 70.7279 21.9295 70.9894 21.8741 71.2739C21.8187 71.5583 21.8492 71.8527 21.9617 72.1198C22.1473 72.665 22.5074 73.1556 22.682 73.7008C23.1349 75.0037 22.6438 76.4266 22.1363 77.7077C21.9816 78.2985 21.6412 78.824 21.1651 79.2069C20.788 79.4212 20.3603 79.5304 19.9265 79.5231C19.0861 79.5982 18.242 79.4257 17.4985 79.027C16.7146 78.4982 16.1186 77.7348 15.7961 76.8464C14.9231 74.7693 14.8794 72.4469 14.9504 70.1954C14.9536 69.3054 15.045 68.4179 15.2232 67.5459C15.5708 66.1926 16.2975 64.9665 17.3181 64.0115C18.3387 63.0565 19.6108 62.4122 20.9851 62.1542C22.5183 61.8816 24.0733 62.0997 25.6175 61.9961C26.5014 61.9361 28.1001 61.2547 28.744 62.2033C29.3878 63.1518 28.613 64.9672 28.2693 65.8395C27.7778 67.0862 27.037 68.2196 26.0922 69.1705V69.1705Z" fill="#3E3E54"/>
<path d="M15.4523 83.8354C14.4567 85.0569 13.7298 86.4742 13.3188 87.995C11.4091 94.0299 11.5073 100.485 11.6274 106.809L11.922 122.618C11.9657 124.946 12.0912 127.492 13.6462 129.226C15.2013 130.959 17.7548 131.357 20.0847 131.406C24.5928 131.497 29.0728 130.677 33.2562 128.997C34.6694 128.452 36.1045 127.716 37.0157 126.495C38.6526 124.276 38.1069 121.179 37.5122 118.481C35.908 111.481 34.302 104.483 32.6942 97.4863C31.603 92.6616 30.1025 87.4498 26.3867 83.9008C23.5276 81.1859 18.2896 80.6571 15.4523 83.8354Z" fill="#2D914C"/>
<path d="M33.158 100.545C33.158 100.545 28.9185 95.3547 26.0648 97.4045C23.2112 99.4544 35.0896 121.446 31.5211 129.373C31.5211 129.373 35.4115 129.809 37.0211 126.516C38.6307 123.224 38.4943 122.542 37.9487 121.174C37.4031 119.805 33.158 100.545 33.158 100.545Z" fill="url(#paint7_linear)"/>
<path d="M27.4453 86.6376C26.8914 86.6009 26.3356 86.6713 25.8084 86.8447C25.3215 87.0779 24.8903 87.4126 24.5439 87.8264C24.1976 88.2402 23.944 88.7234 23.8004 89.2434C22.5182 92.9996 24.7007 97.2519 27.9418 99.5416C31.1828 101.831 32.3669 100.708 36.3063 101.243C37.0673 101.403 37.8534 101.403 38.6144 101.243C39.8748 100.872 40.7041 99.6997 41.3971 98.5821C43.3941 95.3384 49.0032 86.1251 48.7577 84.8985C48.4248 83.203 48.0538 83.6337 46.6461 82.6251C46.4815 82.4359 46.2726 82.2904 46.0379 82.2017C45.8033 82.1129 45.5503 82.0837 45.3016 82.1167C45.0528 82.1496 44.8162 82.2437 44.6128 82.3905C44.4094 82.5373 44.2456 82.7321 44.1362 82.9577L37.0866 91.2115C36.8138 91.5331 36.4646 91.882 36.0444 91.833C35.8027 91.7766 35.5816 91.6539 35.406 91.4786C32.8907 89.3579 30.8882 86.6376 27.4453 86.6376Z" fill="#2D914C"/>
<path d="M43.0559 79.7848C42.9994 79.7347 42.9552 79.6722 42.9268 79.6022C42.8985 79.5323 42.8866 79.4567 42.8922 79.3814C42.925 79.196 43.1323 79.1088 43.3178 79.0543C43.6949 78.9507 44.0836 78.8958 44.4746 78.8907C44.7357 78.9132 44.9983 78.8701 45.2385 78.7653C45.4722 78.6021 45.6358 78.3568 45.6968 78.0784C46.1551 76.6119 45.7404 75.0255 45.6968 73.4881C45.6968 73.1665 45.7732 72.7413 46.0896 72.7086C46.6628 73.8152 47.0831 74.9944 47.3391 76.214C47.3879 76.5178 47.4741 76.8144 47.5956 77.0971C47.8127 77.4479 48.0897 77.7579 48.414 78.013C48.9417 78.4351 49.3499 78.9876 49.598 79.6158C49.8927 80.5589 49.5271 81.5784 49.0524 82.4398C48.9431 82.6818 48.749 82.8757 48.5068 82.9849C48.3284 83.0353 48.1395 83.0353 47.9612 82.9849C47.0145 82.7975 46.1589 82.2961 45.5331 81.562C44.8347 80.8261 43.7543 80.5589 43.0559 79.7848Z" fill="url(#paint8_linear)"/>
<path d="M38.4889 72.2016C38.7726 72.4687 39.1327 72.7468 39.5092 72.6486C39.9948 72.5287 40.1258 71.88 39.9839 71.4002C39.7709 70.9496 39.5886 70.4852 39.4383 70.01C39.4074 69.8835 39.4228 69.75 39.4819 69.6339C39.5596 69.5298 39.6657 69.4503 39.7875 69.4049C40.8931 68.9333 42.0778 68.6743 43.2795 68.6417C43.6069 68.6417 44.0598 68.4563 43.9834 68.1347C43.907 67.813 43.6014 67.8403 43.3504 67.8403H41.2279C41.0843 67.8561 40.9396 67.8214 40.8187 67.7422C40.7234 67.6296 40.6645 67.4909 40.6496 67.3442C40.5001 66.9019 40.2289 66.5108 39.8669 66.2157C39.505 65.9206 39.067 65.7335 38.6034 65.676C37.6842 65.5835 36.7558 65.68 35.8753 65.9595C35.3268 66.0359 34.8256 66.3115 34.4676 66.7336C34.0474 67.3769 34.3748 68.2328 34.7622 68.9143C35.2642 69.7647 35.7607 69.7429 36.4973 70.1627C37.2339 70.5825 37.8505 71.6074 38.4889 72.2016Z" fill="url(#paint9_linear)"/>
<path d="M119.062 39.9333C119.267 39.9963 119.448 40.1199 119.581 40.2877C119.662 40.4364 119.703 40.6035 119.701 40.7729C119.734 41.5818 119.608 42.3893 119.33 43.1498C119.292 43.3019 119.204 43.4365 119.079 43.5314C118.973 43.5876 118.855 43.6175 118.735 43.6186C110.414 43.8912 102.366 40.6257 95.0382 36.7114C94.1107 36.2153 93.1394 35.6647 92.6374 34.7433C92.2859 33.9779 92.1374 33.1349 92.2064 32.2956C92.3304 29.6511 92.6956 27.0234 93.2977 24.4452C93.4614 23.6438 93.9361 22.5589 94.9346 23.0932C95.6493 23.4912 96.3859 24.6633 96.9807 25.2738C98.523 26.793 100.134 28.2468 101.815 29.6352C105.12 32.3253 108.665 34.7067 112.406 36.7496C114.566 37.9299 116.788 38.9927 119.062 39.9333Z" fill="#2D914C"/>
<path d="M123.013 39.7207C123.307 39.5462 123.728 39.3663 123.929 39.6389C124.131 39.9115 123.858 40.2549 123.602 40.4621C123.346 40.6693 123.056 41.0073 123.215 41.2744C123.306 41.4035 123.442 41.4946 123.597 41.5306C125.381 42.1357 127.334 41.6833 129.211 41.825C129.366 41.8262 129.519 41.8616 129.659 41.9286C129.786 42.021 129.888 42.1448 129.954 42.2881C130.02 42.4313 130.048 42.5892 130.035 42.7463C130.015 43.1237 129.912 43.492 129.733 43.8254C129.555 44.1588 129.306 44.4492 129.004 44.6762C128.394 45.1254 127.7 45.4462 126.963 45.6193C126.051 45.9253 125.079 46.0063 124.128 45.8553C123.178 45.7044 122.279 45.326 121.507 44.7525C120.519 44.142 119.608 43.4114 118.615 42.8172C118.409 42.7241 118.234 42.5724 118.113 42.3811C118.063 42.2679 118.039 42.145 118.042 42.0213C118.038 41.816 118.077 41.6121 118.158 41.4232C118.239 41.2343 118.358 41.0647 118.51 40.9255C118.661 40.7864 118.84 40.6809 119.035 40.616C119.23 40.5512 119.436 40.5284 119.641 40.5493C120.82 40.592 121.988 40.305 123.013 39.7207V39.7207Z" fill="url(#paint10_linear)"/>
<path d="M106.682 12.8768C106.741 13.9017 106.588 14.9277 106.235 15.8915C106.053 16.3677 105.753 16.7896 105.363 17.1169C104.972 17.4443 104.504 17.6662 104.003 17.7614C103.773 17.7604 103.546 17.8087 103.337 17.9032C103.199 18.032 103.093 18.1927 103.031 18.3712C102.968 18.5498 102.949 18.7409 102.977 18.9281L102.912 20.8525C102.934 21.1198 102.881 21.388 102.759 21.6267C102.591 21.8438 102.358 22.0007 102.093 22.0737C101.495 22.3184 100.83 22.3511 100.211 22.1664C99.6698 21.9337 99.2034 21.5564 98.8631 21.076C97.9374 19.9167 97.3502 18.5244 97.1662 17.0527C97.0134 15.7825 97.1225 14.3814 96.3368 13.3783C96.0197 13.0664 95.7446 12.7145 95.5184 12.3316C95.3438 11.9227 95.5184 11.3176 95.9603 11.2794C96.4023 11.2413 96.6751 11.6774 97.0789 11.6665C96.8876 10.7267 96.8016 9.76861 96.8224 8.80984C96.8459 7.8433 97.1851 6.91094 97.7882 6.15489C98.2179 5.71127 98.7339 5.36009 99.3043 5.12291C99.8748 4.88572 100.488 4.76754 101.106 4.77562C102.65 4.72656 104.86 5.32079 105.694 6.78183C106.682 8.47184 106.677 11.0014 106.682 12.8768Z" fill="url(#paint11_linear)"/>
<path d="M106.546 7.83402C106.822 7.12066 106.944 6.35724 106.906 5.5934C106.906 4.69387 106.906 3.79435 106.906 2.86757C106.94 2.35532 106.848 1.84248 106.638 1.37382C106.093 0.408881 104.778 0.23988 103.697 0.425236C102.219 0.756082 100.799 1.30743 99.4851 2.06073C98.3708 2.57549 97.3319 3.23942 96.3969 4.03423C95.4492 4.84042 94.8605 5.9894 94.76 7.22889C94.7766 7.55499 94.7601 7.88194 94.7109 8.20474C94.5431 8.63718 94.329 9.05027 94.0725 9.43681C93.4832 10.6362 93.9688 12.1027 94.7436 13.1875C95.5184 14.2724 96.5715 15.1501 97.3081 16.2623C97.4283 16.1488 97.5134 16.0031 97.553 15.8426C97.5927 15.6822 97.5853 15.5137 97.5318 15.3573C97.4175 15.0475 97.2535 14.7584 97.0462 14.5014C96.574 13.8945 96.2524 13.1846 96.1077 12.4298C96.0508 12.1308 96.097 11.8214 96.2386 11.552C96.314 11.4214 96.4326 11.3211 96.574 11.2684C96.7154 11.2157 96.8708 11.2138 97.0134 11.2631C97.1398 11.3402 97.2508 11.44 97.3408 11.5575C97.5902 11.8327 97.8789 12.0697 98.1974 12.2608C98.2196 12.2781 98.245 12.2909 98.2722 12.2984C98.2993 12.3059 98.3277 12.3079 98.3557 12.3044C98.443 12.3044 98.4703 12.179 98.4812 12.0918C98.5958 10.8869 97.9355 9.67668 98.1865 8.49367C98.2052 8.37285 98.2604 8.26062 98.3448 8.17202C98.4352 8.10464 98.5432 8.06488 98.6558 8.05754C100.293 7.83402 102.071 9.14787 103.626 8.42825C104.132 8.12074 104.57 7.71469 104.914 7.23434C105.143 6.96721 105.394 6.47111 105.754 6.61285C106.066 6.98661 106.332 7.39664 106.546 7.83402V7.83402Z" fill="#B7A451"/>
<path d="M175.137 89.1671C170.925 93.692 163.93 95.1312 158.108 97.2138C156.542 94.9895 156.826 94.7115 155.603 92.3073C157.944 92.1219 159.865 90.4428 161.534 88.791C166.958 83.4374 171.749 77.4842 176.665 71.6673C177.556 70.5447 178.56 69.5162 179.66 68.5981C182.519 66.3574 186.295 65.7141 189.918 65.4198C192.597 65.2071 193.192 69.1487 193.639 71.7982C195.036 80.1065 194.905 88.5893 194.769 97.0175C194.773 99.5252 194.64 102.031 194.371 104.524C194.196 105.904 193.825 107.457 192.581 108.117C192.006 108.366 191.385 108.494 190.758 108.493C185.516 108.895 180.247 108.756 175.033 108.079C174.188 107.97 173.276 107.812 172.709 107.185C172.335 106.729 172.11 106.17 172.065 105.582C171.76 103.211 172.796 100.905 173.418 98.5985C174.199 95.6546 175.704 92.171 175.137 89.1671Z" fill="#2D914C"/>
<path d="M192.494 106.7C191.462 116.9 190.431 127.132 190.655 137.381C190.748 141.868 191.086 146.36 190.824 150.842C190.759 152.008 190.557 153.344 189.575 153.987C188.592 154.63 187.337 154.298 186.263 153.9C184.56 153.269 182.916 152.488 181.352 151.567C181.115 151.466 180.922 151.284 180.806 151.054C180.771 150.889 180.783 150.718 180.844 150.56C180.904 150.402 181.008 150.265 181.145 150.166C182.236 149.206 184.375 149.691 185.04 148.383C185.189 148.039 185.261 147.667 185.253 147.293C185.584 142.504 185.316 137.693 184.456 132.971C184.124 131.336 183.682 129.667 183.338 128.01C182.929 126.064 182.661 124.09 182.389 122.122L181.576 116.235C179.164 121.174 176.519 125.993 173.642 130.692C173.587 139.077 172.687 148.061 172.518 156.44C172.518 157.247 172.442 158.152 171.841 158.697C171.399 159.037 170.86 159.228 170.303 159.243C167.225 159.57 163.641 158.152 162.806 155.159C162.683 154.849 162.683 154.504 162.806 154.194C163.351 153.213 164.961 154.271 165.938 153.726C166.483 153.409 166.636 152.668 166.696 152.025C167.41 144.588 167.144 137.09 165.905 129.722C165.512 127.378 165.016 125.017 165.163 122.635C165.37 119.2 166.898 116.006 168.399 112.909L171.012 107.523C171.31 106.729 171.824 106.034 172.496 105.517C173.111 105.189 173.796 105.013 174.493 105.004C179.77 104.568 187.381 105.44 192.494 106.7Z" fill="#3E3E54"/>
<path d="M152.275 92.1383C151.069 91.7239 149.896 91.0479 148.625 91.1188C148.562 91.2183 148.528 91.3336 148.528 91.4514C148.528 91.5691 148.562 91.6844 148.625 91.7839C148.723 91.9965 148.887 92.1764 148.985 92.389C149.004 92.4188 149.016 92.4521 149.021 92.4869C149.025 92.5217 149.022 92.5571 149.012 92.5907C148.969 92.6725 148.859 92.6889 148.767 92.6943L144.211 92.9451C144.312 93.6539 144.578 94.3294 144.986 94.9179C145.394 95.5065 145.934 95.992 146.562 96.336C147.832 97.0175 149.258 97.3558 150.698 97.3173C151.477 97.3442 152.255 97.2523 153.006 97.0447C154.098 96.7285 155.025 96.0798 156.073 95.6764C156.37 95.5874 156.651 95.4531 156.908 95.2784C157.791 94.5915 157.393 93.0214 156.4 92.6398C155.862 92.5311 155.309 92.5072 154.763 92.5689C153.917 92.5538 153.077 92.4085 152.275 92.1383V92.1383Z" fill="url(#paint12_linear)"/>
<path opacity="0.18" d="M116.885 3.17831L123.706 0L171.907 27.5635L165.081 30.7418L116.885 3.17831Z" fill="#2D914C"/>
<path opacity="0.57" d="M140.282 38.2869L127.154 50.7712L140.986 60.7259C140.986 60.7259 155.205 47.751 154.572 47.5438C153.939 47.3367 140.282 38.2869 140.282 38.2869Z" fill="#2D914C"/>
<path opacity="0.82" d="M127.149 50.7766L132.872 68.4018L143.632 76.4157L140.986 60.7259L127.149 50.7766Z" fill="#2D914C"/>
<path opacity="0.39" d="M154.567 47.5438L156.831 61.0694L143.632 76.4157L140.986 60.7259L154.567 47.5438Z" fill="#2D914C"/>
</g>
<defs>
<linearGradient id="paint0_linear" x1="156.738" y1="63.19" x2="163.711" y2="63.19" gradientUnits="userSpaceOnUse">
<stop stop-color="#E5C5D5"/>
<stop offset="0.42" stop-color="#EAD4D1"/>
<stop offset="1" stop-color="#F0E9CB"/>
</linearGradient>
<linearGradient id="paint1_linear" x1="161.535" y1="71.1058" x2="183.955" y2="71.1058" gradientUnits="userSpaceOnUse">
<stop stop-opacity="0"/>
<stop offset="0.99"/>
</linearGradient>
<linearGradient id="paint2_linear" x1="1059.69" y1="883.914" x2="1086.17" y2="983.046" gradientUnits="userSpaceOnUse">
<stop stop-opacity="0"/>
<stop offset="0.99"/>
</linearGradient>
<linearGradient id="paint3_linear" x1="4069.93" y1="1690.2" x2="4259.82" y2="1690.2" gradientUnits="userSpaceOnUse">
<stop stop-color="#E5C5D5"/>
<stop offset="0.42" stop-color="#EAD4D1"/>
<stop offset="1" stop-color="#F0E9CB"/>
</linearGradient>
<linearGradient id="paint4_linear" x1="5876.06" y1="2844.59" x2="7204.33" y2="2844.59" gradientUnits="userSpaceOnUse">
<stop stop-opacity="0"/>
<stop offset="0.99"/>
</linearGradient>
<linearGradient id="paint5_linear" x1="2903.3" y1="293.5" x2="3058.46" y2="293.5" gradientUnits="userSpaceOnUse">
<stop stop-color="#E5C5D5"/>
<stop offset="0.42" stop-color="#EAD4D1"/>
<stop offset="1" stop-color="#F0E9CB"/>
</linearGradient>
<linearGradient id="paint6_linear" x1="18.115" y1="73.8698" x2="30.9973" y2="73.8698" gradientUnits="userSpaceOnUse">
<stop stop-color="#867580"/>
<stop offset="0.57" stop-color="#9B8F8E"/>
</linearGradient>
<linearGradient id="paint7_linear" x1="1681.3" y1="7929.21" x2="-762.55" y2="6406.01" gradientUnits="userSpaceOnUse">
<stop stop-opacity="0"/>
<stop offset="0.99"/>
</linearGradient>
<linearGradient id="paint8_linear" x1="962.575" y1="1618.07" x2="1047.53" y2="1618.07" gradientUnits="userSpaceOnUse">
<stop stop-color="#867580"/>
<stop offset="0.57" stop-color="#9B8F8E"/>
</linearGradient>
<linearGradient id="paint9_linear" x1="1192.7" y1="1006.11" x2="1366.41" y2="1006.11" gradientUnits="userSpaceOnUse">
<stop stop-color="#867580"/>
<stop offset="0.57" stop-color="#9B8F8E"/>
</linearGradient>
<linearGradient id="paint10_linear" x1="3389.46" y1="588.259" x2="3653.51" y2="588.259" gradientUnits="userSpaceOnUse">
<stop stop-color="#E5C5D5"/>
<stop offset="0.42" stop-color="#EAD4D1"/>
<stop offset="1" stop-color="#F0E9CB"/>
</linearGradient>
<linearGradient id="paint11_linear" x1="2696.56" y1="561.995" x2="2927.6" y2="561.995" gradientUnits="userSpaceOnUse">
<stop stop-color="#E5C5D5"/>
<stop offset="0.42" stop-color="#EAD4D1"/>
<stop offset="1" stop-color="#F0E9CB"/>
</linearGradient>
<linearGradient id="paint12_linear" x1="4372.44" y1="1207.42" x2="4691.17" y2="1207.42" gradientUnits="userSpaceOnUse">
<stop stop-color="#E5C5D5"/>
<stop offset="0.42" stop-color="#EAD4D1"/>
<stop offset="1" stop-color="#F0E9CB"/>
</linearGradient>
<clipPath id="clip0">
<rect width="212" height="188" fill="white"/>
</clipPath>
</defs>
</svg>
